<?xml version="1.0" encoding="UTF-8" standalone="no"?>
<!-- Created with Inkscape (http://www.inkscape.org/) -->

<svg
   width="24in"
   height="18in"
   viewBox="0 0 2160 1620"
   id="svg6344"
   version="1.1"
   inkscape:version="1.1.2 (0a00cf5339, 2022-02-04)"
   sodipodi:docname="layout9.svg"
   xmlns:inkscape="http://www.inkscape.org/namespaces/inkscape"
   xmlns:sodipodi="http://sodipodi.sourceforge.net/DTD/sodipodi-0.dtd"
   xmlns="http://www.w3.org/2000/svg"
   xmlns:svg="http://www.w3.org/2000/svg"
   xmlns:rdf="http://www.w3.org/1999/02/22-rdf-syntax-ns#"
   xmlns:cc="http://creativecommons.org/ns#"
   xmlns:dc="http://purl.org/dc/elements/1.1/">
  <defs
     id="defs6346">
    <marker
       orient="auto"
       id="DistanceX"
       style="overflow:visible"
       refX="0.0"
       refY="0.0">
      <path
         id="path6359"
         d="M 3,-3 L -3,3 M 0,-5 L  0,5"
         style="stroke:#000000; stroke-width:0.5" />
    </marker>
    <pattern
       id="Hatch"
       x="0"
       y="0"
       patternUnits="userSpaceOnUse"
       width="8"
       height="8">
      <path
         id="path6362"
         d="M8 4 l-4,4"
         stroke-width="0.25"
         stroke="#000000"
         linecap="square" />
      <path
         id="path6364"
         d="M6 2 l-4,4"
         stroke-width="0.25"
         stroke="#000000"
         linecap="square" />
      <path
         id="path6366"
         d="M4 0 l-4,4"
         stroke-width="0.25"
         stroke="#000000"
         linecap="square" />
    </pattern>
    <symbol
       id="*Model_Space" />
    <symbol
       id="*Paper_Space" />
    <marker
       orient="auto"
       id="DistanceX-7"
       style="overflow:visible"
       refX="0.0"
       refY="0.0">
      <path
         id="path3380"
         d="M 3,-3 L -3,3 M 0,-5 L  0,5"
         style="stroke:#000000; stroke-width:0.5" />
    </marker>
    <pattern
       id="Hatch-4"
       x="0"
       y="0"
       patternUnits="userSpaceOnUse"
       width="8"
       height="8">
      <path
         id="path3383"
         d="M8 4 l-4,4"
         stroke-width="0.25"
         stroke="#000000"
         linecap="square" />
      <path
         id="path3385"
         d="M6 2 l-4,4"
         stroke-width="0.25"
         stroke="#000000"
         linecap="square" />
      <path
         id="path3387"
         d="M4 0 l-4,4"
         stroke-width="0.25"
         stroke="#000000"
         linecap="square" />
    </pattern>
    <symbol
       id="*Model_Space-1" />
    <symbol
       id="*Paper_Space-8" />
    <marker
       orient="auto"
       id="DistanceX-1"
       style="overflow:visible"
       refX="0.0"
       refY="0.0">
      <path
         id="path5193"
         d="M 3,-3 L -3,3 M 0,-5 L  0,5"
         style="stroke:#000000; stroke-width:0.5" />
    </marker>
    <pattern
       id="Hatch-9"
       x="0"
       y="0"
       patternUnits="userSpaceOnUse"
       width="8"
       height="8">
      <path
         id="path5196"
         d="M8 4 l-4,4"
         stroke-width="0.25"
         stroke="#000000"
         linecap="square" />
      <path
         id="path5198"
         d="M6 2 l-4,4"
         stroke-width="0.25"
         stroke="#000000"
         linecap="square" />
      <path
         id="path5200"
         d="M4 0 l-4,4"
         stroke-width="0.25"
         stroke="#000000"
         linecap="square" />
    </pattern>
    <symbol
       id="*Model_Space-2" />
    <symbol
       id="*Paper_Space-1" />
    <marker
       orient="auto"
       id="DistanceX-71"
       style="overflow:visible"
       refX="0.0"
       refY="0.0">
      <path
         id="path5922"
         d="M 3,-3 L -3,3 M 0,-5 L  0,5"
         style="stroke:#000000; stroke-width:0.5" />
    </marker>
    <pattern
       id="Hatch-2"
       x="0"
       y="0"
       patternUnits="userSpaceOnUse"
       width="8"
       height="8">
      <path
         id="path5925"
         d="M8 4 l-4,4"
         stroke-width="0.25"
         stroke="#000000"
         linecap="square" />
      <path
         id="path5927"
         d="M6 2 l-4,4"
         stroke-width="0.25"
         stroke="#000000"
         linecap="square" />
      <path
         id="path5929"
         d="M4 0 l-4,4"
         stroke-width="0.25"
         stroke="#000000"
         linecap="square" />
    </pattern>
    <symbol
       id="*Model_Space-0" />
    <symbol
       id="*Paper_Space-88" />
    <marker
       orient="auto"
       id="DistanceX-14"
       style="overflow:visible"
       refX="0.0"
       refY="0.0">
      <path
         id="path6487"
         d="M 3,-3 L -3,3 M 0,-5 L  0,5"
         style="stroke:#000000; stroke-width:0.5" />
    </marker>
    <pattern
       id="Hatch-99"
       x="0"
       y="0"
       patternUnits="userSpaceOnUse"
       width="8"
       height="8">
      <path
         id="path6490"
         d="M8 4 l-4,4"
         stroke-width="0.25"
         stroke="#000000"
         linecap="square" />
      <path
         id="path6492"
         d="M6 2 l-4,4"
         stroke-width="0.25"
         stroke="#000000"
         linecap="square" />
      <path
         id="path6494"
         d="M4 0 l-4,4"
         stroke-width="0.25"
         stroke="#000000"
         linecap="square" />
    </pattern>
    <symbol
       id="*Model_Space-14" />
    <symbol
       id="*Paper_Space-3" />
    <marker
       orient="auto"
       id="DistanceX-79"
       style="overflow:visible"
       refX="0.0"
       refY="0.0">
      <path
         id="path6748"
         d="M 3,-3 L -3,3 M 0,-5 L  0,5"
         style="stroke:#000000; stroke-width:0.5" />
    </marker>
    <pattern
       id="Hatch-5"
       x="0"
       y="0"
       patternUnits="userSpaceOnUse"
       width="8"
       height="8">
      <path
         id="path6751"
         d="M8 4 l-4,4"
         stroke-width="0.25"
         stroke="#000000"
         linecap="square" />
      <path
         id="path6753"
         d="M6 2 l-4,4"
         stroke-width="0.25"
         stroke="#000000"
         linecap="square" />
      <path
         id="path6755"
         d="M4 0 l-4,4"
         stroke-width="0.25"
         stroke="#000000"
         linecap="square" />
    </pattern>
    <symbol
       id="*Model_Space-9" />
    <symbol
       id="*Paper_Space-9" />
    <marker
       id="DistanceX-3"
       orient="auto"
       refX="0.0"
       refY="0.0"
       style="overflow:visible">
      <path
         d="M 3,-3 L -3,3 M 0,-5 L  0,5"
         style="stroke:#000000; stroke-width:0.5"
         id="path109" />
    </marker>
    <pattern
       id="Hatch-6"
       patternUnits="userSpaceOnUse"
       width="8"
       height="8"
       x="0"
       y="0">
      <path
         d="M8 4 l-4,4"
         stroke="#000000"
         stroke-width="0.25"
         linecap="square"
         id="path112" />
      <path
         d="M6 2 l-4,4"
         stroke="#000000"
         stroke-width="0.25"
         linecap="square"
         id="path114" />
      <path
         d="M4 0 l-4,4"
         stroke="#000000"
         stroke-width="0.25"
         linecap="square"
         id="path116" />
    </pattern>
    <symbol
       id="*Model_Space-7" />
    <symbol
       id="*Paper_Space-5" />
    <marker
       id="DistanceX-36"
       orient="auto"
       refX="0.0"
       refY="0.0"
       style="overflow:visible">
      <path
         d="M 3,-3 L -3,3 M 0,-5 L  0,5"
         style="stroke:#000000; stroke-width:0.5"
         id="path1103" />
    </marker>
    <pattern
       id="Hatch-7"
       patternUnits="userSpaceOnUse"
       width="8"
       height="8"
       x="0"
       y="0">
      <path
         d="M8 4 l-4,4"
         stroke="#000000"
         stroke-width="0.25"
         linecap="square"
         id="path1106" />
      <path
         d="M6 2 l-4,4"
         stroke="#000000"
         stroke-width="0.25"
         linecap="square"
         id="path1108" />
      <path
         d="M4 0 l-4,4"
         stroke="#000000"
         stroke-width="0.25"
         linecap="square"
         id="path1110" />
    </pattern>
    <symbol
       id="*Model_Space-5" />
    <symbol
       id="*Paper_Space-35" />
  </defs>
  <sodipodi:namedview
     id="base"
     pagecolor="#ffffff"
     bordercolor="#666666"
     borderopacity="1.0"
     inkscape:pageopacity="0.0"
     inkscape:pageshadow="2"
     inkscape:zoom="0.7"
     inkscape:cx="1379.2857"
     inkscape:cy="768.57143"
     inkscape:document-units="px"
     inkscape:current-layer="layer1"
     showgrid="false"
     units="in"
     inkscape:window-width="2560"
     inkscape:window-height="1355"
     inkscape:window-x="0"
     inkscape:window-y="0"
     inkscape:window-maximized="1"
     inkscape:pagecheckerboard="0" />
  <metadata
     id="metadata6349">
    <rdf:RDF>
      <cc:Work
         rdf:about="">
        <dc:format>image/svg+xml</dc:format>
        <dc:type
           rdf:resource="http://purl.org/dc/dcmitype/StillImage" />
        <dc:title />
      </cc:Work>
    </rdf:RDF>
  </metadata>
  <g
     inkscape:label="Layer 1"
     inkscape:groupmode="layer"
     id="layer1"
     transform="translate(0,567.63785)">
    <path
       d="m 21.579574,-369.57801 a 3.5433075,3.5433075 0 0 0 3.543307,3.54331"
       style="fill:none;stroke:#000000;stroke-width:0.9375;stroke-linecap:round;stroke-opacity:1"
       id="path1129" />
    <path
       style="fill:none;stroke:#000000;stroke-width:0.9375;stroke-linecap:round;stroke-opacity:1"
       d="m 21.579572,-542.49099 v 172.91343"
       id="path1131" />
    <path
       d="m 25.122881,-546.0347 a 3.5433075,3.5433075 0 0 0 -3.543307,3.54331"
       style="fill:none;stroke:#000000;stroke-width:0.9375;stroke-linecap:round;stroke-opacity:1"
       id="path1133" />
    <path
       style="fill:none;stroke:#000000;stroke-width:0.9375;stroke-linecap:round;stroke-opacity:1"
       d="M 1863.0383,-546.03474 H 25.122854"
       id="path1135" />
    <path
       d="m 1866.5796,-542.49139 a 3.5433075,3.5433075 0 0 0 -3.5433,-3.54331"
       style="fill:none;stroke:#000000;stroke-width:0.9375;stroke-linecap:round;stroke-opacity:1"
       id="path1137" />
    <path
       style="fill:none;stroke:#000000;stroke-width:0.9375;stroke-linecap:round;stroke-opacity:1"
       d="M 1866.582,-369.57756 V -542.49099"
       id="path1139" />
    <path
       d="m 1863.0363,-366.0347 a 3.5433075,3.5433075 0 0 0 3.5433,-3.54331"
       style="fill:none;stroke:#000000;stroke-width:0.9375;stroke-linecap:round;stroke-opacity:1"
       id="path1141" />
    <path
       style="fill:none;stroke:#000000;stroke-width:0.9375;stroke-linecap:round;stroke-opacity:1"
       d="M 25.122854,-366.03475 H 1863.0383"
       id="path1143" />
    <path
       d="m 25.89729,-355.07137 a 3.5433075,3.5433075 0 0 0 -3.543308,3.54331"
       style="fill:none;stroke:#000000;stroke-width:0.9375;stroke-linecap:round;stroke-opacity:1"
       id="path1145" />
    <path
       style="fill:none;stroke:#000000;stroke-width:0.9375;stroke-linecap:round;stroke-opacity:1"
       d="M 22.353947,-178.61468 V -351.52787"
       id="path1147" />
    <path
       d="m 22.353982,-178.61468 a 3.5433075,3.5433075 0 0 0 3.543308,3.54331"
       style="fill:none;stroke:#000000;stroke-width:0.9375;stroke-linecap:round;stroke-opacity:1"
       id="path1149" />
    <path
       style="fill:none;stroke:#000000;stroke-width:0.9375;stroke-linecap:round;stroke-opacity:1"
       d="M 1593.807,-175.07137 H 25.897323"
       id="path1151" />
    <path
       d="m 1593.8107,-175.07137 a 3.5433075,3.5433075 0 0 0 3.5432,-3.54331"
       style="fill:none;stroke:#000000;stroke-width:0.9375;stroke-linecap:round;stroke-opacity:1"
       id="path1153" />
    <path
       style="fill:none;stroke:#000000;stroke-width:0.9375;stroke-linecap:round;stroke-opacity:1"
       d="m 1597.3508,-351.52787 v 172.91319"
       id="path1155" />
    <path
       d="m 1597.3539,-351.52806 a 3.5433075,3.5433075 0 0 0 -3.5432,-3.54331"
       style="fill:none;stroke:#000000;stroke-width:0.9375;stroke-linecap:round;stroke-opacity:1"
       id="path1157" />
    <path
       style="fill:none;stroke:#000000;stroke-width:0.9375;stroke-linecap:round;stroke-opacity:1"
       d="M 25.897323,-355.07162 H 1593.807"
       id="path1159" />
    <path
       d="m 28.187628,-160.39257 a 3.5433075,3.5433075 0 0 0 -3.543307,3.5433"
       style="fill:none;stroke:#000000;stroke-width:0.9375;stroke-linecap:round;stroke-opacity:1"
       id="path1161" />
    <path
       style="fill:none;stroke:#000000;stroke-width:0.9375;stroke-linecap:round;stroke-opacity:1"
       d="M 24.644354,16.064005 V -156.84924"
       id="path1163" />
    <path
       d="m 24.644321,16.064118 a 3.5433075,3.5433075 0 0 0 3.543307,3.543309"
       style="fill:none;stroke:#000000;stroke-width:0.9375;stroke-linecap:round;stroke-opacity:1"
       id="path1165" />
    <path
       style="fill:none;stroke:#000000;stroke-width:0.9375;stroke-linecap:round;stroke-opacity:1"
       d="M 1596.1039,19.607755 H 28.187635"
       id="path1167" />
    <path
       d="m 1596.101,19.607427 a 3.5433075,3.5433075 0 0 0 3.5434,-3.543309"
       style="fill:none;stroke:#000000;stroke-width:0.9375;stroke-linecap:round;stroke-opacity:1"
       id="path1169" />
    <path
       style="fill:none;stroke:#000000;stroke-width:0.9375;stroke-linecap:round;stroke-opacity:1"
       d="M 1599.6476,-156.84924 V 16.064005"
       id="path1171" />
    <path
       d="m 1599.6444,-156.84927 a 3.5433075,3.5433075 0 0 0 -3.5434,-3.5433"
       style="fill:none;stroke:#000000;stroke-width:0.9375;stroke-linecap:round;stroke-opacity:1"
       id="path1173" />
    <path
       style="fill:none;stroke:#000000;stroke-width:0.9375;stroke-linecap:round;stroke-opacity:1"
       d="M 28.187635,-160.39253 H 1596.1039"
       id="path1175" />
    <path
       d="m 27.042459,37.721727 a 3.5433075,3.5433075 0 0 0 -3.543307,3.543309"
       style="fill:none;stroke:#000000;stroke-width:0.9375;stroke-linecap:round;stroke-opacity:1"
       id="path1177" />
    <path
       style="fill:none;stroke:#000000;stroke-width:0.9375;stroke-linecap:round;stroke-opacity:1"
       d="M 23.499197,214.17838 V 41.264942"
       id="path1179" />
    <path
       d="m 23.499152,214.17843 a 3.5433075,3.5433075 0 0 0 3.543307,3.5433"
       style="fill:none;stroke:#000000;stroke-width:0.9375;stroke-linecap:round;stroke-opacity:1"
       id="path1181" />
    <path
       style="fill:none;stroke:#000000;stroke-width:0.9375;stroke-linecap:round;stroke-opacity:1"
       d="M 1594.9601,217.72213 H 27.042479"
       id="path1183" />
    <path
       d="m 1594.9558,217.72173 a 3.5433075,3.5433075 0 0 0 3.5434,-3.5433"
       style="fill:none;stroke:#000000;stroke-width:0.9375;stroke-linecap:round;stroke-opacity:1"
       id="path1185" />
    <path
       style="fill:none;stroke:#000000;stroke-width:0.9375;stroke-linecap:round;stroke-opacity:1"
       d="M 1598.4945,41.264942 V 214.17838"
       id="path1187" />
    <path
       d="m 1598.4992,41.265036 a 3.5433075,3.5433075 0 0 0 -3.5434,-3.543309"
       style="fill:none;stroke:#000000;stroke-width:0.9375;stroke-linecap:round;stroke-opacity:1"
       id="path1189" />
    <path
       style="fill:none;stroke:#000000;stroke-width:0.9375;stroke-linecap:round;stroke-opacity:1"
       d="M 27.042479,37.72213 H 1594.9601"
       id="path1191" />
    <path
       d="m 29.332798,232.40053 a 3.5433075,3.5433075 0 0 0 -3.543308,3.5433"
       style="fill:none;stroke:#000000;stroke-width:0.9375;stroke-linecap:round;stroke-opacity:1"
       id="path1193" />
    <path
       style="fill:none;stroke:#000000;stroke-width:0.9375;stroke-linecap:round;stroke-opacity:1"
       d="M 25.78951,408.85682 V 235.94338"
       id="path1195" />
    <path
       d="m 25.78949,408.85722 a 3.5433075,3.5433075 0 0 0 3.543308,3.54331"
       style="fill:none;stroke:#000000;stroke-width:0.9375;stroke-linecap:round;stroke-opacity:1"
       id="path1197" />
    <path
       style="fill:none;stroke:#000000;stroke-width:0.9375;stroke-linecap:round;stroke-opacity:1"
       d="M 1597.2476,412.40057 H 29.332791"
       id="path1199" />
    <path
       d="m 1597.2462,412.40053 a 3.5433075,3.5433075 0 0 0 3.5433,-3.54331"
       style="fill:none;stroke:#000000;stroke-width:0.9375;stroke-linecap:round;stroke-opacity:1"
       id="path1201" />
    <path
       style="fill:none;stroke:#000000;stroke-width:0.9375;stroke-linecap:round;stroke-opacity:1"
       d="M 1600.7914,235.94338 V 408.85682"
       id="path1203" />
    <path
       d="m 1600.7895,235.94383 a 3.5433075,3.5433075 0 0 0 -3.5433,-3.5433"
       style="fill:none;stroke:#000000;stroke-width:0.9375;stroke-linecap:round;stroke-opacity:1"
       id="path1205" />
    <path
       style="fill:none;stroke:#000000;stroke-width:0.9375;stroke-linecap:round;stroke-opacity:1"
       d="M 29.332791,232.40057 H 1597.2476"
       id="path1207" />
    <path
       d="m 32.784058,433.89205 a 3.5433075,3.5433075 0 0 0 -3.543308,3.54331"
       style="fill:none;stroke:#000000;stroke-width:0.9375;stroke-linecap:round;stroke-opacity:1"
       id="path1209" />
    <path
       style="fill:none;stroke:#000000;stroke-width:0.9375;stroke-linecap:round;stroke-opacity:1"
       d="M 29.240729,610.34901 V 437.43557"
       id="path1211" />
    <path
       d="m 29.24075,610.34874 a 3.5433075,3.5433075 0 0 0 3.543308,3.54331"
       style="fill:none;stroke:#000000;stroke-width:0.9375;stroke-linecap:round;stroke-opacity:1"
       id="path1213" />
    <path
       style="fill:none;stroke:#000000;stroke-width:0.9375;stroke-linecap:round;stroke-opacity:1"
       d="M 1600.6976,613.89182 H 32.784104"
       id="path1215" />
    <path
       d="m 1600.6974,613.89205 a 3.5433075,3.5433075 0 0 0 3.5433,-3.54331"
       style="fill:none;stroke:#000000;stroke-width:0.9375;stroke-linecap:round;stroke-opacity:1"
       id="path1217" />
    <path
       style="fill:none;stroke:#000000;stroke-width:0.9375;stroke-linecap:round;stroke-opacity:1"
       d="M 1604.2414,437.43557 V 610.34901"
       id="path1219" />
    <path
       d="m 1604.2407,437.43536 a 3.5433075,3.5433075 0 0 0 -3.5433,-3.54331"
       style="fill:none;stroke:#000000;stroke-width:0.9375;stroke-linecap:round;stroke-opacity:1"
       id="path1221" />
    <path
       style="fill:none;stroke:#000000;stroke-width:0.9375;stroke-linecap:round;stroke-opacity:1"
       d="M 32.784104,433.89182 H 1600.6976"
       id="path1223" />
    <path
       d="m 35.074397,628.57085 a 3.5433075,3.5433075 0 0 0 -3.543308,3.5433"
       style="fill:none;stroke:#000000;stroke-width:0.9375;stroke-linecap:round;stroke-opacity:1"
       id="path1225" />
    <path
       style="fill:none;stroke:#000000;stroke-width:0.9375;stroke-linecap:round;stroke-opacity:1"
       d="M 31.531135,805.03213 V 632.114"
       id="path1227" />
    <path
       d="m 31.531089,805.02754 a 3.5433075,3.5433075 0 0 0 3.543308,3.54328"
       style="fill:none;stroke:#000000;stroke-width:0.9375;stroke-linecap:round;stroke-opacity:1"
       id="path1229" />
    <path
       style="fill:none;stroke:#000000;stroke-width:0.9375;stroke-linecap:round;stroke-opacity:1"
       d="M 1602.9851,808.5665 H 35.074416"
       id="path1231" />
    <path
       d="m 1602.9878,808.57082 a 3.5433075,3.5433075 0 0 0 3.5433,-3.54328"
       style="fill:none;stroke:#000000;stroke-width:0.9375;stroke-linecap:round;stroke-opacity:1"
       id="path1233" />
    <path
       style="fill:none;stroke:#000000;stroke-width:0.9375;stroke-linecap:round;stroke-opacity:1"
       d="M 1606.5289,632.114 V 805.03213"
       id="path1235" />
    <path
       d="m 1606.5311,632.11415 a 3.5433075,3.5433075 0 0 0 -3.5433,-3.5433"
       style="fill:none;stroke:#000000;stroke-width:0.9375;stroke-linecap:round;stroke-opacity:1"
       id="path1237" />
    <path
       style="fill:none;stroke:#000000;stroke-width:0.9375;stroke-linecap:round;stroke-opacity:1"
       d="M 35.074416,628.57119 H 1602.9851"
       id="path1239" />
  </g>
</svg>
