<?xml version="1.0" encoding="UTF-8" standalone="no"?>
<!-- Created with Inkscape (http://www.inkscape.org/) -->

<svg
   xmlns:dc="http://purl.org/dc/elements/1.1/"
   xmlns:cc="http://creativecommons.org/ns#"
   xmlns:rdf="http://www.w3.org/1999/02/22-rdf-syntax-ns#"
   xmlns:svg="http://www.w3.org/2000/svg"
   xmlns="http://www.w3.org/2000/svg"
   xmlns:sodipodi="http://sodipodi.sourceforge.net/DTD/sodipodi-0.dtd"
   xmlns:inkscape="http://www.inkscape.org/namespaces/inkscape"
   width="24in"
   height="18in"
   viewBox="0 0 2160 1620"
   id="svg6344"
   version="1.1"
   inkscape:version="0.91 r13725"
   sodipodi:docname="layout6.svg">
  <defs
     id="defs6346">
    <marker
       orient="auto"
       id="DistanceX"
       style="overflow:visible"
       refX="0.0"
       refY="0.0">
      <path
         id="path6359"
         d="M 3,-3 L -3,3 M 0,-5 L  0,5"
         style="stroke:#000000; stroke-width:0.5" />
    </marker>
    <pattern
       id="Hatch"
       x="0"
       y="0"
       patternUnits="userSpaceOnUse"
       width="8"
       height="8">
      <path
         id="path6362"
         d="M8 4 l-4,4"
         stroke-width="0.25"
         stroke="#000000"
         linecap="square" />
      <path
         id="path6364"
         d="M6 2 l-4,4"
         stroke-width="0.25"
         stroke="#000000"
         linecap="square" />
      <path
         id="path6366"
         d="M4 0 l-4,4"
         stroke-width="0.25"
         stroke="#000000"
         linecap="square" />
    </pattern>
    <symbol
       id="*Model_Space" />
    <symbol
       id="*Paper_Space" />
    <marker
       orient="auto"
       id="DistanceX-7"
       style="overflow:visible"
       refX="0.0"
       refY="0.0">
      <path
         id="path3380"
         d="M 3,-3 L -3,3 M 0,-5 L  0,5"
         style="stroke:#000000; stroke-width:0.5" />
    </marker>
    <pattern
       id="Hatch-4"
       x="0"
       y="0"
       patternUnits="userSpaceOnUse"
       width="8"
       height="8">
      <path
         id="path3383"
         d="M8 4 l-4,4"
         stroke-width="0.25"
         stroke="#000000"
         linecap="square" />
      <path
         id="path3385"
         d="M6 2 l-4,4"
         stroke-width="0.25"
         stroke="#000000"
         linecap="square" />
      <path
         id="path3387"
         d="M4 0 l-4,4"
         stroke-width="0.25"
         stroke="#000000"
         linecap="square" />
    </pattern>
    <symbol
       id="*Model_Space-1" />
    <symbol
       id="*Paper_Space-8" />
    <marker
       orient="auto"
       id="DistanceX-1"
       style="overflow:visible"
       refX="0.0"
       refY="0.0">
      <path
         id="path5193"
         d="M 3,-3 L -3,3 M 0,-5 L  0,5"
         style="stroke:#000000; stroke-width:0.5" />
    </marker>
    <pattern
       id="Hatch-9"
       x="0"
       y="0"
       patternUnits="userSpaceOnUse"
       width="8"
       height="8">
      <path
         id="path5196"
         d="M8 4 l-4,4"
         stroke-width="0.25"
         stroke="#000000"
         linecap="square" />
      <path
         id="path5198"
         d="M6 2 l-4,4"
         stroke-width="0.25"
         stroke="#000000"
         linecap="square" />
      <path
         id="path5200"
         d="M4 0 l-4,4"
         stroke-width="0.25"
         stroke="#000000"
         linecap="square" />
    </pattern>
    <symbol
       id="*Model_Space-2" />
    <symbol
       id="*Paper_Space-1" />
    <marker
       orient="auto"
       id="DistanceX-71"
       style="overflow:visible"
       refX="0.0"
       refY="0.0">
      <path
         id="path5922"
         d="M 3,-3 L -3,3 M 0,-5 L  0,5"
         style="stroke:#000000; stroke-width:0.5" />
    </marker>
    <pattern
       id="Hatch-2"
       x="0"
       y="0"
       patternUnits="userSpaceOnUse"
       width="8"
       height="8">
      <path
         id="path5925"
         d="M8 4 l-4,4"
         stroke-width="0.25"
         stroke="#000000"
         linecap="square" />
      <path
         id="path5927"
         d="M6 2 l-4,4"
         stroke-width="0.25"
         stroke="#000000"
         linecap="square" />
      <path
         id="path5929"
         d="M4 0 l-4,4"
         stroke-width="0.25"
         stroke="#000000"
         linecap="square" />
    </pattern>
    <symbol
       id="*Model_Space-0" />
    <symbol
       id="*Paper_Space-88" />
  </defs>
  <sodipodi:namedview
     id="base"
     pagecolor="#ffffff"
     bordercolor="#666666"
     borderopacity="1.0"
     inkscape:pageopacity="0.0"
     inkscape:pageshadow="2"
     inkscape:zoom="0.35"
     inkscape:cx="1470.9091"
     inkscape:cy="722.0305"
     inkscape:document-units="px"
     inkscape:current-layer="layer1"
     showgrid="false"
     units="in"
     inkscape:window-width="1600"
     inkscape:window-height="837"
     inkscape:window-x="-8"
     inkscape:window-y="-8"
     inkscape:window-maximized="1" />
  <metadata
     id="metadata6349">
    <rdf:RDF>
      <cc:Work
         rdf:about="">
        <dc:format>image/svg+xml</dc:format>
        <dc:type
           rdf:resource="http://purl.org/dc/dcmitype/StillImage" />
        <dc:title></dc:title>
      </cc:Work>
    </rdf:RDF>
  </metadata>
  <g
     inkscape:label="Layer 1"
     inkscape:groupmode="layer"
     id="layer1"
     transform="translate(0,567.63785)">
    <path
       id="path5947"
       d="m 615.03631,-541.99125 a 3.543307,3.543307 0 0 0 -3.54331,3.54331"
       style="fill:none;stroke:#000000;stroke-linecap:round;stroke-opacity:1;stroke-width:2;stroke-miterlimit:4;stroke-dasharray:none"
       inkscape:connector-curvature="0" />
    <path
       id="path5949"
       d="m 611.493,95.71545 0,-634.16339"
       style="fill:none;stroke:#000000;stroke-linecap:round;stroke-opacity:1;stroke-width:2;stroke-miterlimit:4;stroke-dasharray:none"
       inkscape:connector-curvature="0" />
    <path
       id="path5951"
       d="m 611.493,95.71545 a 3.543307,3.543307 0 0 0 3.54331,3.5433"
       style="fill:none;stroke:#000000;stroke-linecap:round;stroke-opacity:1;stroke-width:2;stroke-miterlimit:4;stroke-dasharray:none"
       inkscape:connector-curvature="0" />
    <path
       id="path5953"
       d="m 1147.9497,99.25875 -532.91339,0"
       style="fill:none;stroke:#000000;stroke-linecap:round;stroke-opacity:1;stroke-width:2;stroke-miterlimit:4;stroke-dasharray:none"
       inkscape:connector-curvature="0" />
    <path
       id="path5955"
       d="m 1147.9497,99.25875 a 3.543307,3.543307 0 0 0 3.5433,-3.5433"
       style="fill:none;stroke:#000000;stroke-linecap:round;stroke-opacity:1;stroke-width:2;stroke-miterlimit:4;stroke-dasharray:none"
       inkscape:connector-curvature="0" />
    <path
       id="path5957"
       d="m 1151.493,-538.44794 0,634.16339"
       style="fill:none;stroke:#000000;stroke-linecap:round;stroke-opacity:1;stroke-width:2;stroke-miterlimit:4;stroke-dasharray:none"
       inkscape:connector-curvature="0" />
    <path
       id="path5959"
       d="m 1151.493,-538.44794 a 3.543307,3.543307 0 0 0 -3.5433,-3.54331"
       style="fill:none;stroke:#000000;stroke-linecap:round;stroke-opacity:1;stroke-width:2;stroke-miterlimit:4;stroke-dasharray:none"
       inkscape:connector-curvature="0" />
    <path
       id="path5961"
       d="m 615.03631,-541.99125 532.91339,0"
       style="fill:none;stroke:#000000;stroke-linecap:round;stroke-opacity:1;stroke-width:2;stroke-miterlimit:4;stroke-dasharray:none"
       inkscape:connector-curvature="0" />
    <path
       id="path5963"
       d="m 690.693,54.25875 a 11.7,11.7 0 1 0 -23.4,0 11.7,11.7 0 1 0 23.4,0 z"
       style="fill:none;stroke:#000000;stroke-linecap:round;stroke-opacity:1;stroke-width:2;stroke-miterlimit:4;stroke-dasharray:none"
       inkscape:connector-curvature="0" />
    <path
       id="path5965"
       d="m 915.693,54.25875 a 11.7,11.7 0 1 0 -23.4,0 11.7,11.7 0 1 0 23.4,0 z"
       style="fill:none;stroke:#000000;stroke-linecap:round;stroke-opacity:1;stroke-width:2;stroke-miterlimit:4;stroke-dasharray:none"
       inkscape:connector-curvature="0" />
    <path
       id="path5967"
       d="m 1175.982,-541.21215 a 3.543307,3.543307 0 0 0 -3.5433,3.5433"
       style="fill:none;stroke:#000000;stroke-linecap:round;stroke-opacity:1;stroke-width:2;stroke-miterlimit:4;stroke-dasharray:none"
       inkscape:connector-curvature="0" />
    <path
       id="path5969"
       d="m 1172.4387,96.49454 0,-634.16339"
       style="fill:none;stroke:#000000;stroke-linecap:round;stroke-opacity:1;stroke-width:2;stroke-miterlimit:4;stroke-dasharray:none"
       inkscape:connector-curvature="0" />
    <path
       id="path5971"
       d="m 1172.4387,96.49454 a 3.543307,3.543307 0 0 0 3.5433,3.5433"
       style="fill:none;stroke:#000000;stroke-linecap:round;stroke-opacity:1;stroke-width:2;stroke-miterlimit:4;stroke-dasharray:none"
       inkscape:connector-curvature="0" />
    <path
       id="path5973"
       d="m 1708.8954,100.03784 -532.9134,0"
       style="fill:none;stroke:#000000;stroke-linecap:round;stroke-opacity:1;stroke-width:2;stroke-miterlimit:4;stroke-dasharray:none"
       inkscape:connector-curvature="0" />
    <path
       id="path5975"
       d="m 1708.8954,100.03784 a 3.543307,3.543307 0 0 0 3.5433,-3.5433"
       style="fill:none;stroke:#000000;stroke-linecap:round;stroke-opacity:1;stroke-width:2;stroke-miterlimit:4;stroke-dasharray:none"
       inkscape:connector-curvature="0" />
    <path
       id="path5977"
       d="m 1712.4387,-537.66885 0,634.16339"
       style="fill:none;stroke:#000000;stroke-linecap:round;stroke-opacity:1;stroke-width:2;stroke-miterlimit:4;stroke-dasharray:none"
       inkscape:connector-curvature="0" />
    <path
       id="path5979"
       d="m 1712.4387,-537.66885 a 3.543307,3.543307 0 0 0 -3.5433,-3.5433"
       style="fill:none;stroke:#000000;stroke-linecap:round;stroke-opacity:1;stroke-width:2;stroke-miterlimit:4;stroke-dasharray:none"
       inkscape:connector-curvature="0" />
    <path
       id="path5981"
       d="m 1175.982,-541.21215 532.9134,0"
       style="fill:none;stroke:#000000;stroke-linecap:round;stroke-opacity:1;stroke-width:2;stroke-miterlimit:4;stroke-dasharray:none"
       inkscape:connector-curvature="0" />
    <path
       id="path5983"
       d="m 1251.6387,55.03784 a 11.7,11.7 0 1 0 -23.4,0 11.7,11.7 0 0 0 23.4,0 z"
       style="fill:none;stroke:#000000;stroke-linecap:round;stroke-opacity:1;stroke-width:2;stroke-miterlimit:4;stroke-dasharray:none"
       inkscape:connector-curvature="0" />
    <path
       id="path5985"
       d="m 1476.6387,55.03784 a 11.7,11.7 0 1 0 -23.4,0 11.7,11.7 0 0 0 23.4,0 z"
       style="fill:none;stroke:#000000;stroke-linecap:round;stroke-opacity:1;stroke-width:2;stroke-miterlimit:4;stroke-dasharray:none"
       inkscape:connector-curvature="0" />
    <path
       id="path5987"
       d="m 617.63075,122.38613 a 3.543307,3.543307 0 0 0 -3.54331,3.5433"
       style="fill:none;stroke:#000000;stroke-linecap:round;stroke-opacity:1;stroke-width:2;stroke-miterlimit:4;stroke-dasharray:none"
       inkscape:connector-curvature="0" />
    <path
       id="path5989"
       d="m 614.08744,760.09282 0,-634.16339"
       style="fill:none;stroke:#000000;stroke-linecap:round;stroke-opacity:1;stroke-width:2;stroke-miterlimit:4;stroke-dasharray:none"
       inkscape:connector-curvature="0" />
    <path
       id="path5991"
       d="m 614.08744,760.09282 a 3.543307,3.543307 0 0 0 3.54331,3.54331"
       style="fill:none;stroke:#000000;stroke-linecap:round;stroke-opacity:1;stroke-width:2;stroke-miterlimit:4;stroke-dasharray:none"
       inkscape:connector-curvature="0" />
    <path
       id="path5993"
       d="m 1150.5441,763.63613 -532.91335,0"
       style="fill:none;stroke:#000000;stroke-linecap:round;stroke-opacity:1;stroke-width:2;stroke-miterlimit:4;stroke-dasharray:none"
       inkscape:connector-curvature="0" />
    <path
       id="path5995"
       d="m 1150.5441,763.63613 a 3.543307,3.543307 0 0 0 3.5433,-3.54331"
       style="fill:none;stroke:#000000;stroke-linecap:round;stroke-opacity:1;stroke-width:2;stroke-miterlimit:4;stroke-dasharray:none"
       inkscape:connector-curvature="0" />
    <path
       id="path5997"
       d="m 1154.0874,125.92943 0,634.16339"
       style="fill:none;stroke:#000000;stroke-linecap:round;stroke-opacity:1;stroke-width:2;stroke-miterlimit:4;stroke-dasharray:none"
       inkscape:connector-curvature="0" />
    <path
       id="path5999"
       d="m 1154.0874,125.92943 a 3.543307,3.543307 0 0 0 -3.5433,-3.5433"
       style="fill:none;stroke:#000000;stroke-linecap:round;stroke-opacity:1;stroke-width:2;stroke-miterlimit:4;stroke-dasharray:none"
       inkscape:connector-curvature="0" />
    <path
       id="path6001"
       d="m 617.63075,122.38613 532.91335,0"
       style="fill:none;stroke:#000000;stroke-linecap:round;stroke-opacity:1;stroke-width:2;stroke-miterlimit:4;stroke-dasharray:none"
       inkscape:connector-curvature="0" />
    <path
       id="path6003"
       d="m 693.28744,718.63613 a 11.7,11.7 0 1 0 -23.4,0 11.7,11.7 0 1 0 23.4,0 z"
       style="fill:none;stroke:#000000;stroke-linecap:round;stroke-opacity:1;stroke-width:2;stroke-miterlimit:4;stroke-dasharray:none"
       inkscape:connector-curvature="0" />
    <path
       id="path6005"
       d="m 918.28744,718.63613 a 11.7,11.7 0 1 0 -23.4,0 11.7,11.7 0 1 0 23.4,0 z"
       style="fill:none;stroke:#000000;stroke-linecap:round;stroke-opacity:1;stroke-width:2;stroke-miterlimit:4;stroke-dasharray:none"
       inkscape:connector-curvature="0" />
    <path
       id="path6007"
       d="m 1178.5765,123.16522 a 3.543307,3.543307 0 0 0 -3.5434,3.54331"
       style="fill:none;stroke:#000000;stroke-linecap:round;stroke-opacity:1;stroke-width:2;stroke-miterlimit:4;stroke-dasharray:none"
       inkscape:connector-curvature="0" />
    <path
       id="path6009"
       d="m 1175.0331,760.87191 0,-634.16338"
       style="fill:none;stroke:#000000;stroke-linecap:round;stroke-opacity:1;stroke-width:2;stroke-miterlimit:4;stroke-dasharray:none"
       inkscape:connector-curvature="0" />
    <path
       id="path6011"
       d="m 1175.0331,760.87191 a 3.543307,3.543307 0 0 0 3.5434,3.54331"
       style="fill:none;stroke:#000000;stroke-linecap:round;stroke-opacity:1;stroke-width:2;stroke-miterlimit:4;stroke-dasharray:none"
       inkscape:connector-curvature="0" />
    <path
       id="path6013"
       d="m 1711.4898,764.41522 -532.9133,0"
       style="fill:none;stroke:#000000;stroke-linecap:round;stroke-opacity:1;stroke-width:2;stroke-miterlimit:4;stroke-dasharray:none"
       inkscape:connector-curvature="0" />
    <path
       id="path6015"
       d="m 1711.4898,764.41522 a 3.543307,3.543307 0 0 0 3.5433,-3.54331"
       style="fill:none;stroke:#000000;stroke-linecap:round;stroke-opacity:1;stroke-width:2;stroke-miterlimit:4;stroke-dasharray:none"
       inkscape:connector-curvature="0" />
    <path
       id="path6017"
       d="m 1715.0331,126.70853 0,634.16338"
       style="fill:none;stroke:#000000;stroke-linecap:round;stroke-opacity:1;stroke-width:2;stroke-miterlimit:4;stroke-dasharray:none"
       inkscape:connector-curvature="0" />
    <path
       id="path6019"
       d="m 1715.0331,126.70853 a 3.543307,3.543307 0 0 0 -3.5433,-3.54331"
       style="fill:none;stroke:#000000;stroke-linecap:round;stroke-opacity:1;stroke-width:2;stroke-miterlimit:4;stroke-dasharray:none"
       inkscape:connector-curvature="0" />
    <path
       id="path6021"
       d="m 1178.5765,123.16522 532.9133,0"
       style="fill:none;stroke:#000000;stroke-linecap:round;stroke-opacity:1;stroke-width:2;stroke-miterlimit:4;stroke-dasharray:none"
       inkscape:connector-curvature="0" />
    <path
       id="path6023"
       d="m 1254.2331,719.41522 a 11.7,11.7 0 1 0 -23.4,0 11.7,11.7 0 0 0 23.4,0 z"
       style="fill:none;stroke:#000000;stroke-linecap:round;stroke-opacity:1;stroke-width:2;stroke-miterlimit:4;stroke-dasharray:none"
       inkscape:connector-curvature="0" />
    <path
       id="path6025"
       d="m 1479.2331,719.41522 a 11.7,11.7 0 1 0 -23.4,0 11.7,11.7 0 0 0 23.4,0 z"
       style="fill:none;stroke:#000000;stroke-linecap:round;stroke-opacity:1;stroke-width:2;stroke-miterlimit:4;stroke-dasharray:none"
       inkscape:connector-curvature="0" />
    <path
       id="path6027"
       d="m 1730.6494,-540.82721 a 3.543307,3.543307 0 0 0 -3.5434,3.54331"
       style="fill:none;stroke:#000000;stroke-linecap:round;stroke-opacity:1;stroke-width:2;stroke-miterlimit:4;stroke-dasharray:none"
       inkscape:connector-curvature="0" />
    <path
       id="path6029"
       d="m 1727.106,96.87949 0,-634.16339"
       style="fill:none;stroke:#000000;stroke-linecap:round;stroke-opacity:1;stroke-width:2;stroke-miterlimit:4;stroke-dasharray:none"
       inkscape:connector-curvature="0" />
    <path
       id="path6031"
       d="m 1727.106,96.87949 a 3.543307,3.543307 0 0 0 3.5434,3.5433"
       style="fill:none;stroke:#000000;stroke-linecap:round;stroke-opacity:1;stroke-width:2;stroke-miterlimit:4;stroke-dasharray:none"
       inkscape:connector-curvature="0" />
    <path
       id="path6033"
       d="m 1914.1927,100.42279 -183.5433,0"
       style="fill:none;stroke:#000000;stroke-linecap:round;stroke-opacity:1;stroke-width:2;stroke-miterlimit:4;stroke-dasharray:none"
       inkscape:connector-curvature="0" />
    <path
       id="path6035"
       d="m 1914.1927,100.42279 a 3.543307,3.543307 0 0 0 3.5433,-3.5433"
       style="fill:none;stroke:#000000;stroke-linecap:round;stroke-opacity:1;stroke-width:2;stroke-miterlimit:4;stroke-dasharray:none"
       inkscape:connector-curvature="0" />
    <path
       id="path6037"
       d="m 1917.736,-537.2839 0,634.16339"
       style="fill:none;stroke:#000000;stroke-linecap:round;stroke-opacity:1;stroke-width:2;stroke-miterlimit:4;stroke-dasharray:none"
       inkscape:connector-curvature="0" />
    <path
       id="path6039"
       d="m 1917.736,-537.2839 a 3.543307,3.543307 0 0 0 -3.5433,-3.54331"
       style="fill:none;stroke:#000000;stroke-linecap:round;stroke-opacity:1;stroke-width:2;stroke-miterlimit:4;stroke-dasharray:none"
       inkscape:connector-curvature="0" />
    <path
       id="path6041"
       d="m 1730.6494,-540.82721 183.5433,0"
       style="fill:none;stroke:#000000;stroke-linecap:round;stroke-opacity:1;stroke-width:2;stroke-miterlimit:4;stroke-dasharray:none"
       inkscape:connector-curvature="0" />
    <path
       id="path6043"
       d="m 1834.121,55.42279 a 11.7,11.7 0 1 0 -23.4,0 11.7,11.7 0 0 0 23.4,0 z"
       style="fill:none;stroke:#000000;stroke-linecap:round;stroke-opacity:1;stroke-width:2;stroke-miterlimit:4;stroke-dasharray:none"
       inkscape:connector-curvature="0" />
    <path
       id="path6045"
       d="m 1935.774,-541.88728 a 3.543307,3.543307 0 0 0 -3.5433,3.54331"
       style="fill:none;stroke:#000000;stroke-linecap:round;stroke-opacity:1;stroke-width:2;stroke-miterlimit:4;stroke-dasharray:none"
       inkscape:connector-curvature="0" />
    <path
       id="path6047"
       d="m 1932.2307,95.81941 0,-634.16338"
       style="fill:none;stroke:#000000;stroke-linecap:round;stroke-opacity:1;stroke-width:2;stroke-miterlimit:4;stroke-dasharray:none"
       inkscape:connector-curvature="0" />
    <path
       id="path6049"
       d="m 1932.2307,95.81941 a 3.543307,3.543307 0 0 0 3.5433,3.54331"
       style="fill:none;stroke:#000000;stroke-linecap:round;stroke-opacity:1;stroke-width:2;stroke-miterlimit:4;stroke-dasharray:none"
       inkscape:connector-curvature="0" />
    <path
       id="path6051"
       d="m 2119.3173,99.36272 -183.5433,0"
       style="fill:none;stroke:#000000;stroke-linecap:round;stroke-opacity:1;stroke-width:2;stroke-miterlimit:4;stroke-dasharray:none"
       inkscape:connector-curvature="0" />
    <path
       id="path6053"
       d="m 2119.3173,99.36272 a 3.543307,3.543307 0 0 0 3.5433,-3.54331"
       style="fill:none;stroke:#000000;stroke-linecap:round;stroke-opacity:1;stroke-width:2;stroke-miterlimit:4;stroke-dasharray:none"
       inkscape:connector-curvature="0" />
    <path
       id="path6055"
       d="m 2122.8606,-538.34397 0,634.16338"
       style="fill:none;stroke:#000000;stroke-linecap:round;stroke-opacity:1;stroke-width:2;stroke-miterlimit:4;stroke-dasharray:none"
       inkscape:connector-curvature="0" />
    <path
       id="path6057"
       d="m 2122.8606,-538.34397 a 3.543307,3.543307 0 0 0 -3.5433,-3.54331"
       style="fill:none;stroke:#000000;stroke-linecap:round;stroke-opacity:1;stroke-width:2;stroke-miterlimit:4;stroke-dasharray:none"
       inkscape:connector-curvature="0" />
    <path
       id="path6059"
       d="m 1935.774,-541.88728 183.5433,0"
       style="fill:none;stroke:#000000;stroke-linecap:round;stroke-opacity:1;stroke-width:2;stroke-miterlimit:4;stroke-dasharray:none"
       inkscape:connector-curvature="0" />
    <path
       id="path6061"
       d="m 2039.2457,54.36272 a 11.7,11.7 0 1 0 -23.4,0 11.7,11.7 0 0 0 23.4,0 z"
       style="fill:none;stroke:#000000;stroke-linecap:round;stroke-opacity:1;stroke-width:2;stroke-miterlimit:4;stroke-dasharray:none"
       inkscape:connector-curvature="0" />
    <path
       id="path6063"
       d="m 1731.5352,124.4287 a 3.543307,3.543307 0 0 0 -3.5433,3.54331"
       style="fill:none;stroke:#000000;stroke-linecap:round;stroke-opacity:1;stroke-width:2;stroke-miterlimit:4;stroke-dasharray:none"
       inkscape:connector-curvature="0" />
    <path
       id="path6065"
       d="m 1727.9919,762.13539 0,-634.16338"
       style="fill:none;stroke:#000000;stroke-linecap:round;stroke-opacity:1;stroke-width:2;stroke-miterlimit:4;stroke-dasharray:none"
       inkscape:connector-curvature="0" />
    <path
       id="path6067"
       d="m 1727.9919,762.13539 a 3.543307,3.543307 0 0 0 3.5433,3.54331"
       style="fill:none;stroke:#000000;stroke-linecap:round;stroke-opacity:1;stroke-width:2;stroke-miterlimit:4;stroke-dasharray:none"
       inkscape:connector-curvature="0" />
    <path
       id="path6069"
       d="m 1915.0785,765.6787 -183.5433,0"
       style="fill:none;stroke:#000000;stroke-linecap:round;stroke-opacity:1;stroke-width:2;stroke-miterlimit:4;stroke-dasharray:none"
       inkscape:connector-curvature="0" />
    <path
       id="path6071"
       d="m 1915.0785,765.6787 a 3.543307,3.543307 0 0 0 3.5433,-3.54331"
       style="fill:none;stroke:#000000;stroke-linecap:round;stroke-opacity:1;stroke-width:2;stroke-miterlimit:4;stroke-dasharray:none"
       inkscape:connector-curvature="0" />
    <path
       id="path6073"
       d="m 1918.6218,127.97201 0,634.16338"
       style="fill:none;stroke:#000000;stroke-linecap:round;stroke-opacity:1;stroke-width:2;stroke-miterlimit:4;stroke-dasharray:none"
       inkscape:connector-curvature="0" />
    <path
       id="path6075"
       d="m 1918.6218,127.97201 a 3.543307,3.543307 0 0 0 -3.5433,-3.54331"
       style="fill:none;stroke:#000000;stroke-linecap:round;stroke-opacity:1;stroke-width:2;stroke-miterlimit:4;stroke-dasharray:none"
       inkscape:connector-curvature="0" />
    <path
       id="path6077"
       d="m 1731.5352,124.4287 183.5433,0"
       style="fill:none;stroke:#000000;stroke-linecap:round;stroke-opacity:1;stroke-width:2;stroke-miterlimit:4;stroke-dasharray:none"
       inkscape:connector-curvature="0" />
    <path
       id="path6079"
       d="m 1835.0068,720.6787 a 11.7,11.7 0 1 0 -23.4,0 11.7,11.7 0 0 0 23.4,0 z"
       style="fill:none;stroke:#000000;stroke-linecap:round;stroke-opacity:1;stroke-width:2;stroke-miterlimit:4;stroke-dasharray:none"
       inkscape:connector-curvature="0" />
    <path
       id="path6081"
       d="m 1936.6599,123.36862 a 3.543307,3.543307 0 0 0 -3.5433,3.54331"
       style="fill:none;stroke:#000000;stroke-linecap:round;stroke-opacity:1;stroke-width:2;stroke-miterlimit:4;stroke-dasharray:none"
       inkscape:connector-curvature="0" />
    <path
       id="path6083"
       d="m 1933.1166,761.07532 0,-634.16339"
       style="fill:none;stroke:#000000;stroke-linecap:round;stroke-opacity:1;stroke-width:2;stroke-miterlimit:4;stroke-dasharray:none"
       inkscape:connector-curvature="0" />
    <path
       id="path6085"
       d="m 1933.1166,761.07532 a 3.543307,3.543307 0 0 0 3.5433,3.5433"
       style="fill:none;stroke:#000000;stroke-linecap:round;stroke-opacity:1;stroke-width:2;stroke-miterlimit:4;stroke-dasharray:none"
       inkscape:connector-curvature="0" />
    <path
       id="path6087"
       d="m 2120.2032,764.61862 -183.5433,0"
       style="fill:none;stroke:#000000;stroke-linecap:round;stroke-opacity:1;stroke-width:2;stroke-miterlimit:4;stroke-dasharray:none"
       inkscape:connector-curvature="0" />
    <path
       id="path6089"
       d="m 2120.2032,764.61862 a 3.543307,3.543307 0 0 0 3.5433,-3.5433"
       style="fill:none;stroke:#000000;stroke-linecap:round;stroke-opacity:1;stroke-width:2;stroke-miterlimit:4;stroke-dasharray:none"
       inkscape:connector-curvature="0" />
    <path
       id="path6091"
       d="m 2123.7465,126.91193 0,634.16339"
       style="fill:none;stroke:#000000;stroke-linecap:round;stroke-opacity:1;stroke-width:2;stroke-miterlimit:4;stroke-dasharray:none"
       inkscape:connector-curvature="0" />
    <path
       id="path6093"
       d="m 2123.7465,126.91193 a 3.543307,3.543307 0 0 0 -3.5433,-3.54331"
       style="fill:none;stroke:#000000;stroke-linecap:round;stroke-opacity:1;stroke-width:2;stroke-miterlimit:4;stroke-dasharray:none"
       inkscape:connector-curvature="0" />
    <path
       id="path6095"
       d="m 1936.6599,123.36862 183.5433,0"
       style="fill:none;stroke:#000000;stroke-linecap:round;stroke-opacity:1;stroke-width:2;stroke-miterlimit:4;stroke-dasharray:none"
       inkscape:connector-curvature="0" />
    <path
       id="path6097"
       d="m 2040.1315,719.61862 a 11.7,11.7 0 1 0 -23.4,0 11.7,11.7 0 0 0 23.4,0 z"
       style="fill:none;stroke:#000000;stroke-linecap:round;stroke-opacity:1;stroke-width:2;stroke-miterlimit:4;stroke-dasharray:none"
       inkscape:connector-curvature="0" />
    <path
       id="path6099"
       d="m 56.467116,-543.72272 a 3.543307,3.543307 0 0 0 -3.543307,3.54331"
       style="fill:none;stroke:#000000;stroke-linecap:round;stroke-opacity:1;stroke-width:2;stroke-miterlimit:4;stroke-dasharray:none"
       inkscape:connector-curvature="0" />
    <path
       id="path6101"
       d="m 52.923809,93.98398 0,-634.16339"
       style="fill:none;stroke:#000000;stroke-linecap:round;stroke-opacity:1;stroke-width:2;stroke-miterlimit:4;stroke-dasharray:none"
       inkscape:connector-curvature="0" />
    <path
       id="path6103"
       d="m 52.923809,93.98398 a 3.543307,3.543307 0 0 0 3.543307,3.5433"
       style="fill:none;stroke:#000000;stroke-linecap:round;stroke-opacity:1;stroke-width:2;stroke-miterlimit:4;stroke-dasharray:none"
       inkscape:connector-curvature="0" />
    <path
       id="path6105"
       d="m 589.3805,97.52728 -532.913384,0"
       style="fill:none;stroke:#000000;stroke-linecap:round;stroke-opacity:1;stroke-width:2;stroke-miterlimit:4;stroke-dasharray:none"
       inkscape:connector-curvature="0" />
    <path
       id="path6107"
       d="m 589.3805,97.52728 a 3.543307,3.543307 0 0 0 3.54331,-3.5433"
       style="fill:none;stroke:#000000;stroke-linecap:round;stroke-opacity:1;stroke-width:2;stroke-miterlimit:4;stroke-dasharray:none"
       inkscape:connector-curvature="0" />
    <path
       id="path6109"
       d="m 592.92381,-540.17941 0,634.16339"
       style="fill:none;stroke:#000000;stroke-linecap:round;stroke-opacity:1;stroke-width:2;stroke-miterlimit:4;stroke-dasharray:none"
       inkscape:connector-curvature="0" />
    <path
       id="path6111"
       d="m 592.92381,-540.17941 a 3.543307,3.543307 0 0 0 -3.54331,-3.54331"
       style="fill:none;stroke:#000000;stroke-linecap:round;stroke-opacity:1;stroke-width:2;stroke-miterlimit:4;stroke-dasharray:none"
       inkscape:connector-curvature="0" />
    <path
       id="path6113"
       d="m 56.467116,-543.72272 532.913384,0"
       style="fill:none;stroke:#000000;stroke-linecap:round;stroke-opacity:1;stroke-width:2;stroke-miterlimit:4;stroke-dasharray:none"
       inkscape:connector-curvature="0" />
    <path
       id="path6115"
       d="m 132.1238,52.52728 a 11.7,11.7 0 1 0 -23.4,0 11.7,11.7 0 0 0 23.4,0 z"
       style="fill:none;stroke:#000000;stroke-linecap:round;stroke-opacity:1;stroke-width:2;stroke-miterlimit:4;stroke-dasharray:none"
       inkscape:connector-curvature="0" />
    <path
       id="path6117"
       d="m 357.1238,52.52728 a 11.7,11.7 0 1 0 -23.4,0 11.7,11.7 0 1 0 23.4,0 z"
       style="fill:none;stroke:#000000;stroke-linecap:round;stroke-opacity:1;stroke-width:2;stroke-miterlimit:4;stroke-dasharray:none"
       inkscape:connector-curvature="0" />
    <path
       id="path6119"
       d="m 59.061555,120.65466 a 3.543307,3.543307 0 0 0 -3.543307,3.5433"
       style="fill:none;stroke:#000000;stroke-linecap:round;stroke-opacity:1;stroke-width:2;stroke-miterlimit:4;stroke-dasharray:none"
       inkscape:connector-curvature="0" />
    <path
       id="path6121"
       d="m 55.518248,758.36135 0,-634.16339"
       style="fill:none;stroke:#000000;stroke-linecap:round;stroke-opacity:1;stroke-width:2;stroke-miterlimit:4;stroke-dasharray:none"
       inkscape:connector-curvature="0" />
    <path
       id="path6123"
       d="m 55.518248,758.36135 a 3.543307,3.543307 0 0 0 3.543307,3.54331"
       style="fill:none;stroke:#000000;stroke-linecap:round;stroke-opacity:1;stroke-width:2;stroke-miterlimit:4;stroke-dasharray:none"
       inkscape:connector-curvature="0" />
    <path
       id="path6125"
       d="m 591.97494,761.90466 -532.913385,0"
       style="fill:none;stroke:#000000;stroke-linecap:round;stroke-opacity:1;stroke-width:2;stroke-miterlimit:4;stroke-dasharray:none"
       inkscape:connector-curvature="0" />
    <path
       id="path6127"
       d="m 591.97494,761.90466 a 3.543307,3.543307 0 0 0 3.5433,-3.54331"
       style="fill:none;stroke:#000000;stroke-linecap:round;stroke-opacity:1;stroke-width:2;stroke-miterlimit:4;stroke-dasharray:none"
       inkscape:connector-curvature="0" />
    <path
       id="path6129"
       d="m 595.51824,124.19796 0,634.16339"
       style="fill:none;stroke:#000000;stroke-linecap:round;stroke-opacity:1;stroke-width:2;stroke-miterlimit:4;stroke-dasharray:none"
       inkscape:connector-curvature="0" />
    <path
       id="path6131"
       d="m 595.51824,124.19796 a 3.543307,3.543307 0 0 0 -3.5433,-3.5433"
       style="fill:none;stroke:#000000;stroke-linecap:round;stroke-opacity:1;stroke-width:2;stroke-miterlimit:4;stroke-dasharray:none"
       inkscape:connector-curvature="0" />
    <path
       id="path6133"
       d="m 59.061555,120.65466 532.913385,0"
       style="fill:none;stroke:#000000;stroke-linecap:round;stroke-opacity:1;stroke-width:2;stroke-miterlimit:4;stroke-dasharray:none"
       inkscape:connector-curvature="0" />
    <path
       id="path6135"
       d="m 134.71824,716.90466 a 11.7,11.7 0 1 0 -23.4,0 11.7,11.7 0 0 0 23.4,0 z"
       style="fill:none;stroke:#000000;stroke-linecap:round;stroke-opacity:1;stroke-width:2;stroke-miterlimit:4;stroke-dasharray:none"
       inkscape:connector-curvature="0" />
    <path
       id="path6137"
       d="m 359.71824,716.90466 a 11.7,11.7 0 1 0 -23.4,0 11.7,11.7 0 1 0 23.4,0 z"
       style="fill:none;stroke:#000000;stroke-linecap:round;stroke-opacity:1;stroke-width:2;stroke-miterlimit:4;stroke-dasharray:none"
       inkscape:connector-curvature="0" />
  </g>
</svg>
