<?xml version="1.0" encoding="UTF-8" standalone="no"?>
<!-- Created with Inkscape (http://www.inkscape.org/) -->

<svg
   xmlns:dc="http://purl.org/dc/elements/1.1/"
   xmlns:cc="http://creativecommons.org/ns#"
   xmlns:rdf="http://www.w3.org/1999/02/22-rdf-syntax-ns#"
   xmlns:svg="http://www.w3.org/2000/svg"
   xmlns="http://www.w3.org/2000/svg"
   xmlns:sodipodi="http://sodipodi.sourceforge.net/DTD/sodipodi-0.dtd"
   xmlns:inkscape="http://www.inkscape.org/namespaces/inkscape"
   width="24in"
   height="18in"
   viewBox="0 0 2160 1620"
   id="svg5975"
   version="1.1"
   inkscape:version="0.91 r13725"
   sodipodi:docname="layout3.svg">
  <defs
     id="defs5977">
    <marker
       orient="auto"
       id="DistanceX"
       style="overflow:visible"
       refX="0.0"
       refY="0.0">
      <path
         id="path5990"
         d="M 3,-3 L -3,3 M 0,-5 L  0,5"
         style="stroke:#000000; stroke-width:0.5" />
    </marker>
    <pattern
       id="Hatch"
       x="0"
       y="0"
       patternUnits="userSpaceOnUse"
       width="8"
       height="8">
      <path
         id="path5993"
         d="M8 4 l-4,4"
         stroke-width="0.25"
         stroke="#000000"
         linecap="square" />
      <path
         id="path5995"
         d="M6 2 l-4,4"
         stroke-width="0.25"
         stroke="#000000"
         linecap="square" />
      <path
         id="path5997"
         d="M4 0 l-4,4"
         stroke-width="0.25"
         stroke="#000000"
         linecap="square" />
    </pattern>
    <symbol
       id="*Model_Space" />
    <symbol
       id="*Paper_Space" />
    <marker
       orient="auto"
       id="DistanceX-5"
       style="overflow:visible"
       refX="0.0"
       refY="0.0">
      <path
         id="path3416"
         d="M 3,-3 L -3,3 M 0,-5 L  0,5"
         style="stroke:#000000; stroke-width:0.5" />
    </marker>
    <pattern
       id="Hatch-1"
       x="0"
       y="0"
       patternUnits="userSpaceOnUse"
       width="8"
       height="8">
      <path
         id="path3419"
         d="M8 4 l-4,4"
         stroke-width="0.25"
         stroke="#000000"
         linecap="square" />
      <path
         id="path3421"
         d="M6 2 l-4,4"
         stroke-width="0.25"
         stroke="#000000"
         linecap="square" />
      <path
         id="path3423"
         d="M4 0 l-4,4"
         stroke-width="0.25"
         stroke="#000000"
         linecap="square" />
    </pattern>
    <symbol
       id="*Model_Space-9" />
    <symbol
       id="*Paper_Space-6" />
    <symbol
       id="sleep_box_door">
      <path
         id="path3428"
         d="M 130.039370,1050.590551 799.015748,1050.590551"
         style="stroke:#000000;fill:none;stroke-linecap: round" />
      <path
         id="path3430"
         d="M 799.015748,1050.590551 A 7.086614,7.086614 -0.000000 0 0 806.102362,1043.503937"
         style="stroke:#000000;fill:none;stroke-linecap: round" />
      <path
         id="path3432"
         d="M 806.102362,1043.503937 806.102362,-22.322835"
         style="stroke:#000000;fill:none;stroke-linecap: round" />
      <path
         id="path3434"
         d="M 806.102362,-22.322835 A 7.086614,7.086614 -0.000000 0 0 799.015748,-29.409449"
         style="stroke:#000000;fill:none;stroke-linecap: round" />
      <path
         id="path3436"
         d="M 799.015748,-29.409449 541.062992,-29.409449"
         style="stroke:#000000;fill:none;stroke-linecap: round" />
      <path
         id="path3438"
         d="M 541.062992,-29.409449 A 7.086614,7.086614 -0.000000 0 0 533.976378,-22.322835"
         style="stroke:#000000;fill:none;stroke-linecap: round" />
      <path
         id="path3440"
         d="M 533.976378,-22.322835 533.976378,847.652953"
         style="stroke:#000000;fill:none;stroke-linecap: round" />
      <path
         id="path3442"
         d="M 528.723914,854.498096 A 7.086614,7.086614 -0.000000 0 0 533.976378,847.652953"
         style="stroke:#000000;fill:none;stroke-linecap: round" />
      <path
         id="path3444"
         d="M 3.668315,995.186339 528.725197,854.498268"
         style="stroke:#000000;fill:none;stroke-linecap: round" />
      <path
         id="path3446"
         d="M 0.000000,995.669291 A 14.173228,14.173228 -0.000000 0 0 3.668301,995.186350"
         style="stroke:#000000;fill:none;stroke-linecap: round" />
      <path
         id="path3448"
         d="M 0.000000,995.669291 A 56.692913,56.692913 -0.000000 1 0 55.818046,1062.283505"
         style="stroke:#000000;fill:none;stroke-linecap: round" />
      <path
         id="path3450"
         d="M 69.772677,1050.590551 A 14.173228,14.173228 -0.000000 0 0 55.818179,1062.283381"
         style="stroke:#000000;fill:none;stroke-linecap: round" />
      <path
         id="path3452"
         d="M 130.039370,1050.590551 69.772677,1050.590551"
         style="stroke:#000000;fill:none;stroke-linecap: round" />
      <path
         id="path3454"
         d="M -20.728346,1024.015748 A 7.618110,7.618110 -0.000000 1 0 -35.964567,1024.015748 7.618110,7.618110 -0.000000 1 0 -20.728346,1024.015748 z"
         style="stroke:#000000;fill:none;stroke-linecap: round" />
      <path
         id="path3456"
         d="M 35.964567,1024.015748 A 7.618110,7.618110 -0.000000 1 0 20.728346,1024.015748 7.618110,7.618110 -0.000000 1 0 35.964567,1024.015748 z"
         style="stroke:#000000;fill:none;stroke-linecap: round" />
      <path
         id="path3458"
         d="M -20.728346,1080.708661 A 7.618110,7.618110 -0.000000 1 0 -35.964567,1080.708661 7.618110,7.618110 -0.000000 1 0 -20.728346,1080.708661 z"
         style="stroke:#000000;fill:none;stroke-linecap: round" />
      <path
         id="path3460"
         d="M 35.964567,1080.708661 A 7.618110,7.618110 -0.000000 1 0 20.728346,1080.708661 7.618110,7.618110 -0.000000 1 0 35.964567,1080.708661 z"
         style="stroke:#000000;fill:none;stroke-linecap: round" />
      <path
         id="path3462"
         d="M 17.716535,1052.362205 A 17.716535,17.716535 -0.000000 1 0 -17.716535,1052.362205 17.716535,17.716535 -0.000000 1 0 17.716535,1052.362205 z"
         style="stroke:#000000;fill:none;stroke-linecap: round" />
    </symbol>
  </defs>
  <sodipodi:namedview
     id="base"
     pagecolor="#ffffff"
     bordercolor="#666666"
     borderopacity="1.0"
     inkscape:pageopacity="0.0"
     inkscape:pageshadow="2"
     inkscape:zoom="0.35"
     inkscape:cx="165.04173"
     inkscape:cy="770"
     inkscape:document-units="px"
     inkscape:current-layer="layer1"
     showgrid="false"
     units="in"
     inkscape:window-width="1600"
     inkscape:window-height="837"
     inkscape:window-x="-8"
     inkscape:window-y="-8"
     inkscape:window-maximized="1" />
  <metadata
     id="metadata5980">
    <rdf:RDF>
      <cc:Work
         rdf:about="">
        <dc:format>image/svg+xml</dc:format>
        <dc:type
           rdf:resource="http://purl.org/dc/dcmitype/StillImage" />
        <dc:title />
      </cc:Work>
    </rdf:RDF>
  </metadata>
  <g
     inkscape:label="Layer 1"
     inkscape:groupmode="layer"
     id="layer1"
     transform="translate(0,567.63785)">
    <path
       id="path3478"
       d="m 51.278066,-512.87127 a 3.543307,3.543307 0 0 0 -3.543308,3.54331"
       style="fill:none;stroke:#000000;stroke-linecap:round;stroke-opacity:1;stroke-width:2;stroke-miterlimit:4;stroke-dasharray:none"
       inkscape:connector-curvature="0" />
    <path
       id="path3480"
       d="m 47.734758,-291.41457 0,-217.91339"
       style="fill:none;stroke:#000000;stroke-linecap:round;stroke-opacity:1;stroke-width:2;stroke-miterlimit:4;stroke-dasharray:none"
       inkscape:connector-curvature="0" />
    <path
       id="path3482"
       d="m 47.734758,-291.41457 a 3.543307,3.543307 0 0 0 3.543308,3.5433"
       style="fill:none;stroke:#000000;stroke-linecap:round;stroke-opacity:1;stroke-width:2;stroke-miterlimit:4;stroke-dasharray:none"
       inkscape:connector-curvature="0" />
    <path
       id="path3484"
       d="m 1652.9379,-287.87127 -1601.663378,0"
       style="fill:none;stroke:#000000;stroke-linecap:round;stroke-opacity:1;stroke-width:2;stroke-miterlimit:4;stroke-dasharray:none"
       inkscape:connector-curvature="0" />
    <path
       id="path3486"
       d="m 1652.9379,-287.87127 a 3.543307,3.543307 0 0 0 3.5433,-3.5433"
       style="fill:none;stroke:#000000;stroke-linecap:round;stroke-opacity:1;stroke-width:2;stroke-miterlimit:4;stroke-dasharray:none"
       inkscape:connector-curvature="0" />
    <path
       id="path3488"
       d="m 1656.4812,-509.32796 0,217.91339"
       style="fill:none;stroke:#000000;stroke-linecap:round;stroke-opacity:1;stroke-width:2;stroke-miterlimit:4;stroke-dasharray:none"
       inkscape:connector-curvature="0" />
    <path
       id="path3490"
       d="m 1656.4812,-509.32796 a 3.543307,3.543307 0 0 0 -3.5433,-3.54331"
       style="fill:none;stroke:#000000;stroke-linecap:round;stroke-opacity:1;stroke-width:2;stroke-miterlimit:4;stroke-dasharray:none"
       inkscape:connector-curvature="0" />
    <path
       id="path3492"
       d="m 51.278066,-512.87127 1601.659834,0"
       style="fill:none;stroke:#000000;stroke-linecap:round;stroke-opacity:1;stroke-width:2;stroke-miterlimit:4;stroke-dasharray:none"
       inkscape:connector-curvature="0" />
    <path
       id="path3494"
       d="m 1109.4329,-332.87127 a 11.7,11.7 0 1 0 -23.4,0 11.7,11.7 0 0 0 23.4,0 z"
       style="fill:none;stroke:#000000;stroke-linecap:round;stroke-opacity:1;stroke-width:2;stroke-miterlimit:4;stroke-dasharray:none"
       inkscape:connector-curvature="0" />
    <path
       id="path3496"
       d="m 618.18311,-332.87127 a 11.7,11.7 0 1 0 -23.4,0 11.7,11.7 0 1 0 23.4,0 z"
       style="fill:none;stroke:#000000;stroke-linecap:round;stroke-opacity:1;stroke-width:2;stroke-miterlimit:4;stroke-dasharray:none"
       inkscape:connector-curvature="0" />
    <path
       id="path3498"
       d="m 1600.6812,-332.87127 a 11.7,11.7 0 1 0 -23.4,0 11.7,11.7 0 0 0 23.4,0 z"
       style="fill:none;stroke:#000000;stroke-linecap:round;stroke-opacity:1;stroke-width:2;stroke-miterlimit:4;stroke-dasharray:none"
       inkscape:connector-curvature="0" />
    <path
       id="path3500"
       d="m 126.93476,-332.87127 a 11.7,11.7 0 1 0 -23.4,0 11.7,11.7 0 0 0 23.4,0 z"
       style="fill:none;stroke:#000000;stroke-linecap:round;stroke-opacity:1;stroke-width:2;stroke-miterlimit:4;stroke-dasharray:none"
       inkscape:connector-curvature="0" />
    <path
       id="path3502"
       d="m 51.323029,-277.82136 a 3.543307,3.543307 0 0 0 -3.543307,3.5433"
       style="fill:none;stroke:#000000;stroke-linecap:round;stroke-opacity:1;stroke-width:2;stroke-miterlimit:4;stroke-dasharray:none"
       inkscape:connector-curvature="0" />
    <path
       id="path3504"
       d="m 47.779722,-56.36467 0,-217.91339"
       style="fill:none;stroke:#000000;stroke-linecap:round;stroke-opacity:1;stroke-width:2;stroke-miterlimit:4;stroke-dasharray:none"
       inkscape:connector-curvature="0" />
    <path
       id="path3506"
       d="m 47.779722,-56.36467 a 3.543307,3.543307 0 0 0 3.543307,3.54331"
       style="fill:none;stroke:#000000;stroke-linecap:round;stroke-opacity:1;stroke-width:2;stroke-miterlimit:4;stroke-dasharray:none"
       inkscape:connector-curvature="0" />
    <path
       id="path3508"
       d="m 1551.7364,-52.82136 -1500.413371,0"
       style="fill:none;stroke:#000000;stroke-linecap:round;stroke-opacity:1;stroke-width:2;stroke-miterlimit:4;stroke-dasharray:none"
       inkscape:connector-curvature="0" />
    <path
       id="path3510"
       d="m 1551.7364,-52.82136 a 3.543307,3.543307 0 0 0 3.5433,-3.54331"
       style="fill:none;stroke:#000000;stroke-linecap:round;stroke-opacity:1;stroke-width:2;stroke-miterlimit:4;stroke-dasharray:none"
       inkscape:connector-curvature="0" />
    <path
       id="path3512"
       d="m 1555.2797,-274.27806 0,217.91339"
       style="fill:none;stroke:#000000;stroke-linecap:round;stroke-opacity:1;stroke-width:2;stroke-miterlimit:4;stroke-dasharray:none"
       inkscape:connector-curvature="0" />
    <path
       id="path3514"
       d="m 1555.2797,-274.27806 a 3.543307,3.543307 0 0 0 -3.5433,-3.5433"
       style="fill:none;stroke:#000000;stroke-linecap:round;stroke-opacity:1;stroke-width:2;stroke-miterlimit:4;stroke-dasharray:none"
       inkscape:connector-curvature="0" />
    <path
       id="path3516"
       d="m 51.323029,-277.82136 1500.413371,0"
       style="fill:none;stroke:#000000;stroke-linecap:round;stroke-opacity:1;stroke-width:2;stroke-miterlimit:4;stroke-dasharray:none"
       inkscape:connector-curvature="0" />
    <path
       id="path3518"
       d="m 1041.9796,-97.821365 a 11.7,11.7 0 1 0 -23.4,0 11.7,11.7 0 1 0 23.4,0 z"
       style="fill:none;stroke:#000000;stroke-linecap:round;stroke-opacity:1;stroke-width:2;stroke-miterlimit:4;stroke-dasharray:none"
       inkscape:connector-curvature="0" />
    <path
       id="path3520"
       d="m 584.47984,-97.821365 a 11.7,11.7 0 1 0 -23.4,0 11.7,11.7 0 1 0 23.4,0 z"
       style="fill:none;stroke:#000000;stroke-linecap:round;stroke-opacity:1;stroke-width:2;stroke-miterlimit:4;stroke-dasharray:none"
       inkscape:connector-curvature="0" />
    <path
       id="path3522"
       d="m 1499.4797,-97.821365 a 11.7,11.7 0 1 0 -23.4,0 11.7,11.7 0 0 0 23.4,0 z"
       style="fill:none;stroke:#000000;stroke-linecap:round;stroke-opacity:1;stroke-width:2;stroke-miterlimit:4;stroke-dasharray:none"
       inkscape:connector-curvature="0" />
    <path
       id="path3524"
       d="m 126.97973,-97.821365 a 11.7,11.7 0 1 0 -23.4,0 11.7,11.7 0 0 0 23.4,0 z"
       style="fill:none;stroke:#000000;stroke-linecap:round;stroke-opacity:1;stroke-width:2;stroke-miterlimit:4;stroke-dasharray:none"
       inkscape:connector-curvature="0" />
    <path
       id="path3526"
       d="m 52.044229,-42.77146 a 3.543307,3.543307 0 0 0 -3.543307,3.5433"
       style="fill:none;stroke:#000000;stroke-linecap:round;stroke-opacity:1;stroke-width:2;stroke-miterlimit:4;stroke-dasharray:none"
       inkscape:connector-curvature="0" />
    <path
       id="path3528"
       d="m 48.500922,178.68523 0,-217.91339"
       style="fill:none;stroke:#000000;stroke-linecap:round;stroke-opacity:1;stroke-width:2;stroke-miterlimit:4;stroke-dasharray:none"
       inkscape:connector-curvature="0" />
    <path
       id="path3530"
       d="m 48.500922,178.68523 a 3.543307,3.543307 0 0 0 3.543307,3.54331"
       style="fill:none;stroke:#000000;stroke-linecap:round;stroke-opacity:1;stroke-width:2;stroke-miterlimit:4;stroke-dasharray:none"
       inkscape:connector-curvature="0" />
    <path
       id="path3532"
       d="m 1552.4576,182.22854 -1500.413371,0"
       style="fill:none;stroke:#000000;stroke-linecap:round;stroke-opacity:1;stroke-width:2;stroke-miterlimit:4;stroke-dasharray:none"
       inkscape:connector-curvature="0" />
    <path
       id="path3534"
       d="m 1552.4576,182.22854 a 3.543307,3.543307 0 0 0 3.5433,-3.54331"
       style="fill:none;stroke:#000000;stroke-linecap:round;stroke-opacity:1;stroke-width:2;stroke-miterlimit:4;stroke-dasharray:none"
       inkscape:connector-curvature="0" />
    <path
       id="path3536"
       d="m 1556.0009,-39.22816 0,217.91339"
       style="fill:none;stroke:#000000;stroke-linecap:round;stroke-opacity:1;stroke-width:2;stroke-miterlimit:4;stroke-dasharray:none"
       inkscape:connector-curvature="0" />
    <path
       id="path3538"
       d="m 1556.0009,-39.22816 a 3.543307,3.543307 0 0 0 -3.5433,-3.5433"
       style="fill:none;stroke:#000000;stroke-linecap:round;stroke-opacity:1;stroke-width:2;stroke-miterlimit:4;stroke-dasharray:none"
       inkscape:connector-curvature="0" />
    <path
       id="path3540"
       d="m 52.044229,-42.77146 1500.413371,0"
       style="fill:none;stroke:#000000;stroke-linecap:round;stroke-opacity:1;stroke-width:2;stroke-miterlimit:4;stroke-dasharray:none"
       inkscape:connector-curvature="0" />
    <path
       id="path3542"
       d="m 1042.7008,137.22854 a 11.7,11.7 0 1 0 -23.4,0 11.7,11.7 0 1 0 23.4,0 z"
       style="fill:none;stroke:#000000;stroke-linecap:round;stroke-opacity:1;stroke-width:2;stroke-miterlimit:4;stroke-dasharray:none"
       inkscape:connector-curvature="0" />
    <path
       id="path3544"
       d="m 585.20104,137.22854 a 11.7,11.7 0 1 0 -23.4,0 11.7,11.7 0 1 0 23.4,0 z"
       style="fill:none;stroke:#000000;stroke-linecap:round;stroke-opacity:1;stroke-width:2;stroke-miterlimit:4;stroke-dasharray:none"
       inkscape:connector-curvature="0" />
    <path
       id="path3546"
       d="m 1500.2009,137.22854 a 11.7,11.7 0 1 0 -23.4,0 11.7,11.7 0 0 0 23.4,0 z"
       style="fill:none;stroke:#000000;stroke-linecap:round;stroke-opacity:1;stroke-width:2;stroke-miterlimit:4;stroke-dasharray:none"
       inkscape:connector-curvature="0" />
    <path
       id="path3548"
       d="m 127.70093,137.22854 a 11.7,11.7 0 1 0 -23.4,0 11.7,11.7 0 0 0 23.4,0 z"
       style="fill:none;stroke:#000000;stroke-linecap:round;stroke-opacity:1;stroke-width:2;stroke-miterlimit:4;stroke-dasharray:none"
       inkscape:connector-curvature="0" />
    <path
       id="path3550"
       d="m 53.249535,198.63085 a 3.543307,3.543307 0 0 0 -3.543307,3.5433"
       style="fill:none;stroke:#000000;stroke-linecap:round;stroke-opacity:1;stroke-width:2;stroke-miterlimit:4;stroke-dasharray:none"
       inkscape:connector-curvature="0" />
    <path
       id="path3552"
       d="m 49.706228,420.08754 0,-217.91339"
       style="fill:none;stroke:#000000;stroke-linecap:round;stroke-opacity:1;stroke-width:2;stroke-miterlimit:4;stroke-dasharray:none"
       inkscape:connector-curvature="0" />
    <path
       id="path3554"
       d="m 49.706228,420.08754 a 3.543307,3.543307 0 0 0 3.543307,3.54331"
       style="fill:none;stroke:#000000;stroke-linecap:round;stroke-opacity:1;stroke-width:2;stroke-miterlimit:4;stroke-dasharray:none"
       inkscape:connector-curvature="0" />
    <path
       id="path3556"
       d="m 1553.6629,423.63085 -1500.413365,0"
       style="fill:none;stroke:#000000;stroke-linecap:round;stroke-opacity:1;stroke-width:2;stroke-miterlimit:4;stroke-dasharray:none"
       inkscape:connector-curvature="0" />
    <path
       id="path3558"
       d="m 1553.6629,423.63085 a 3.543307,3.543307 0 0 0 3.5433,-3.54331"
       style="fill:none;stroke:#000000;stroke-linecap:round;stroke-opacity:1;stroke-width:2;stroke-miterlimit:4;stroke-dasharray:none"
       inkscape:connector-curvature="0" />
    <path
       id="path3560"
       d="m 1557.2062,202.17415 0,217.91339"
       style="fill:none;stroke:#000000;stroke-linecap:round;stroke-opacity:1;stroke-width:2;stroke-miterlimit:4;stroke-dasharray:none"
       inkscape:connector-curvature="0" />
    <path
       id="path3562"
       d="m 1557.2062,202.17415 a 3.543307,3.543307 0 0 0 -3.5433,-3.5433"
       style="fill:none;stroke:#000000;stroke-linecap:round;stroke-opacity:1;stroke-width:2;stroke-miterlimit:4;stroke-dasharray:none"
       inkscape:connector-curvature="0" />
    <path
       id="path3564"
       d="m 53.249535,198.63085 1500.413365,0"
       style="fill:none;stroke:#000000;stroke-linecap:round;stroke-opacity:1;stroke-width:2;stroke-miterlimit:4;stroke-dasharray:none"
       inkscape:connector-curvature="0" />
    <path
       id="path3566"
       d="m 1043.9061,378.63085 a 11.7,11.7 0 1 0 -23.4,0 11.7,11.7 0 1 0 23.4,0 z"
       style="fill:none;stroke:#000000;stroke-linecap:round;stroke-opacity:1;stroke-width:2;stroke-miterlimit:4;stroke-dasharray:none"
       inkscape:connector-curvature="0" />
    <path
       id="path3568"
       d="m 586.40635,378.63085 a 11.7,11.7 0 1 0 -23.4,0 11.7,11.7 0 1 0 23.4,0 z"
       style="fill:none;stroke:#000000;stroke-linecap:round;stroke-opacity:1;stroke-width:2;stroke-miterlimit:4;stroke-dasharray:none"
       inkscape:connector-curvature="0" />
    <path
       id="path3570"
       d="m 1501.4062,378.63085 a 11.7,11.7 0 1 0 -23.4,0 11.7,11.7 0 0 0 23.4,0 z"
       style="fill:none;stroke:#000000;stroke-linecap:round;stroke-opacity:1;stroke-width:2;stroke-miterlimit:4;stroke-dasharray:none"
       inkscape:connector-curvature="0" />
    <path
       id="path3572"
       d="m 128.90623,378.63085 a 11.7,11.7 0 1 0 -23.4,0 11.7,11.7 0 0 0 23.4,0 z"
       style="fill:none;stroke:#000000;stroke-linecap:round;stroke-opacity:1;stroke-width:2;stroke-miterlimit:4;stroke-dasharray:none"
       inkscape:connector-curvature="0" />
    <path
       id="path3574"
       d="m 52.298084,437.14784 a 3.543307,3.543307 0 0 0 -3.543307,3.5433"
       style="fill:none;stroke:#000000;stroke-linecap:round;stroke-opacity:1;stroke-width:2;stroke-miterlimit:4;stroke-dasharray:none"
       inkscape:connector-curvature="0" />
    <path
       id="path3576"
       d="m 48.754777,658.60453 0,-217.91339"
       style="fill:none;stroke:#000000;stroke-linecap:round;stroke-opacity:1;stroke-width:2;stroke-miterlimit:4;stroke-dasharray:none"
       inkscape:connector-curvature="0" />
    <path
       id="path3578"
       d="m 48.754777,658.60453 a 3.543307,3.543307 0 0 0 3.543307,3.54331"
       style="fill:none;stroke:#000000;stroke-linecap:round;stroke-opacity:1;stroke-width:2;stroke-miterlimit:4;stroke-dasharray:none"
       inkscape:connector-curvature="0" />
    <path
       id="path3580"
       d="m 1552.7115,662.14784 -1500.413416,0"
       style="fill:none;stroke:#000000;stroke-linecap:round;stroke-opacity:1;stroke-width:2;stroke-miterlimit:4;stroke-dasharray:none"
       inkscape:connector-curvature="0" />
    <path
       id="path3582"
       d="m 1552.7115,662.14784 a 3.543307,3.543307 0 0 0 3.5433,-3.54331"
       style="fill:none;stroke:#000000;stroke-linecap:round;stroke-opacity:1;stroke-width:2;stroke-miterlimit:4;stroke-dasharray:none"
       inkscape:connector-curvature="0" />
    <path
       id="path3584"
       d="m 1556.2548,440.69114 0,217.91339"
       style="fill:none;stroke:#000000;stroke-linecap:round;stroke-opacity:1;stroke-width:2;stroke-miterlimit:4;stroke-dasharray:none"
       inkscape:connector-curvature="0" />
    <path
       id="path3586"
       d="m 1556.2548,440.69114 a 3.543307,3.543307 0 0 0 -3.5433,-3.5433"
       style="fill:none;stroke:#000000;stroke-linecap:round;stroke-opacity:1;stroke-width:2;stroke-miterlimit:4;stroke-dasharray:none"
       inkscape:connector-curvature="0" />
    <path
       id="path3588"
       d="m 52.298084,437.14784 1500.413416,0"
       style="fill:none;stroke:#000000;stroke-linecap:round;stroke-opacity:1;stroke-width:2;stroke-miterlimit:4;stroke-dasharray:none"
       inkscape:connector-curvature="0" />
    <path
       id="path3590"
       d="m 1042.9547,617.14784 a 11.7,11.7 0 1 0 -23.4,0 11.7,11.7 0 1 0 23.4,0 z"
       style="fill:none;stroke:#000000;stroke-linecap:round;stroke-opacity:1;stroke-width:2;stroke-miterlimit:4;stroke-dasharray:none"
       inkscape:connector-curvature="0" />
    <path
       id="path3592"
       d="m 585.4549,617.14784 a 11.7,11.7 0 1 0 -23.4,0 11.7,11.7 0 1 0 23.4,0 z"
       style="fill:none;stroke:#000000;stroke-linecap:round;stroke-opacity:1;stroke-width:2;stroke-miterlimit:4;stroke-dasharray:none"
       inkscape:connector-curvature="0" />
    <path
       id="path3594"
       d="m 1500.4548,617.14784 a 11.7,11.7 0 1 0 -23.4,0 11.7,11.7 0 0 0 23.4,0 z"
       style="fill:none;stroke:#000000;stroke-linecap:round;stroke-opacity:1;stroke-width:2;stroke-miterlimit:4;stroke-dasharray:none"
       inkscape:connector-curvature="0" />
    <path
       id="path3596"
       d="m 127.95478,617.14784 a 11.7,11.7 0 1 0 -23.4,0 11.7,11.7 0 0 0 23.4,0 z"
       style="fill:none;stroke:#000000;stroke-linecap:round;stroke-opacity:1;stroke-width:2;stroke-miterlimit:4;stroke-dasharray:none"
       inkscape:connector-curvature="0" />
    <path
       id="path3598"
       d="m 1453.9345,797.49257 668.9763,0"
       style="fill:none;stroke:#000000;stroke-linecap:round;stroke-opacity:1;stroke-width:2;stroke-miterlimit:4;stroke-dasharray:none"
       inkscape:connector-curvature="0" />
    <path
       id="path3600"
       d="m 2122.9108,797.49257 a 7.086614,7.086614 0 0 0 7.0866,-7.08662"
       style="fill:none;stroke:#000000;stroke-linecap:round;stroke-opacity:1;stroke-width:2;stroke-miterlimit:4;stroke-dasharray:none"
       inkscape:connector-curvature="0" />
    <path
       id="path3602"
       d="m 2129.9974,790.40595 0,-1065.82677"
       style="fill:none;stroke:#000000;stroke-linecap:round;stroke-opacity:1;stroke-width:2;stroke-miterlimit:4;stroke-dasharray:none"
       inkscape:connector-curvature="0" />
    <path
       id="path3604"
       d="m 2129.9974,-275.42082 a 7.086614,7.086614 0 0 0 -7.0866,-7.08661"
       style="fill:none;stroke:#000000;stroke-linecap:round;stroke-opacity:1;stroke-width:2;stroke-miterlimit:4;stroke-dasharray:none"
       inkscape:connector-curvature="0" />
    <path
       id="path3606"
       d="m 2122.9108,-282.50743 -257.9527,0"
       style="fill:none;stroke:#000000;stroke-linecap:round;stroke-opacity:1;stroke-width:2;stroke-miterlimit:4;stroke-dasharray:none"
       inkscape:connector-curvature="0" />
    <path
       id="path3608"
       d="m 1864.9581,-282.50743 a 7.086614,7.086614 0 0 0 -7.0866,7.08661"
       style="fill:none;stroke:#000000;stroke-linecap:round;stroke-opacity:1;stroke-width:2;stroke-miterlimit:4;stroke-dasharray:none"
       inkscape:connector-curvature="0" />
    <path
       id="path3610"
       d="m 1857.8715,-275.42082 0,869.97579"
       style="fill:none;stroke:#000000;stroke-linecap:round;stroke-opacity:1;stroke-width:2;stroke-miterlimit:4;stroke-dasharray:none"
       inkscape:connector-curvature="0" />
    <path
       id="path3612"
       d="m 1852.619,601.40011 a 7.086614,7.086614 0 0 0 5.2525,-6.84514"
       style="fill:none;stroke:#000000;stroke-linecap:round;stroke-opacity:1;stroke-width:2;stroke-miterlimit:4;stroke-dasharray:none"
       inkscape:connector-curvature="0" />
    <path
       id="path3614"
       d="M 1327.5634,742.08835 1852.6203,601.40028"
       style="fill:none;stroke:#000000;stroke-linecap:round;stroke-opacity:1;stroke-width:2;stroke-miterlimit:4;stroke-dasharray:none"
       inkscape:connector-curvature="0" />
    <path
       id="path3616"
       d="m 1323.8951,742.57131 a 14.173228,14.173228 0 0 0 3.6683,-0.48295"
       style="fill:none;stroke:#000000;stroke-linecap:round;stroke-opacity:1;stroke-width:2;stroke-miterlimit:4;stroke-dasharray:none"
       inkscape:connector-curvature="0" />
    <path
       id="path3618"
       d="m 1323.8951,742.57131 a 56.692913,56.692913 0 1 0 55.818,66.61421"
       style="fill:none;stroke:#000000;stroke-linecap:round;stroke-opacity:1;stroke-width:2;stroke-miterlimit:4;stroke-dasharray:none"
       inkscape:connector-curvature="0" />
    <path
       id="path3620"
       d="m 1393.6678,797.49257 a 14.173228,14.173228 0 0 0 -13.9545,11.69282"
       style="fill:none;stroke:#000000;stroke-linecap:round;stroke-opacity:1;stroke-width:2;stroke-miterlimit:4;stroke-dasharray:none"
       inkscape:connector-curvature="0" />
    <path
       id="path3622"
       d="m 1453.9345,797.49257 -60.2667,0"
       style="fill:none;stroke:#000000;stroke-linecap:round;stroke-opacity:1;stroke-width:2;stroke-miterlimit:4;stroke-dasharray:none"
       inkscape:connector-curvature="0" />
    <path
       id="path3624"
       d="m 1303.1667,770.91776 a 7.61811,7.61811 0 1 0 -15.2362,0 7.61811,7.61811 0 1 0 15.2362,0 z"
       style="fill:none;stroke:#000000;stroke-linecap:round;stroke-opacity:1;stroke-width:2;stroke-miterlimit:4;stroke-dasharray:none"
       inkscape:connector-curvature="0" />
    <path
       id="path3626"
       d="m 1359.8597,770.91776 a 7.61815,7.61815 0 1 0 -15.2363,0 7.61815,7.61815 0 0 0 15.2363,0 z"
       style="fill:none;stroke:#000000;stroke-linecap:round;stroke-opacity:1;stroke-width:2;stroke-miterlimit:4;stroke-dasharray:none"
       inkscape:connector-curvature="0" />
    <path
       id="path3628"
       d="m 1303.1667,827.61068 a 7.61811,7.61811 0 1 0 -15.2362,0 7.61811,7.61811 0 1 0 15.2362,0 z"
       style="fill:none;stroke:#000000;stroke-linecap:round;stroke-opacity:1;stroke-width:2;stroke-miterlimit:4;stroke-dasharray:none"
       inkscape:connector-curvature="0" />
    <path
       id="path3630"
       d="m 1359.8597,827.61068 a 7.61815,7.61815 0 1 0 -15.2363,0 7.61815,7.61815 0 0 0 15.2363,0 z"
       style="fill:none;stroke:#000000;stroke-linecap:round;stroke-opacity:1;stroke-width:2;stroke-miterlimit:4;stroke-dasharray:none"
       inkscape:connector-curvature="0" />
    <path
       id="path3632"
       d="m 1341.6116,799.26422 a 17.716535,17.716535 0 1 0 -35.433,0 17.716535,17.716535 0 1 0 35.433,0 z"
       style="fill:none;stroke:#000000;stroke-linecap:round;stroke-opacity:1;stroke-width:2;stroke-miterlimit:4;stroke-dasharray:none"
       inkscape:connector-curvature="0" />
  </g>
</svg>
