999
dxfrw 0.6.3
  0
SECTION
  2
HEADER
  9
$ACADVER
  1
AC1021
  9
$DWGCODEPAGE
  3
ANSI_1252
  9
$INSBASE
 10
0
 20
0
 30
0
  9
$EXTMIN
 10
0
 20
-189.1858357755014
 30
0
  9
$EXTMAX
 10
645.3857756653374
 20
406.4
 30
0
  9
$LIMMIN
 10
0
 20
0
  9
$LIMMAX
 10
420
 20
297
  9
$ORTHOMODE
 70
    0
  9
$REGENMODE
 70
    1
  9
$FILLMODE
 70
    1
  9
$QTEXTMODE
 70
    0
  9
$MIRRTEXT
 70
    0
  9
$LTSCALE
 40
1
  9
$ATTMODE
 70
    0
  9
$TEXTSIZE
 40
2.5
  9
$TRACEWID
 40
15.68
  9
$TEXTSTYLE
  7
STANDARD
  9
$CLAYER
  8
material
  9
$CELTYPE
  6
BYLAYER
  9
$CECOLOR
 62
  256
  9
$CELTSCALE
 40
1
  9
$DISPSILH
 70
    0
  9
$DIMSCALE
 40
2.5
  9
$DIMASZ
 40
2.5
  9
$DIMEXO
 40
0.625
  9
$DIMDLI
 40
3.75
  9
$DIMRND
 40
0
  9
$DIMDLE
 40
0
  9
$DIMEXE
 40
1.25
  9
$DIMTP
 40
0
  9
$DIMTM
 40
0
  9
$DIMTXT
 40
2.5
  9
$DIMCEN
 40
2.5
  9
$DIMTSZ
 40
0
  9
$DIMTOL
 70
    0
  9
$DIMLIM
 70
    0
  9
$DIMTIH
 70
    0
  9
$DIMTOH
 70
    0
  9
$DIMSE1
 70
    0
  9
$DIMSE2
 70
    0
  9
$DIMTAD
 70
    1
  9
$DIMZIN
 70
    8
  9
$DIMBLK
  1

  9
$DIMASO
 70
    1
  9
$DIMSHO
 70
    1
  9
$DIMPOST
  1

  9
$DIMAPOST
  1

  9
$DIMALT
 70
    0
  9
$DIMALTD
 70
    3
  9
$DIMALTF
 40
0.03937
  9
$DIMLFAC
 40
1
  9
$DIMTOFL
 70
    1
  9
$DIMTVP
 40
0
  9
$DIMTIX
 70
    0
  9
$DIMSOXD
 70
    0
  9
$DIMSAH
 70
    0
  9
$DIMBLK1
  1

  9
$DIMBLK2
  1

  9
$DIMSTYLE
  2
STANDARD
  9
$DIMCLRD
 70
    0
  9
$DIMCLRE
 70
    0
  9
$DIMCLRT
 70
    0
  9
$DIMTFAC
 40
1
  9
$DIMGAP
 40
0.625
  9
$DIMJUST
 70
    0
  9
$DIMSD1
 70
    0
  9
$DIMSD2
 70
    0
  9
$DIMTOLJ
 70
    0
  9
$DIMTZIN
 70
    8
  9
$DIMALTZ
 70
    0
  9
$DIMALTTZ
 70
    0
  9
$DIMUPT
 70
    0
  9
$DIMDEC
 70
    2
  9
$DIMTDEC
 70
    2
  9
$DIMALTU
 70
    2
  9
$DIMALTTD
 70
    3
  9
$DIMTXSTY
  7
STANDARD
  9
$DIMAUNIT
 70
    0
  9
$DIMADEC
 70
    0
  9
$DIMALTRND
 40
0
  9
$DIMAZIN
 70
    0
  9
$DIMDSEP
 70
   44
  9
$DIMATFIT
 70
    3
  9
$DIMFRAC
 70
    0
  9
$DIMLDRBLK
  1
STANDARD
  9
$DIMLUNIT
 70
    2
  9
$DIMLWD
 70
   -2
  9
$DIMLWE
 70
   -2
  9
$DIMTMOVE
 70
    0
  9
$DIMFXL
 40
1
  9
$DIMFXLON
 70
    0
  9
$DIMJOGANG
 40
0.7854
  9
$DIMTFILL
 70
    0
  9
$DIMTFILLCLR
 70
    0
  9
$DIMARCSYM
 70
    0
  9
$DIMLTYPE
  6

  9
$DIMLTEX1
  6

  9
$DIMLTEX2
  6

  9
$LUNITS
 70
    2
  9
$LUPREC
 70
    4
  9
$SKETCHINC
 40
1
  9
$FILLETRAD
 40
0
  9
$AUNITS
 70
    0
  9
$AUPREC
 70
    2
  9
$MENU
  1
.
  9
$ELEVATION
 40
0
  9
$PELEVATION
 40
0
  9
$THICKNESS
 40
0
  9
$LIMCHECK
 70
    0
  9
$CHAMFERA
 40
0
  9
$CHAMFERB
 40
0
  9
$CHAMFERC
 40
0
  9
$CHAMFERD
 40
0
  9
$SKPOLY
 70
    0
  9
$USRTIMER
 70
    1
  9
$ANGBASE
 50
0
  9
$ANGDIR
 70
    0
  9
$PDMODE
 70
   34
  9
$PDSIZE
 40
0
  9
$PLINEWID
 40
0
  9
$SPLFRAME
 70
    0
  9
$SPLINETYPE
 70
    2
  9
$SPLINESEGS
 70
    8
  9
$HANDSEED
  5
20000
  9
$SURFTAB1
 70
    6
  9
$SURFTAB2
 70
    6
  9
$SURFTYPE
 70
    6
  9
$SURFU
 70
    6
  9
$SURFV
 70
    6
  9
$UCSBASE
  2

  9
$UCSNAME
  2

  9
$UCSORG
 10
0
 20
0
 30
0
  9
$UCSXDIR
 10
1
 20
0
 30
0
  9
$UCSYDIR
 10
0
 20
1
 30
0
  9
$UCSORTHOREF
  2

  9
$UCSORTHOVIEW
 70
    0
  9
$UCSORGTOP
 10
0
 20
0
 30
0
  9
$UCSORGBOTTOM
 10
0
 20
0
 30
0
  9
$UCSORGLEFT
 10
0
 20
0
 30
0
  9
$UCSORGRIGHT
 10
0
 20
0
 30
0
  9
$UCSORGFRONT
 10
0
 20
0
 30
0
  9
$UCSORGBACK
 10
0
 20
0
 30
0
  9
$PUCSBASE
  2

  9
$PUCSNAME
  2

  9
$PUCSORG
 10
0
 20
0
 30
0
  9
$PUCSXDIR
 10
1
 20
0
 30
0
  9
$PUCSYDIR
 10
0
 20
1
 30
0
  9
$PUCSORTHOREF
  2

  9
$PUCSORTHOVIEW
 70
    0
  9
$PUCSORGTOP
 10
0
 20
0
 30
0
  9
$PUCSORGBOTTOM
 10
0
 20
0
 30
0
  9
$PUCSORGLEFT
 10
0
 20
0
 30
0
  9
$PUCSORGRIGHT
 10
0
 20
0
 30
0
  9
$PUCSORGFRONT
 10
0
 20
0
 30
0
  9
$PUCSORGBACK
 10
0
 20
0
 30
0
  9
$USERI1
 70
    0
  9
$USERI2
 70
    0
  9
$USERI3
 70
    0
  9
$USERI4
 70
    0
  9
$USERI5
 70
    0
  9
$USERR1
 40
0
  9
$USERR2
 40
0
  9
$USERR3
 40
0
  9
$USERR4
 40
0
  9
$USERR5
 40
0
  9
$WORLDVIEW
 70
    1
  9
$SHADEDGE
 70
    3
  9
$SHADEDIF
 70
   70
  9
$TILEMODE
 70
    1
  9
$MAXACTVP
 70
   64
  9
$PINSBASE
 10
0
 20
0
 30
0
  9
$PLIMCHECK
 70
    0
  9
$PEXTMIN
 10
0
 20
0
 30
0
  9
$PEXTMAX
 10
0
 20
0
 30
0
  9
$SNAPSTYLE
 70
    0
  9
$PLIMMIN
 10
0
 20
0
  9
$PLIMMAX
 10
210
 20
297
  9
$UNITMODE
 70
    0
  9
$VISRETAIN
 70
    1
  9
$PLINEGEN
 70
    0
  9
$PSLTSCALE
 70
    1
  9
$TREEDEPTH
 70
 3020
  9
$CMLSTYLE
  2
Standard
  9
$CMLJUST
 70
    0
  9
$CMLSCALE
 40
20
  9
$PROXYGRAPHICS
 70
    1
  9
$MEASUREMENT
 70
    1
  9
$CELWEIGHT
370
   -1
  9
$ENDCAPS
280
    0
  9
$JOINSTYLE
280
    0
  9
$LWDISPLAY
290
    0
  9
$INSUNITS
 70
    4
  9
$HYPERLINKBASE
  1

  9
$STYLESHEET
  1

  9
$XEDIT
290
    1
  9
$CEPSNTYPE
380
    0
  9
$PSTYLEMODE
290
    1
  9
$EXTNAMES
290
    1
  9
$PSVPSCALE
 40
1
  9
$OLESTARTUP
290
    0
  9
$SORTENTS
280
  127
  9
$INDEXCTL
280
    0
  9
$HIDETEXT
280
    1
  9
$XCLIPFRAME
290
    0
  9
$HALOGAP
280
    0
  9
$OBSCOLOR
 70
  257
  9
$OBSLTYPE
280
    0
  9
$INTERSECTIONDISPLAY
280
    0
  9
$INTERSECTIONCOLOR
 70
  257
  9
$DIMASSOC
280
    1
  9
$PROJECTNAME
  1

  9
$CAMERADISPLAY
290
    0
  9
$LENSLENGTH
 40
50
  9
$CAMERAHEIGHT
 40
0
  9
$STEPSPERSEC
 40
2
  9
$STEPSIZE
 40
50
  9
$3DDWFPREC
 40
2
  9
$PSOLWIDTH
 40
5
  9
$PSOLHEIGHT
 40
80
  9
$LOFTANG1
 40
1.570796326794897
  9
$LOFTANG2
 40
1.570796326794897
  9
$LOFTMAG1
 40
0
  9
$LOFTMAG2
 40
0
  9
$LOFTPARAM
 70
    7
  9
$LOFTNORMALS
280
    1
  9
$LATITUDE
 40
1
  9
$LONGITUDE
 40
1
  9
$NORTHDIRECTION
 40
0
  9
$TIMEZONE
 70
-8000
  9
$LIGHTGLYPHDISPLAY
280
    1
  9
$TILEMODELIGHTSYNCH
280
    1
  9
$SOLIDHIST
280
    1
  9
$SHOWHIST
280
    1
  9
$DWFFRAME
280
    2
  9
$DGNFRAME
280
    0
  9
$REALWORLDSCALE
290
    1
  9
$INTERFERECOLOR
 62
    1
  9
$CSHADOW
280
    0
  9
$SHADOWPLANELOCATION
 40
0
  0
ENDSEC
  0
SECTION
  2
CLASSES
  0
ENDSEC
  0
SECTION
  2
TABLES
  0
TABLE
  2
VPORT
  5
8
330
0
100
AcDbSymbolTable
 70
    1
  0
VPORT
  5
31
330
2
100
AcDbSymbolTableRecord
100
AcDbViewportTableRecord
  2
*ACTIVE
 70
    0
 10
0
 20
0
 11
1
 21
1
 12
362.9711185998279
 22
250.0827796305362
 13
0
 23
0
 14
10
 24
10
 15
10
 25
10
 16
0
 26
0
 36
1
 17
0
 27
0
 37
0
 40
605.4919999262011
 41
1.975022301516503
 42
50
 43
0
 44
0
 50
0
 51
0
 71
    0
 72
  100
 73
    1
 74
    3
 75
    0
 76
    1
 77
    0
 78
    0
281
    0
 65
    1
110
0
120
0
130
0
111
1
121
0
131
0
112
0
122
1
132
0
 79
    0
146
0
348
10020
 60
    7
 61
    5
292
1
282
    1
141
0
142
0
 63
  250
421
3358443
  0
ENDTAB
  0
TABLE
  2
LTYPE
  5
5
330
0
100
AcDbSymbolTable
 70
    4
  0
LTYPE
  5
14
330
5
100
AcDbSymbolTableRecord
100
AcDbLinetypeTableRecord
  2
ByBlock
 70
    0
  3

 72
   65
 73
    0
 40
0
  0
LTYPE
  5
15
330
5
100
AcDbSymbolTableRecord
100
AcDbLinetypeTableRecord
  2
ByLayer
 70
    0
  3

 72
   65
 73
    0
 40
0
  0
LTYPE
  5
16
330
5
100
AcDbSymbolTableRecord
100
AcDbLinetypeTableRecord
  2
Continuous
 70
    0
  3
Solid line
 72
   65
 73
    0
 40
0
  0
LTYPE
  5
32
330
5
100
AcDbSymbolTableRecord
100
AcDbLinetypeTableRecord
  2
DOT
 70
    0
  3
Dot . . . . . . . . . . . . . . . . . . . . . .
 72
   65
 73
    2
 40
6.35
 49
0
 74
    0
 49
-6.35
 74
    0
  0
LTYPE
  5
33
330
5
100
AcDbSymbolTableRecord
100
AcDbLinetypeTableRecord
  2
DOTTINY
 70
    0
  3
Dot (.15x) .....................................
 72
   65
 73
    2
 40
0.9525
 49
0
 74
    0
 49
-0.9525
 74
    0
  0
LTYPE
  5
34
330
5
100
AcDbSymbolTableRecord
100
AcDbLinetypeTableRecord
  2
DOT2
 70
    0
  3
Dot (.5x) .....................................
 72
   65
 73
    2
 40
3.175
 49
0
 74
    0
 49
-3.175
 74
    0
  0
LTYPE
  5
35
330
5
100
AcDbSymbolTableRecord
100
AcDbLinetypeTableRecord
  2
DOTX2
 70
    0
  3
Dot (2x) .  .  .  .  .  .  .  .  .  .  .  .  .
 72
   65
 73
    2
 40
12.7
 49
0
 74
    0
 49
-12.7
 74
    0
  0
LTYPE
  5
36
330
5
100
AcDbSymbolTableRecord
100
AcDbLinetypeTableRecord
  2
DASHED
 70
    0
  3
Dashed _ _ _ _ _ _ _ _ _ _ _ _ _ _ _ _ _
 72
   65
 73
    2
 40
19.05
 49
12.7
 74
    0
 49
-6.35
 74
    0
  0
LTYPE
  5
37
330
5
100
AcDbSymbolTableRecord
100
AcDbLinetypeTableRecord
  2
DASHEDTINY
 70
    0
  3
Dashed (.15x) _ _ _ _ _ _ _ _ _ _ _ _ _ _ _ _ _
 72
   65
 73
    2
 40
2.8575
 49
1.905
 74
    0
 49
-0.9525
 74
    0
  0
LTYPE
  5
38
330
5
100
AcDbSymbolTableRecord
100
AcDbLinetypeTableRecord
  2
DASHED2
 70
    0
  3
Dashed (.5x) _ _ _ _ _ _ _ _ _ _ _ _ _ _ _ _ _
 72
   65
 73
    2
 40
9.524999999999999
 49
6.35
 74
    0
 49
-3.175
 74
    0
  0
LTYPE
  5
39
330
5
100
AcDbSymbolTableRecord
100
AcDbLinetypeTableRecord
  2
DASHEDX2
 70
    0
  3
Dashed (2x) ____  ____  ____  ____  ____  ___
 72
   65
 73
    2
 40
38.09999999999999
 49
25.4
 74
    0
 49
-12.7
 74
    0
  0
LTYPE
  5
3A
330
5
100
AcDbSymbolTableRecord
100
AcDbLinetypeTableRecord
  2
DASHDOT
 70
    0
  3
Dash dot __ . __ . __ . __ . __ . __ . __ . __
 72
   65
 73
    4
 40
25.4
 49
12.7
 74
    0
 49
-6.35
 74
    0
 49
0
 74
    0
 49
-6.35
 74
    0
  0
LTYPE
  5
3B
330
5
100
AcDbSymbolTableRecord
100
AcDbLinetypeTableRecord
  2
DASHDOTTINY
 70
    0
  3
Dash dot (.15x) _._._._._._._._._._._._._._._.
 72
   65
 73
    4
 40
3.81
 49
1.905
 74
    0
 49
-0.9525
 74
    0
 49
0
 74
    0
 49
-0.9525
 74
    0
  0
LTYPE
  5
3C
330
5
100
AcDbSymbolTableRecord
100
AcDbLinetypeTableRecord
  2
DASHDOT2
 70
    0
  3
Dash dot (.5x) _._._._._._._._._._._._._._._.
 72
   65
 73
    4
 40
12.7
 49
6.35
 74
    0
 49
-3.175
 74
    0
 49
0
 74
    0
 49
-3.175
 74
    0
  0
LTYPE
  5
3D
330
5
100
AcDbSymbolTableRecord
100
AcDbLinetypeTableRecord
  2
DASHDOTX2
 70
    0
  3
Dash dot (2x) ____  .  ____  .  ____  .  ___
 72
   65
 73
    4
 40
50.8
 49
25.4
 74
    0
 49
-12.7
 74
    0
 49
0
 74
    0
 49
-12.7
 74
    0
  0
LTYPE
  5
3E
330
5
100
AcDbSymbolTableRecord
100
AcDbLinetypeTableRecord
  2
DIVIDE
 70
    0
  3
Divide ____ . . ____ . . ____ . . ____ . . ____
 72
   65
 73
    6
 40
31.75
 49
12.7
 74
    0
 49
-6.35
 74
    0
 49
0
 74
    0
 49
-6.35
 74
    0
 49
0
 74
    0
 49
-6.35
 74
    0
  0
LTYPE
  5
3F
330
5
100
AcDbSymbolTableRecord
100
AcDbLinetypeTableRecord
  2
DIVIDETINY
 70
    0
  3
Divide (.15x) __..__..__..__..__..__..__..__.._
 72
   65
 73
    6
 40
4.7625
 49
1.905
 74
    0
 49
-0.9525
 74
    0
 49
0
 74
    0
 49
-0.9525
 74
    0
 49
0
 74
    0
 49
-0.9525
 74
    0
  0
LTYPE
  5
40
330
5
100
AcDbSymbolTableRecord
100
AcDbLinetypeTableRecord
  2
DIVIDE2
 70
    0
  3
Divide (.5x) __..__..__..__..__..__..__..__.._
 72
   65
 73
    6
 40
15.875
 49
6.35
 74
    0
 49
-3.175
 74
    0
 49
0
 74
    0
 49
-3.175
 74
    0
 49
0
 74
    0
 49
-3.175
 74
    0
  0
LTYPE
  5
41
330
5
100
AcDbSymbolTableRecord
100
AcDbLinetypeTableRecord
  2
DIVIDEX2
 70
    0
  3
Divide (2x) ________  .  .  ________  .  .  _
 72
   65
 73
    6
 40
63.5
 49
25.4
 74
    0
 49
-12.7
 74
    0
 49
0
 74
    0
 49
-12.7
 74
    0
 49
0
 74
    0
 49
-12.7
 74
    0
  0
LTYPE
  5
42
330
5
100
AcDbSymbolTableRecord
100
AcDbLinetypeTableRecord
  2
BORDER
 70
    0
  3
Border __ __ . __ __ . __ __ . __ __ . __ __ .
 72
   65
 73
    6
 40
44.45
 49
12.7
 74
    0
 49
-6.35
 74
    0
 49
12.7
 74
    0
 49
-6.35
 74
    0
 49
0
 74
    0
 49
-6.35
 74
    0
  0
LTYPE
  5
43
330
5
100
AcDbSymbolTableRecord
100
AcDbLinetypeTableRecord
  2
BORDERTINY
 70
    0
  3
Border (.15x) __.__.__.__.__.__.__.__.__.__.__.
 72
   65
 73
    6
 40
6.6675
 49
1.905
 74
    0
 49
-0.9525
 74
    0
 49
1.905
 74
    0
 49
-0.9525
 74
    0
 49
0
 74
    0
 49
-0.9525
 74
    0
  0
LTYPE
  5
44
330
5
100
AcDbSymbolTableRecord
100
AcDbLinetypeTableRecord
  2
BORDER2
 70
    0
  3
Border (.5x) __.__.__.__.__.__.__.__.__.__.__.
 72
   65
 73
    6
 40
22.225
 49
6.35
 74
    0
 49
-3.175
 74
    0
 49
6.35
 74
    0
 49
-3.175
 74
    0
 49
0
 74
    0
 49
-3.175
 74
    0
  0
LTYPE
  5
45
330
5
100
AcDbSymbolTableRecord
100
AcDbLinetypeTableRecord
  2
BORDERX2
 70
    0
  3
Border (2x) ____  ____  .  ____  ____  .  ___
 72
   65
 73
    6
 40
88.89999999999999
 49
25.4
 74
    0
 49
-12.7
 74
    0
 49
25.4
 74
    0
 49
-12.7
 74
    0
 49
0
 74
    0
 49
-12.7
 74
    0
  0
LTYPE
  5
46
330
5
100
AcDbSymbolTableRecord
100
AcDbLinetypeTableRecord
  2
CENTER
 70
    0
  3
Center ____ _ ____ _ ____ _ ____ _ ____ _ ____
 72
   65
 73
    4
 40
50.8
 49
31.75
 74
    0
 49
-6.35
 74
    0
 49
6.35
 74
    0
 49
-6.35
 74
    0
  0
LTYPE
  5
47
330
5
100
AcDbSymbolTableRecord
100
AcDbLinetypeTableRecord
  2
CENTERTINY
 70
    0
  3
Center (.15x) ___ _ ___ _ ___ _ ___ _ ___ _ ___
 72
   65
 73
    4
 40
7.619999999999999
 49
4.7625
 74
    0
 49
-0.9525
 74
    0
 49
0.9525
 74
    0
 49
-0.9525
 74
    0
  0
LTYPE
  5
48
330
5
100
AcDbSymbolTableRecord
100
AcDbLinetypeTableRecord
  2
CENTER2
 70
    0
  3
Center (.5x) ___ _ ___ _ ___ _ ___ _ ___ _ ___
 72
   65
 73
    4
 40
28.575
 49
19.05
 74
    0
 49
-3.175
 74
    0
 49
3.175
 74
    0
 49
-3.175
 74
    0
  0
LTYPE
  5
49
330
5
100
AcDbSymbolTableRecord
100
AcDbLinetypeTableRecord
  2
CENTERX2
 70
    0
  3
Center (2x) ________  __  ________  __  _____
 72
   65
 73
    4
 40
101.6
 49
63.5
 74
    0
 49
-12.7
 74
    0
 49
12.7
 74
    0
 49
-12.7
 74
    0
  0
ENDTAB
  0
TABLE
  2
LAYER
  5
2
330
0
100
AcDbSymbolTable
 70
    1
  0
LAYER
  5
10
330
2
100
AcDbSymbolTableRecord
100
AcDbLayerTableRecord
  2
0
 70
    0
 62
    7
  6
CONTINUOUS
370
    0
390
F
  0
LAYER
  5
4A
330
2
100
AcDbSymbolTableRecord
100
AcDbLayerTableRecord
  2
Sketch
 70
    0
 62
    7
  6
CONTINUOUS
370
   -3
390
F
  0
LAYER
  5
4B
330
2
100
AcDbSymbolTableRecord
100
AcDbLayerTableRecord
  2
material
 70
    0
 62
    4
  6
CONTINUOUS
370
    0
390
F
  0
LAYER
  5
4C
330
2
100
AcDbSymbolTableRecord
100
AcDbLayerTableRecord
  2
none
 70
    0
 62
    7
  6
CONTINUOUS
370
   -3
390
F
  0
ENDTAB
  0
TABLE
  2
STYLE
  5
3
330
0
100
AcDbSymbolTable
 70
    3
  0
STYLE
  5
4D
330
2
100
AcDbSymbolTableRecord
100
AcDbTextStyleTableRecord
  2
Standard
 70
    0
 40
0
 41
1
 50
0
 71
    0
 42
1
  3
txt
  4

  0
ENDTAB
  0
TABLE
  2
VIEW
  5
6
330
0
100
AcDbSymbolTable
 70
    0
  0
ENDTAB
  0
TABLE
  2
UCS
  5
7
330
0
100
AcDbSymbolTable
 70
    0
  0
ENDTAB
  0
TABLE
  2
APPID
  5
9
330
0
100
AcDbSymbolTable
 70
    1
  0
APPID
  5
12
330
9
100
AcDbSymbolTableRecord
100
AcDbRegAppTableRecord
  2
ACAD
 70
    0
  0
APPID
  5
4E
330
9
100
AcDbSymbolTableRecord
100
AcDbRegAppTableRecord
  2
LibreCad
 70
    0
  0
ENDTAB
  0
TABLE
  2
DIMSTYLE
  5
A
330
0
100
AcDbSymbolTable
 70
    1
100
AcDbDimStyleTable
 71
    1
  0
DIMSTYLE
105
4F
330
A
100
AcDbSymbolTableRecord
100
AcDbDimStyleTableRecord
  2
Standard
 70
    0
 40
1
 41
2.5
 42
0.625
 43
0.38
 44
1.25
 45
0
 46
0
 47
0
 48
0
 49
1
140
2.5
141
0.09
142
2.5
143
25.4
144
1
145
0
146
1
147
0.625
148
0
 71
    0
 72
    0
 73
    0
 74
    1
 75
    0
 76
    0
 77
    0
 78
    1
 79
    0
170
    0
171
    2
172
    0
173
    0
174
    0
175
    0
176
    0
177
    0
178
    0
179
    0
271
    2
272
    4
273
    2
274
    2
275
    0
276
    0
277
    2
278
    0
279
    0
280
    0
281
    0
282
    0
283
    1
284
    0
285
    0
286
    0
288
    0
289
    3
340
standard
341

371
   -2
372
   -2
  0
ENDTAB
  0
TABLE
  2
BLOCK_RECORD
  5
1
330
0
100
AcDbSymbolTable
 70
    2
  0
BLOCK_RECORD
  5
1F
330
1
100
AcDbSymbolTableRecord
100
AcDbBlockTableRecord
  2
*Model_Space
 70
    0
280
    1
281
    0
  0
BLOCK_RECORD
  5
1E
330
1
100
AcDbSymbolTableRecord
100
AcDbBlockTableRecord
  2
*Paper_Space
 70
    0
280
    1
281
    0
  0
ENDTAB
  0
ENDSEC
  0
SECTION
  2
BLOCKS
  0
BLOCK
  5
20
330
1F
100
AcDbEntity
  8
0
100
AcDbBlockBegin
  2
*Model_Space
 70
    0
 10
0
 20
0
 30
0
  3
*Model_Space
  1

  0
ENDBLK
  5
21
330
1F
100
AcDbEntity
  8
0
100
AcDbBlockEnd
  0
BLOCK
  5
1C
330
1B
100
AcDbEntity
  8
0
100
AcDbBlockBegin
  2
*Paper_Space
 70
    0
 10
0
 20
0
 30
0
  3
*Paper_Space
  1

  0
ENDBLK
  5
1D
330
1F
100
AcDbEntity
  8
0
100
AcDbBlockEnd
  0
ENDSEC
  0
SECTION
  2
ENTITIES
  0
LWPOLYLINE
  5
50
100
AcDbEntity
  8
material
  6
ByLayer
 62
  256
370
   -1
100
AcDbPolyline
 90
    4
 70
    1
 43
0
 10
0
 20
0
 10
609.5999999999999
 20
0
 10
609.5999999999999
 20
406.4
 10
0
 20
406.4
  0
LINE
  5
51
100
AcDbEntity
  8
Sketch
  6
ByLayer
 62
  256
370
   -1
100
AcDbLine
 10
35.90499422366612
 20
352.6733419592688
 11
35.90499422366612
 21
340.9733419592689
  0
ARC
  5
52
100
AcDbEntity
  8
Sketch
  6
ByLayer
 62
  256
370
   -1
100
AcDbCircle
 10
36.90499422366612
 20
340.9733419592689
 40
1
100
AcDbArc
 50
180
 51
270
  0
LINE
  5
53
100
AcDbEntity
  8
Sketch
  6
ByLayer
 62
  256
370
   -1
100
AcDbLine
 10
36.90499422366612
 20
339.9733419592689
 11
58.50299422366613
 21
339.9733419592689
  0
ARC
  5
54
100
AcDbEntity
  8
Sketch
  6
ByLayer
 62
  256
370
   -1
100
AcDbCircle
 10
58.50299422366613
 20
340.9733419592689
 40
1
100
AcDbArc
 50
270
 51
0
  0
LINE
  5
55
100
AcDbEntity
  8
Sketch
  6
ByLayer
 62
  256
370
   -1
100
AcDbLine
 10
59.50299422366613
 20
402.4733419592689
 11
59.50299422366613
 21
340.9733419592689
  0
ARC
  5
56
100
AcDbEntity
  8
Sketch
  6
ByLayer
 62
  256
370
   -1
100
AcDbCircle
 10
58.50299422366613
 20
402.4733419592689
 40
1
100
AcDbArc
 50
359.9999999999998
 51
90
  0
LINE
  5
57
100
AcDbEntity
  8
Sketch
  6
ByLayer
 62
  256
370
   -1
100
AcDbLine
 10
6.70299422366612
 20
403.4733419592689
 11
58.50299422366613
 21
403.4733419592689
  0
ARC
  5
58
100
AcDbEntity
  8
Sketch
  6
ByLayer
 62
  256
370
   -1
100
AcDbCircle
 10
6.70299422366612
 20
402.4733419592689
 40
1
100
AcDbArc
 50
90
 51
180
  0
LINE
  5
59
100
AcDbEntity
  8
Sketch
  6
ByLayer
 62
  256
370
   -1
100
AcDbLine
 10
5.70299422366612
 20
340.9733419592689
 11
5.70299422366612
 21
402.4733419592689
  0
ARC
  5
5A
100
AcDbEntity
  8
Sketch
  6
ByLayer
 62
  256
370
   -1
100
AcDbCircle
 10
6.70299422366612
 20
340.9733419592689
 40
1
100
AcDbArc
 50
180
 51
270
  0
LINE
  5
5B
100
AcDbEntity
  8
Sketch
  6
ByLayer
 62
  256
370
   -1
100
AcDbLine
 10
6.70299422366612
 20
339.9733419592689
 11
28.30099422366613
 21
339.9733419592689
  0
ARC
  5
5C
100
AcDbEntity
  8
Sketch
  6
ByLayer
 62
  256
370
   -1
100
AcDbCircle
 10
28.30099422366613
 20
340.9733419592689
 40
1
100
AcDbArc
 50
270
 51
0
  0
LINE
  5
5D
100
AcDbEntity
  8
Sketch
  6
ByLayer
 62
  256
370
   -1
100
AcDbLine
 10
29.30099422366613
 20
352.6733419592688
 11
29.30099422366613
 21
340.9733419592689
  0
ARC
  5
5E
100
AcDbEntity
  8
Sketch
  6
ByLayer
 62
  256
370
   -1
100
AcDbCircle
 10
32.60299422366612
 20
352.6733419592688
 40
3.302
100
AcDbArc
 50
0
 51
180
  0
CIRCLE
  5
5F
100
AcDbEntity
  8
Sketch
  6
ByLayer
 62
  256
370
   -1
100
AcDbCircle
 10
19.16779422366612
 20
397.1233419592688
 40
1.8288
  0
CIRCLE
  5
60
100
AcDbEntity
  8
Sketch
  6
ByLayer
 62
  256
370
   -1
100
AcDbCircle
 10
46.03819422366612
 20
397.1233419592688
 40
1.8288
  0
LINE
  5
61
100
AcDbEntity
  8
Sketch
  6
ByLayer
 62
  256
370
   -1
100
AcDbLine
 10
91.68529488803951
 20
352.4190841827069
 11
91.68529488803951
 21
340.7190841827069
  0
ARC
  5
62
100
AcDbEntity
  8
Sketch
  6
ByLayer
 62
  256
370
   -1
100
AcDbCircle
 10
92.68529488803951
 20
340.7190841827069
 40
1
100
AcDbArc
 50
180
 51
270
  0
LINE
  5
63
100
AcDbEntity
  8
Sketch
  6
ByLayer
 62
  256
370
   -1
100
AcDbLine
 10
92.68529488803951
 20
339.7190841827069
 11
114.2832948880395
 21
339.7190841827069
  0
ARC
  5
64
100
AcDbEntity
  8
Sketch
  6
ByLayer
 62
  256
370
   -1
100
AcDbCircle
 10
114.2832948880395
 20
340.7190841827069
 40
1
100
AcDbArc
 50
270
 51
0
  0
LINE
  5
65
100
AcDbEntity
  8
Sketch
  6
ByLayer
 62
  256
370
   -1
100
AcDbLine
 10
115.2832948880395
 20
402.2190841827069
 11
115.2832948880395
 21
340.7190841827069
  0
ARC
  5
66
100
AcDbEntity
  8
Sketch
  6
ByLayer
 62
  256
370
   -1
100
AcDbCircle
 10
114.2832948880395
 20
402.2190841827069
 40
1
100
AcDbArc
 50
359.9999999999998
 51
90
  0
LINE
  5
67
100
AcDbEntity
  8
Sketch
  6
ByLayer
 62
  256
370
   -1
100
AcDbLine
 10
62.4832948880395
 20
403.2190841827069
 11
114.2832948880395
 21
403.2190841827069
  0
ARC
  5
68
100
AcDbEntity
  8
Sketch
  6
ByLayer
 62
  256
370
   -1
100
AcDbCircle
 10
62.4832948880395
 20
402.2190841827069
 40
1
100
AcDbArc
 50
90
 51
180
  0
LINE
  5
69
100
AcDbEntity
  8
Sketch
  6
ByLayer
 62
  256
370
   -1
100
AcDbLine
 10
61.4832948880395
 20
340.7190841827069
 11
61.4832948880395
 21
402.2190841827069
  0
ARC
  5
6A
100
AcDbEntity
  8
Sketch
  6
ByLayer
 62
  256
370
   -1
100
AcDbCircle
 10
62.4832948880395
 20
340.7190841827069
 40
1
100
AcDbArc
 50
180
 51
270
  0
LINE
  5
6B
100
AcDbEntity
  8
Sketch
  6
ByLayer
 62
  256
370
   -1
100
AcDbLine
 10
62.4832948880395
 20
339.7190841827069
 11
84.08129488803952
 21
339.7190841827069
  0
ARC
  5
6C
100
AcDbEntity
  8
Sketch
  6
ByLayer
 62
  256
370
   -1
100
AcDbCircle
 10
84.08129488803952
 20
340.7190841827069
 40
1
100
AcDbArc
 50
270
 51
0
  0
LINE
  5
6D
100
AcDbEntity
  8
Sketch
  6
ByLayer
 62
  256
370
   -1
100
AcDbLine
 10
85.08129488803952
 20
352.4190841827069
 11
85.08129488803952
 21
340.7190841827069
  0
ARC
  5
6E
100
AcDbEntity
  8
Sketch
  6
ByLayer
 62
  256
370
   -1
100
AcDbCircle
 10
88.38329488803952
 20
352.4190841827069
 40
3.302
100
AcDbArc
 50
0
 51
180
  0
CIRCLE
  5
6F
100
AcDbEntity
  8
Sketch
  6
ByLayer
 62
  256
370
   -1
100
AcDbCircle
 10
74.94809488803951
 20
396.8690841827069
 40
1.8288
  0
CIRCLE
  5
70
100
AcDbEntity
  8
Sketch
  6
ByLayer
 62
  256
370
   -1
100
AcDbCircle
 10
101.8184948880395
 20
396.8690841827069
 40
1.8288
  0
LINE
  5
71
100
AcDbEntity
  8
Sketch
  6
ByLayer
 62
  256
370
   -1
100
AcDbLine
 10
147.4655955524129
 20
352.164826406145
 11
147.4655955524129
 21
340.464826406145
  0
ARC
  5
72
100
AcDbEntity
  8
Sketch
  6
ByLayer
 62
  256
370
   -1
100
AcDbCircle
 10
148.4655955524129
 20
340.464826406145
 40
1
100
AcDbArc
 50
180
 51
270
  0
LINE
  5
73
100
AcDbEntity
  8
Sketch
  6
ByLayer
 62
  256
370
   -1
100
AcDbLine
 10
148.4655955524129
 20
339.464826406145
 11
170.0635955524129
 21
339.464826406145
  0
ARC
  5
74
100
AcDbEntity
  8
Sketch
  6
ByLayer
 62
  256
370
   -1
100
AcDbCircle
 10
170.0635955524129
 20
340.464826406145
 40
1
100
AcDbArc
 50
270
 51
0
  0
LINE
  5
75
100
AcDbEntity
  8
Sketch
  6
ByLayer
 62
  256
370
   -1
100
AcDbLine
 10
171.0635955524129
 20
401.964826406145
 11
171.0635955524129
 21
340.464826406145
  0
ARC
  5
76
100
AcDbEntity
  8
Sketch
  6
ByLayer
 62
  256
370
   -1
100
AcDbCircle
 10
170.0635955524129
 20
401.964826406145
 40
1
100
AcDbArc
 50
359.9999999999998
 51
90
  0
LINE
  5
77
100
AcDbEntity
  8
Sketch
  6
ByLayer
 62
  256
370
   -1
100
AcDbLine
 10
118.2635955524129
 20
402.964826406145
 11
170.0635955524129
 21
402.964826406145
  0
ARC
  5
78
100
AcDbEntity
  8
Sketch
  6
ByLayer
 62
  256
370
   -1
100
AcDbCircle
 10
118.2635955524129
 20
401.964826406145
 40
1
100
AcDbArc
 50
90
 51
180
  0
LINE
  5
79
100
AcDbEntity
  8
Sketch
  6
ByLayer
 62
  256
370
   -1
100
AcDbLine
 10
117.2635955524129
 20
340.464826406145
 11
117.2635955524129
 21
401.964826406145
  0
ARC
  5
7A
100
AcDbEntity
  8
Sketch
  6
ByLayer
 62
  256
370
   -1
100
AcDbCircle
 10
118.2635955524129
 20
340.464826406145
 40
1
100
AcDbArc
 50
180
 51
270
  0
LINE
  5
7B
100
AcDbEntity
  8
Sketch
  6
ByLayer
 62
  256
370
   -1
100
AcDbLine
 10
118.2635955524129
 20
339.464826406145
 11
139.8615955524129
 21
339.464826406145
  0
ARC
  5
7C
100
AcDbEntity
  8
Sketch
  6
ByLayer
 62
  256
370
   -1
100
AcDbCircle
 10
139.8615955524129
 20
340.464826406145
 40
1
100
AcDbArc
 50
270
 51
0
  0
LINE
  5
7D
100
AcDbEntity
  8
Sketch
  6
ByLayer
 62
  256
370
   -1
100
AcDbLine
 10
140.8615955524129
 20
352.164826406145
 11
140.8615955524129
 21
340.464826406145
  0
ARC
  5
7E
100
AcDbEntity
  8
Sketch
  6
ByLayer
 62
  256
370
   -1
100
AcDbCircle
 10
144.1635955524129
 20
352.164826406145
 40
3.302
100
AcDbArc
 50
0
 51
180
  0
CIRCLE
  5
7F
100
AcDbEntity
  8
Sketch
  6
ByLayer
 62
  256
370
   -1
100
AcDbCircle
 10
130.7283955524129
 20
396.614826406145
 40
1.8288
  0
CIRCLE
  5
80
100
AcDbEntity
  8
Sketch
  6
ByLayer
 62
  256
370
   -1
100
AcDbCircle
 10
157.5987955524129
 20
396.614826406145
 40
1.8288
  0
LINE
  5
81
100
AcDbEntity
  8
Sketch
  6
ByLayer
 62
  256
370
   -1
100
AcDbLine
 10
203.2458962167863
 20
351.9105686295831
 11
203.2458962167863
 21
340.2105686295831
  0
ARC
  5
82
100
AcDbEntity
  8
Sketch
  6
ByLayer
 62
  256
370
   -1
100
AcDbCircle
 10
204.2458962167863
 20
340.2105686295831
 40
1
100
AcDbArc
 50
180
 51
270
  0
LINE
  5
83
100
AcDbEntity
  8
Sketch
  6
ByLayer
 62
  256
370
   -1
100
AcDbLine
 10
204.2458962167863
 20
339.2105686295831
 11
225.8438962167863
 21
339.2105686295831
  0
ARC
  5
84
100
AcDbEntity
  8
Sketch
  6
ByLayer
 62
  256
370
   -1
100
AcDbCircle
 10
225.8438962167863
 20
340.2105686295831
 40
1
100
AcDbArc
 50
270
 51
0
  0
LINE
  5
85
100
AcDbEntity
  8
Sketch
  6
ByLayer
 62
  256
370
   -1
100
AcDbLine
 10
226.8438962167863
 20
401.7105686295831
 11
226.8438962167863
 21
340.2105686295831
  0
ARC
  5
86
100
AcDbEntity
  8
Sketch
  6
ByLayer
 62
  256
370
   -1
100
AcDbCircle
 10
225.8438962167863
 20
401.7105686295831
 40
1
100
AcDbArc
 50
359.9999999999998
 51
90
  0
LINE
  5
87
100
AcDbEntity
  8
Sketch
  6
ByLayer
 62
  256
370
   -1
100
AcDbLine
 10
174.0438962167863
 20
402.7105686295831
 11
225.8438962167863
 21
402.7105686295831
  0
ARC
  5
88
100
AcDbEntity
  8
Sketch
  6
ByLayer
 62
  256
370
   -1
100
AcDbCircle
 10
174.0438962167863
 20
401.7105686295831
 40
1
100
AcDbArc
 50
90
 51
180
  0
LINE
  5
89
100
AcDbEntity
  8
Sketch
  6
ByLayer
 62
  256
370
   -1
100
AcDbLine
 10
173.0438962167863
 20
340.2105686295831
 11
173.0438962167863
 21
401.7105686295831
  0
ARC
  5
8A
100
AcDbEntity
  8
Sketch
  6
ByLayer
 62
  256
370
   -1
100
AcDbCircle
 10
174.0438962167863
 20
340.2105686295831
 40
1
100
AcDbArc
 50
180
 51
270
  0
LINE
  5
8B
100
AcDbEntity
  8
Sketch
  6
ByLayer
 62
  256
370
   -1
100
AcDbLine
 10
174.0438962167863
 20
339.2105686295831
 11
195.6418962167863
 21
339.2105686295831
  0
ARC
  5
8C
100
AcDbEntity
  8
Sketch
  6
ByLayer
 62
  256
370
   -1
100
AcDbCircle
 10
195.6418962167863
 20
340.2105686295831
 40
1
100
AcDbArc
 50
270
 51
0
  0
LINE
  5
8D
100
AcDbEntity
  8
Sketch
  6
ByLayer
 62
  256
370
   -1
100
AcDbLine
 10
196.6418962167863
 20
351.9105686295831
 11
196.6418962167863
 21
340.2105686295831
  0
ARC
  5
8E
100
AcDbEntity
  8
Sketch
  6
ByLayer
 62
  256
370
   -1
100
AcDbCircle
 10
199.9438962167863
 20
351.9105686295831
 40
3.302
100
AcDbArc
 50
0
 51
180
  0
CIRCLE
  5
8F
100
AcDbEntity
  8
Sketch
  6
ByLayer
 62
  256
370
   -1
100
AcDbCircle
 10
186.5086962167863
 20
396.360568629583
 40
1.8288
  0
CIRCLE
  5
90
100
AcDbEntity
  8
Sketch
  6
ByLayer
 62
  256
370
   -1
100
AcDbCircle
 10
213.3790962167863
 20
396.360568629583
 40
1.8288
  0
LINE
  5
91
100
AcDbEntity
  8
Sketch
  6
ByLayer
 62
  256
370
   -1
100
AcDbLine
 10
259.0261968811597
 20
351.6563108530211
 11
259.0261968811597
 21
339.9563108530211
  0
ARC
  5
92
100
AcDbEntity
  8
Sketch
  6
ByLayer
 62
  256
370
   -1
100
AcDbCircle
 10
260.0261968811597
 20
339.9563108530211
 40
1
100
AcDbArc
 50
180
 51
270
  0
LINE
  5
93
100
AcDbEntity
  8
Sketch
  6
ByLayer
 62
  256
370
   -1
100
AcDbLine
 10
260.0261968811597
 20
338.9563108530211
 11
281.6241968811597
 21
338.9563108530211
  0
ARC
  5
94
100
AcDbEntity
  8
Sketch
  6
ByLayer
 62
  256
370
   -1
100
AcDbCircle
 10
281.6241968811597
 20
339.9563108530211
 40
1
100
AcDbArc
 50
270
 51
0
  0
LINE
  5
95
100
AcDbEntity
  8
Sketch
  6
ByLayer
 62
  256
370
   -1
100
AcDbLine
 10
282.6241968811597
 20
401.4563108530211
 11
282.6241968811597
 21
339.9563108530211
  0
ARC
  5
96
100
AcDbEntity
  8
Sketch
  6
ByLayer
 62
  256
370
   -1
100
AcDbCircle
 10
281.6241968811597
 20
401.4563108530211
 40
1
100
AcDbArc
 50
359.9999999999998
 51
90
  0
LINE
  5
97
100
AcDbEntity
  8
Sketch
  6
ByLayer
 62
  256
370
   -1
100
AcDbLine
 10
229.8241968811597
 20
402.4563108530211
 11
281.6241968811597
 21
402.4563108530211
  0
ARC
  5
98
100
AcDbEntity
  8
Sketch
  6
ByLayer
 62
  256
370
   -1
100
AcDbCircle
 10
229.8241968811597
 20
401.4563108530211
 40
1
100
AcDbArc
 50
90
 51
180
  0
LINE
  5
99
100
AcDbEntity
  8
Sketch
  6
ByLayer
 62
  256
370
   -1
100
AcDbLine
 10
228.8241968811597
 20
339.9563108530211
 11
228.8241968811597
 21
401.4563108530211
  0
ARC
  5
9A
100
AcDbEntity
  8
Sketch
  6
ByLayer
 62
  256
370
   -1
100
AcDbCircle
 10
229.8241968811597
 20
339.9563108530211
 40
1
100
AcDbArc
 50
180
 51
270
  0
LINE
  5
9B
100
AcDbEntity
  8
Sketch
  6
ByLayer
 62
  256
370
   -1
100
AcDbLine
 10
229.8241968811597
 20
338.9563108530211
 11
251.4221968811596
 21
338.9563108530211
  0
ARC
  5
9C
100
AcDbEntity
  8
Sketch
  6
ByLayer
 62
  256
370
   -1
100
AcDbCircle
 10
251.4221968811596
 20
339.9563108530211
 40
1
100
AcDbArc
 50
270
 51
0
  0
LINE
  5
9D
100
AcDbEntity
  8
Sketch
  6
ByLayer
 62
  256
370
   -1
100
AcDbLine
 10
252.4221968811596
 20
351.6563108530211
 11
252.4221968811596
 21
339.9563108530211
  0
ARC
  5
9E
100
AcDbEntity
  8
Sketch
  6
ByLayer
 62
  256
370
   -1
100
AcDbCircle
 10
255.7241968811597
 20
351.6563108530211
 40
3.302
100
AcDbArc
 50
0
 51
180
  0
CIRCLE
  5
9F
100
AcDbEntity
  8
Sketch
  6
ByLayer
 62
  256
370
   -1
100
AcDbCircle
 10
242.2889968811596
 20
396.1063108530211
 40
1.8288
  0
CIRCLE
  5
A0
100
AcDbEntity
  8
Sketch
  6
ByLayer
 62
  256
370
   -1
100
AcDbCircle
 10
269.1593968811597
 20
396.1063108530211
 40
1.8288
  0
LINE
  5
A1
100
AcDbEntity
  8
Sketch
  6
ByLayer
 62
  256
370
   -1
100
AcDbLine
 10
314.8064975455331
 20
351.4020530764592
 11
314.8064975455331
 21
339.7020530764592
  0
ARC
  5
A2
100
AcDbEntity
  8
Sketch
  6
ByLayer
 62
  256
370
   -1
100
AcDbCircle
 10
315.8064975455331
 20
339.7020530764592
 40
1
100
AcDbArc
 50
180
 51
270
  0
LINE
  5
A3
100
AcDbEntity
  8
Sketch
  6
ByLayer
 62
  256
370
   -1
100
AcDbLine
 10
315.8064975455331
 20
338.7020530764592
 11
337.404497545533
 21
338.7020530764592
  0
ARC
  5
A4
100
AcDbEntity
  8
Sketch
  6
ByLayer
 62
  256
370
   -1
100
AcDbCircle
 10
337.404497545533
 20
339.7020530764592
 40
1
100
AcDbArc
 50
270
 51
0
  0
LINE
  5
A5
100
AcDbEntity
  8
Sketch
  6
ByLayer
 62
  256
370
   -1
100
AcDbLine
 10
338.404497545533
 20
401.2020530764592
 11
338.404497545533
 21
339.7020530764592
  0
ARC
  5
A6
100
AcDbEntity
  8
Sketch
  6
ByLayer
 62
  256
370
   -1
100
AcDbCircle
 10
337.404497545533
 20
401.2020530764592
 40
1
100
AcDbArc
 50
359.9999999999998
 51
90
  0
LINE
  5
A7
100
AcDbEntity
  8
Sketch
  6
ByLayer
 62
  256
370
   -1
100
AcDbLine
 10
285.6044975455331
 20
402.2020530764592
 11
337.404497545533
 21
402.2020530764592
  0
ARC
  5
A8
100
AcDbEntity
  8
Sketch
  6
ByLayer
 62
  256
370
   -1
100
AcDbCircle
 10
285.6044975455331
 20
401.2020530764592
 40
1
100
AcDbArc
 50
90
 51
180
  0
LINE
  5
A9
100
AcDbEntity
  8
Sketch
  6
ByLayer
 62
  256
370
   -1
100
AcDbLine
 10
284.6044975455331
 20
339.7020530764592
 11
284.6044975455331
 21
401.2020530764592
  0
ARC
  5
AA
100
AcDbEntity
  8
Sketch
  6
ByLayer
 62
  256
370
   -1
100
AcDbCircle
 10
285.6044975455331
 20
339.7020530764592
 40
1
100
AcDbArc
 50
180
 51
270
  0
LINE
  5
AB
100
AcDbEntity
  8
Sketch
  6
ByLayer
 62
  256
370
   -1
100
AcDbLine
 10
285.6044975455331
 20
338.7020530764592
 11
307.202497545533
 21
338.7020530764592
  0
ARC
  5
AC
100
AcDbEntity
  8
Sketch
  6
ByLayer
 62
  256
370
   -1
100
AcDbCircle
 10
307.202497545533
 20
339.7020530764592
 40
1
100
AcDbArc
 50
270
 51
0
  0
LINE
  5
AD
100
AcDbEntity
  8
Sketch
  6
ByLayer
 62
  256
370
   -1
100
AcDbLine
 10
308.202497545533
 20
351.4020530764592
 11
308.202497545533
 21
339.7020530764592
  0
ARC
  5
AE
100
AcDbEntity
  8
Sketch
  6
ByLayer
 62
  256
370
   -1
100
AcDbCircle
 10
311.5044975455331
 20
351.4020530764592
 40
3.302
100
AcDbArc
 50
0
 51
180
  0
CIRCLE
  5
AF
100
AcDbEntity
  8
Sketch
  6
ByLayer
 62
  256
370
   -1
100
AcDbCircle
 10
298.0692975455331
 20
395.8520530764592
 40
1.8288
  0
CIRCLE
  5
B0
100
AcDbEntity
  8
Sketch
  6
ByLayer
 62
  256
370
   -1
100
AcDbCircle
 10
324.9396975455331
 20
395.8520530764592
 40
1.8288
  0
LINE
  5
B1
100
AcDbEntity
  8
Sketch
  6
ByLayer
 62
  256
370
   -1
100
AcDbLine
 10
370.5867982099065
 20
351.1477952998973
 11
370.5867982099065
 21
339.4477952998973
  0
ARC
  5
B2
100
AcDbEntity
  8
Sketch
  6
ByLayer
 62
  256
370
   -1
100
AcDbCircle
 10
371.5867982099065
 20
339.4477952998973
 40
1
100
AcDbArc
 50
180
 51
270
  0
LINE
  5
B3
100
AcDbEntity
  8
Sketch
  6
ByLayer
 62
  256
370
   -1
100
AcDbLine
 10
371.5867982099065
 20
338.4477952998973
 11
393.1847982099064
 21
338.4477952998973
  0
ARC
  5
B4
100
AcDbEntity
  8
Sketch
  6
ByLayer
 62
  256
370
   -1
100
AcDbCircle
 10
393.1847982099064
 20
339.4477952998973
 40
1
100
AcDbArc
 50
270
 51
0
  0
LINE
  5
B5
100
AcDbEntity
  8
Sketch
  6
ByLayer
 62
  256
370
   -1
100
AcDbLine
 10
394.1847982099064
 20
400.9477952998973
 11
394.1847982099064
 21
339.4477952998973
  0
ARC
  5
B6
100
AcDbEntity
  8
Sketch
  6
ByLayer
 62
  256
370
   -1
100
AcDbCircle
 10
393.1847982099064
 20
400.9477952998973
 40
1
100
AcDbArc
 50
359.9999999999998
 51
90
  0
LINE
  5
B7
100
AcDbEntity
  8
Sketch
  6
ByLayer
 62
  256
370
   -1
100
AcDbLine
 10
341.3847982099065
 20
401.9477952998973
 11
393.1847982099064
 21
401.9477952998973
  0
ARC
  5
B8
100
AcDbEntity
  8
Sketch
  6
ByLayer
 62
  256
370
   -1
100
AcDbCircle
 10
341.3847982099065
 20
400.9477952998973
 40
1
100
AcDbArc
 50
90
 51
180
  0
LINE
  5
B9
100
AcDbEntity
  8
Sketch
  6
ByLayer
 62
  256
370
   -1
100
AcDbLine
 10
340.3847982099065
 20
339.4477952998973
 11
340.3847982099065
 21
400.9477952998973
  0
ARC
  5
BA
100
AcDbEntity
  8
Sketch
  6
ByLayer
 62
  256
370
   -1
100
AcDbCircle
 10
341.3847982099065
 20
339.4477952998973
 40
1
100
AcDbArc
 50
180
 51
270
  0
LINE
  5
BB
100
AcDbEntity
  8
Sketch
  6
ByLayer
 62
  256
370
   -1
100
AcDbLine
 10
341.3847982099065
 20
338.4477952998973
 11
362.9827982099064
 21
338.4477952998973
  0
ARC
  5
BC
100
AcDbEntity
  8
Sketch
  6
ByLayer
 62
  256
370
   -1
100
AcDbCircle
 10
362.9827982099064
 20
339.4477952998973
 40
1
100
AcDbArc
 50
270
 51
0
  0
LINE
  5
BD
100
AcDbEntity
  8
Sketch
  6
ByLayer
 62
  256
370
   -1
100
AcDbLine
 10
363.9827982099064
 20
351.1477952998973
 11
363.9827982099064
 21
339.4477952998973
  0
ARC
  5
BE
100
AcDbEntity
  8
Sketch
  6
ByLayer
 62
  256
370
   -1
100
AcDbCircle
 10
367.2847982099065
 20
351.1477952998973
 40
3.302
100
AcDbArc
 50
0
 51
180
  0
CIRCLE
  5
BF
100
AcDbEntity
  8
Sketch
  6
ByLayer
 62
  256
370
   -1
100
AcDbCircle
 10
353.8495982099064
 20
395.5977952998973
 40
1.8288
  0
CIRCLE
  5
C0
100
AcDbEntity
  8
Sketch
  6
ByLayer
 62
  256
370
   -1
100
AcDbCircle
 10
380.7199982099065
 20
395.5977952998973
 40
1.8288
  0
LINE
  5
C1
100
AcDbEntity
  8
Sketch
  6
ByLayer
 62
  256
370
   -1
100
AcDbLine
 10
426.3670988742799
 20
350.8935375233353
 11
426.3670988742799
 21
339.1935375233354
  0
ARC
  5
C2
100
AcDbEntity
  8
Sketch
  6
ByLayer
 62
  256
370
   -1
100
AcDbCircle
 10
427.3670988742799
 20
339.1935375233354
 40
1
100
AcDbArc
 50
180
 51
270
  0
LINE
  5
C3
100
AcDbEntity
  8
Sketch
  6
ByLayer
 62
  256
370
   -1
100
AcDbLine
 10
427.3670988742799
 20
338.1935375233354
 11
448.9650988742798
 21
338.1935375233354
  0
ARC
  5
C4
100
AcDbEntity
  8
Sketch
  6
ByLayer
 62
  256
370
   -1
100
AcDbCircle
 10
448.9650988742798
 20
339.1935375233354
 40
1
100
AcDbArc
 50
270
 51
0
  0
LINE
  5
C5
100
AcDbEntity
  8
Sketch
  6
ByLayer
 62
  256
370
   -1
100
AcDbLine
 10
449.9650988742798
 20
400.6935375233354
 11
449.9650988742798
 21
339.1935375233354
  0
ARC
  5
C6
100
AcDbEntity
  8
Sketch
  6
ByLayer
 62
  256
370
   -1
100
AcDbCircle
 10
448.9650988742798
 20
400.6935375233354
 40
1
100
AcDbArc
 50
359.9999999999998
 51
90
  0
LINE
  5
C7
100
AcDbEntity
  8
Sketch
  6
ByLayer
 62
  256
370
   -1
100
AcDbLine
 10
397.1650988742799
 20
401.6935375233354
 11
448.9650988742798
 21
401.6935375233354
  0
ARC
  5
C8
100
AcDbEntity
  8
Sketch
  6
ByLayer
 62
  256
370
   -1
100
AcDbCircle
 10
397.1650988742799
 20
400.6935375233354
 40
1
100
AcDbArc
 50
90
 51
180
  0
LINE
  5
C9
100
AcDbEntity
  8
Sketch
  6
ByLayer
 62
  256
370
   -1
100
AcDbLine
 10
396.1650988742799
 20
339.1935375233354
 11
396.1650988742799
 21
400.6935375233354
  0
ARC
  5
CA
100
AcDbEntity
  8
Sketch
  6
ByLayer
 62
  256
370
   -1
100
AcDbCircle
 10
397.1650988742799
 20
339.1935375233354
 40
1
100
AcDbArc
 50
180
 51
270
  0
LINE
  5
CB
100
AcDbEntity
  8
Sketch
  6
ByLayer
 62
  256
370
   -1
100
AcDbLine
 10
397.1650988742799
 20
338.1935375233354
 11
418.7630988742798
 21
338.1935375233354
  0
ARC
  5
CC
100
AcDbEntity
  8
Sketch
  6
ByLayer
 62
  256
370
   -1
100
AcDbCircle
 10
418.7630988742798
 20
339.1935375233354
 40
1
100
AcDbArc
 50
270
 51
0
  0
LINE
  5
CD
100
AcDbEntity
  8
Sketch
  6
ByLayer
 62
  256
370
   -1
100
AcDbLine
 10
419.7630988742798
 20
350.8935375233353
 11
419.7630988742798
 21
339.1935375233354
  0
ARC
  5
CE
100
AcDbEntity
  8
Sketch
  6
ByLayer
 62
  256
370
   -1
100
AcDbCircle
 10
423.0650988742798
 20
350.8935375233353
 40
3.302
100
AcDbArc
 50
0
 51
180
  0
CIRCLE
  5
CF
100
AcDbEntity
  8
Sketch
  6
ByLayer
 62
  256
370
   -1
100
AcDbCircle
 10
409.6298988742798
 20
395.3435375233353
 40
1.8288
  0
CIRCLE
  5
D0
100
AcDbEntity
  8
Sketch
  6
ByLayer
 62
  256
370
   -1
100
AcDbCircle
 10
436.5002988742798
 20
395.3435375233353
 40
1.8288
  0
LINE
  5
D1
100
AcDbEntity
  8
Sketch
  6
ByLayer
 62
  256
370
   -1
100
AcDbLine
 10
482.1473995386532
 20
350.6392797467734
 11
482.1473995386532
 21
338.9392797467734
  0
ARC
  5
D2
100
AcDbEntity
  8
Sketch
  6
ByLayer
 62
  256
370
   -1
100
AcDbCircle
 10
483.1473995386532
 20
338.9392797467734
 40
1
100
AcDbArc
 50
180
 51
270
  0
LINE
  5
D3
100
AcDbEntity
  8
Sketch
  6
ByLayer
 62
  256
370
   -1
100
AcDbLine
 10
483.1473995386532
 20
337.9392797467734
 11
504.7453995386532
 21
337.9392797467734
  0
ARC
  5
D4
100
AcDbEntity
  8
Sketch
  6
ByLayer
 62
  256
370
   -1
100
AcDbCircle
 10
504.7453995386532
 20
338.9392797467734
 40
1
100
AcDbArc
 50
270
 51
0
  0
LINE
  5
D5
100
AcDbEntity
  8
Sketch
  6
ByLayer
 62
  256
370
   -1
100
AcDbLine
 10
505.7453995386532
 20
400.4392797467734
 11
505.7453995386532
 21
338.9392797467734
  0
ARC
  5
D6
100
AcDbEntity
  8
Sketch
  6
ByLayer
 62
  256
370
   -1
100
AcDbCircle
 10
504.7453995386532
 20
400.4392797467734
 40
1
100
AcDbArc
 50
359.9999999999998
 51
90
  0
LINE
  5
D7
100
AcDbEntity
  8
Sketch
  6
ByLayer
 62
  256
370
   -1
100
AcDbLine
 10
452.9453995386532
 20
401.4392797467734
 11
504.7453995386532
 21
401.4392797467734
  0
ARC
  5
D8
100
AcDbEntity
  8
Sketch
  6
ByLayer
 62
  256
370
   -1
100
AcDbCircle
 10
452.9453995386532
 20
400.4392797467734
 40
1
100
AcDbArc
 50
90
 51
180
  0
LINE
  5
D9
100
AcDbEntity
  8
Sketch
  6
ByLayer
 62
  256
370
   -1
100
AcDbLine
 10
451.9453995386532
 20
338.9392797467734
 11
451.9453995386532
 21
400.4392797467734
  0
ARC
  5
DA
100
AcDbEntity
  8
Sketch
  6
ByLayer
 62
  256
370
   -1
100
AcDbCircle
 10
452.9453995386532
 20
338.9392797467734
 40
1
100
AcDbArc
 50
180
 51
270
  0
LINE
  5
DB
100
AcDbEntity
  8
Sketch
  6
ByLayer
 62
  256
370
   -1
100
AcDbLine
 10
452.9453995386532
 20
337.9392797467734
 11
474.5433995386532
 21
337.9392797467734
  0
ARC
  5
DC
100
AcDbEntity
  8
Sketch
  6
ByLayer
 62
  256
370
   -1
100
AcDbCircle
 10
474.5433995386532
 20
338.9392797467734
 40
1
100
AcDbArc
 50
270
 51
0
  0
LINE
  5
DD
100
AcDbEntity
  8
Sketch
  6
ByLayer
 62
  256
370
   -1
100
AcDbLine
 10
475.5433995386532
 20
350.6392797467734
 11
475.5433995386532
 21
338.9392797467734
  0
ARC
  5
DE
100
AcDbEntity
  8
Sketch
  6
ByLayer
 62
  256
370
   -1
100
AcDbCircle
 10
478.8453995386532
 20
350.6392797467734
 40
3.302
100
AcDbArc
 50
0
 51
180
  0
CIRCLE
  5
DF
100
AcDbEntity
  8
Sketch
  6
ByLayer
 62
  256
370
   -1
100
AcDbCircle
 10
465.4101995386532
 20
395.0892797467734
 40
1.8288
  0
CIRCLE
  5
E0
100
AcDbEntity
  8
Sketch
  6
ByLayer
 62
  256
370
   -1
100
AcDbCircle
 10
492.2805995386532
 20
395.0892797467734
 40
1.8288
  0
LINE
  5
E1
100
AcDbEntity
  8
Sketch
  6
ByLayer
 62
  256
370
   -1
100
AcDbLine
 10
537.9277002030266
 20
350.3850219702115
 11
537.9277002030266
 21
338.6850219702115
  0
ARC
  5
E2
100
AcDbEntity
  8
Sketch
  6
ByLayer
 62
  256
370
   -1
100
AcDbCircle
 10
538.9277002030266
 20
338.6850219702115
 40
1
100
AcDbArc
 50
180
 51
270
  0
LINE
  5
E3
100
AcDbEntity
  8
Sketch
  6
ByLayer
 62
  256
370
   -1
100
AcDbLine
 10
538.9277002030266
 20
337.6850219702115
 11
560.5257002030265
 21
337.6850219702115
  0
ARC
  5
E4
100
AcDbEntity
  8
Sketch
  6
ByLayer
 62
  256
370
   -1
100
AcDbCircle
 10
560.5257002030265
 20
338.6850219702115
 40
1
100
AcDbArc
 50
270
 51
0
  0
LINE
  5
E5
100
AcDbEntity
  8
Sketch
  6
ByLayer
 62
  256
370
   -1
100
AcDbLine
 10
561.5257002030265
 20
400.1850219702115
 11
561.5257002030265
 21
338.6850219702115
  0
ARC
  5
E6
100
AcDbEntity
  8
Sketch
  6
ByLayer
 62
  256
370
   -1
100
AcDbCircle
 10
560.5257002030265
 20
400.1850219702115
 40
1
100
AcDbArc
 50
359.9999999999998
 51
90
  0
LINE
  5
E7
100
AcDbEntity
  8
Sketch
  6
ByLayer
 62
  256
370
   -1
100
AcDbLine
 10
508.7257002030266
 20
401.1850219702115
 11
560.5257002030265
 21
401.1850219702115
  0
ARC
  5
E8
100
AcDbEntity
  8
Sketch
  6
ByLayer
 62
  256
370
   -1
100
AcDbCircle
 10
508.7257002030266
 20
400.1850219702115
 40
1
100
AcDbArc
 50
90
 51
180
  0
LINE
  5
E9
100
AcDbEntity
  8
Sketch
  6
ByLayer
 62
  256
370
   -1
100
AcDbLine
 10
507.7257002030266
 20
338.6850219702115
 11
507.7257002030266
 21
400.1850219702115
  0
ARC
  5
EA
100
AcDbEntity
  8
Sketch
  6
ByLayer
 62
  256
370
   -1
100
AcDbCircle
 10
508.7257002030266
 20
338.6850219702115
 40
1
100
AcDbArc
 50
180
 51
270
  0
LINE
  5
EB
100
AcDbEntity
  8
Sketch
  6
ByLayer
 62
  256
370
   -1
100
AcDbLine
 10
508.7257002030266
 20
337.6850219702115
 11
530.3237002030265
 21
337.6850219702115
  0
ARC
  5
EC
100
AcDbEntity
  8
Sketch
  6
ByLayer
 62
  256
370
   -1
100
AcDbCircle
 10
530.3237002030265
 20
338.6850219702115
 40
1
100
AcDbArc
 50
270
 51
0
  0
LINE
  5
ED
100
AcDbEntity
  8
Sketch
  6
ByLayer
 62
  256
370
   -1
100
AcDbLine
 10
531.3237002030265
 20
350.3850219702115
 11
531.3237002030265
 21
338.6850219702115
  0
ARC
  5
EE
100
AcDbEntity
  8
Sketch
  6
ByLayer
 62
  256
370
   -1
100
AcDbCircle
 10
534.6257002030266
 20
350.3850219702115
 40
3.302
100
AcDbArc
 50
0
 51
180
  0
CIRCLE
  5
EF
100
AcDbEntity
  8
Sketch
  6
ByLayer
 62
  256
370
   -1
100
AcDbCircle
 10
521.1905002030265
 20
394.8350219702115
 40
1.8288
  0
CIRCLE
  5
F0
100
AcDbEntity
  8
Sketch
  6
ByLayer
 62
  256
370
   -1
100
AcDbCircle
 10
548.0609002030266
 20
394.8350219702115
 40
1.8288
  0
LINE
  5
F1
100
AcDbEntity
  8
Sketch
  6
ByLayer
 62
  256
370
   -1
100
AcDbLine
 10
257.1233671096967
 20
236.1281386142103
 11
336.6233671096967
 21
236.1281386142103
  0
ARC
  5
F2
100
AcDbEntity
  8
Sketch
  6
ByLayer
 62
  256
370
   -1
100
AcDbCircle
 10
336.6233671096967
 20
237.1281386142103
 40
1
100
AcDbArc
 50
270
 51
0
  0
LINE
  5
F3
100
AcDbEntity
  8
Sketch
  6
ByLayer
 62
  256
370
   -1
100
AcDbLine
 10
337.6233671096967
 20
237.1281386142103
 11
337.6233671096967
 21
336.2281386142103
  0
ARC
  5
F4
100
AcDbEntity
  8
Sketch
  6
ByLayer
 62
  256
370
   -1
100
AcDbCircle
 10
336.6233671096967
 20
336.2281386142103
 40
1
100
AcDbArc
 50
0
 51
90
  0
LINE
  5
F5
100
AcDbEntity
  8
Sketch
  6
ByLayer
 62
  256
370
   -1
100
AcDbLine
 10
336.6233671096967
 20
337.2281386142103
 11
6.62336710969675
 21
337.2281386142103
  0
ARC
  5
F6
100
AcDbEntity
  8
Sketch
  6
ByLayer
 62
  256
370
   -1
100
AcDbCircle
 10
6.62336710969675
 20
336.2281386142103
 40
1
100
AcDbArc
 50
90
 51
180
  0
LINE
  5
F7
100
AcDbEntity
  8
Sketch
  6
ByLayer
 62
  256
370
   -1
100
AcDbLine
 10
5.62336710969675
 20
336.2281386142103
 11
5.62336710969675
 21
211.2281386142103
  0
ARC
  5
F8
100
AcDbEntity
  8
Sketch
  6
ByLayer
 62
  256
370
   -1
100
AcDbCircle
 10
6.62336710969675
 20
211.2281386142103
 40
1
100
AcDbArc
 50
180
 51
270
  0
LINE
  5
F9
100
AcDbEntity
  8
Sketch
  6
ByLayer
 62
  256
370
   -1
100
AcDbLine
 10
6.62336710969675
 20
210.2281386142103
 11
20.37136710969675
 21
210.2281386142103
  0
ARC
  5
FA
100
AcDbEntity
  8
Sketch
  6
ByLayer
 62
  256
370
   -1
100
AcDbCircle
 10
20.37136710969675
 20
211.2281386142103
 40
1
100
AcDbArc
 50
270
 51
0
  0
LINE
  5
FB
100
AcDbEntity
  8
Sketch
  6
ByLayer
 62
  256
370
   -1
100
AcDbLine
 10
21.37136710969675
 20
222.9281386142103
 11
21.37136710969675
 21
211.2281386142103
  0
ARC
  5
FC
100
AcDbEntity
  8
Sketch
  6
ByLayer
 62
  256
370
   -1
100
AcDbCircle
 10
24.67336710969675
 20
222.9281386142103
 40
3.302
100
AcDbArc
 50
0
 51
180
  0
LINE
  5
FD
100
AcDbEntity
  8
Sketch
  6
ByLayer
 62
  256
370
   -1
100
AcDbLine
 10
27.97536710969675
 20
222.9281386142103
 11
27.97536710969675
 21
211.2281386142103
  0
ARC
  5
FE
100
AcDbEntity
  8
Sketch
  6
ByLayer
 62
  256
370
   -1
100
AcDbCircle
 10
28.97536710969675
 20
211.2281386142103
 40
1
100
AcDbArc
 50
180
 51
270
  0
LINE
  5
FF
100
AcDbEntity
  8
Sketch
  6
ByLayer
 62
  256
370
   -1
100
AcDbLine
 10
28.97536710969675
 20
210.2281386142103
 11
126.5713671096967
 21
210.2281386142103
  0
ARC
  5
100
100
AcDbEntity
  8
Sketch
  6
ByLayer
 62
  256
370
   -1
100
AcDbCircle
 10
126.5713671096967
 20
211.2281386142103
 40
1
100
AcDbArc
 50
270
 51
0
  0
LINE
  5
101
100
AcDbEntity
  8
Sketch
  6
ByLayer
 62
  256
370
   -1
100
AcDbLine
 10
127.5713671096967
 20
222.9281386142103
 11
127.5713671096967
 21
211.2281386142103
  0
ARC
  5
102
100
AcDbEntity
  8
Sketch
  6
ByLayer
 62
  256
370
   -1
100
AcDbCircle
 10
130.8733671096967
 20
222.9281386142103
 40
3.302
100
AcDbArc
 50
359.9999999999996
 51
180
  0
LINE
  5
103
100
AcDbEntity
  8
Sketch
  6
ByLayer
 62
  256
370
   -1
100
AcDbLine
 10
134.1753671096967
 20
222.9281386142103
 11
134.1753671096967
 21
211.2281386142103
  0
ARC
  5
104
100
AcDbEntity
  8
Sketch
  6
ByLayer
 62
  256
370
   -1
100
AcDbCircle
 10
135.1753671096967
 20
211.2281386142103
 40
1
100
AcDbArc
 50
180
 51
270
  0
LINE
  5
105
100
AcDbEntity
  8
Sketch
  6
ByLayer
 62
  256
370
   -1
100
AcDbLine
 10
135.1753671096967
 20
210.2281386142103
 11
232.7713671096967
 21
210.2281386142103
  0
ARC
  5
106
100
AcDbEntity
  8
Sketch
  6
ByLayer
 62
  256
370
   -1
100
AcDbCircle
 10
232.7713671096967
 20
211.2281386142103
 40
1
100
AcDbArc
 50
270
 51
5.088887490341627e-14
  0
LINE
  5
107
100
AcDbEntity
  8
Sketch
  6
ByLayer
 62
  256
370
   -1
100
AcDbLine
 10
233.7713671096967
 20
222.9281386142103
 11
233.7713671096967
 21
211.2281386142103
  0
ARC
  5
108
100
AcDbEntity
  8
Sketch
  6
ByLayer
 62
  256
370
   -1
100
AcDbCircle
 10
237.0733671096967
 20
222.9281386142103
 40
3.302
100
AcDbArc
 50
5.088887490341627e-14
 51
180
  0
LINE
  5
109
100
AcDbEntity
  8
Sketch
  6
ByLayer
 62
  256
370
   -1
100
AcDbLine
 10
240.3753671096968
 20
222.9281386142103
 11
240.3753671096968
 21
211.2281386142103
  0
ARC
  5
10A
100
AcDbEntity
  8
Sketch
  6
ByLayer
 62
  256
370
   -1
100
AcDbCircle
 10
241.3753671096968
 20
211.2281386142103
 40
1
100
AcDbArc
 50
180
 51
270
  0
LINE
  5
10B
100
AcDbEntity
  8
Sketch
  6
ByLayer
 62
  256
370
   -1
100
AcDbLine
 10
241.3753671096968
 20
210.2281386142103
 11
255.1233671096967
 21
210.2281386142103
  0
ARC
  5
10C
100
AcDbEntity
  8
Sketch
  6
ByLayer
 62
  256
370
   -1
100
AcDbCircle
 10
255.1233671096967
 20
211.2281386142103
 40
1
100
AcDbArc
 50
270
 51
0
  0
LINE
  5
10D
100
AcDbEntity
  8
Sketch
  6
ByLayer
 62
  256
370
   -1
100
AcDbLine
 10
256.1233671096967
 20
211.2281386142103
 11
256.1233671096967
 21
235.1281386142103
  0
ARC
  5
10E
100
AcDbEntity
  8
Sketch
  6
ByLayer
 62
  256
370
   -1
100
AcDbCircle
 10
257.1233671096967
 20
235.1281386142103
 40
1
100
AcDbArc
 50
90
 51
180
  0
LINE
  5
10F
100
AcDbEntity
  8
Sketch
  6
ByLayer
 62
  256
370
   -1
100
AcDbLine
 10
257.4986769338232
 20
107.6579776201426
 11
336.9986769338232
 21
107.6579776201426
  0
ARC
  5
110
100
AcDbEntity
  8
Sketch
  6
ByLayer
 62
  256
370
   -1
100
AcDbCircle
 10
336.9986769338232
 20
108.6579776201426
 40
1
100
AcDbArc
 50
270
 51
0
  0
LINE
  5
111
100
AcDbEntity
  8
Sketch
  6
ByLayer
 62
  256
370
   -1
100
AcDbLine
 10
337.9986769338232
 20
108.6579776201426
 11
337.9986769338232
 21
207.7579776201426
  0
ARC
  5
112
100
AcDbEntity
  8
Sketch
  6
ByLayer
 62
  256
370
   -1
100
AcDbCircle
 10
336.9986769338232
 20
207.7579776201426
 40
1
100
AcDbArc
 50
0
 51
90
  0
LINE
  5
113
100
AcDbEntity
  8
Sketch
  6
ByLayer
 62
  256
370
   -1
100
AcDbLine
 10
336.9986769338232
 20
208.7579776201426
 11
6.998676933823206
 21
208.7579776201426
  0
ARC
  5
114
100
AcDbEntity
  8
Sketch
  6
ByLayer
 62
  256
370
   -1
100
AcDbCircle
 10
6.998676933823206
 20
207.7579776201426
 40
1
100
AcDbArc
 50
90
 51
180
  0
LINE
  5
115
100
AcDbEntity
  8
Sketch
  6
ByLayer
 62
  256
370
   -1
100
AcDbLine
 10
5.998676933823206
 20
207.7579776201426
 11
5.998676933823206
 21
82.75797762014261
  0
ARC
  5
116
100
AcDbEntity
  8
Sketch
  6
ByLayer
 62
  256
370
   -1
100
AcDbCircle
 10
6.998676933823206
 20
82.75797762014261
 40
1
100
AcDbArc
 50
180
 51
270
  0
LINE
  5
117
100
AcDbEntity
  8
Sketch
  6
ByLayer
 62
  256
370
   -1
100
AcDbLine
 10
6.998676933823206
 20
81.75797762014261
 11
20.74667693382321
 21
81.75797762014261
  0
ARC
  5
118
100
AcDbEntity
  8
Sketch
  6
ByLayer
 62
  256
370
   -1
100
AcDbCircle
 10
20.74667693382321
 20
82.75797762014261
 40
1
100
AcDbArc
 50
270
 51
0
  0
LINE
  5
119
100
AcDbEntity
  8
Sketch
  6
ByLayer
 62
  256
370
   -1
100
AcDbLine
 10
21.74667693382321
 20
94.4579776201426
 11
21.74667693382321
 21
82.75797762014261
  0
ARC
  5
11A
100
AcDbEntity
  8
Sketch
  6
ByLayer
 62
  256
370
   -1
100
AcDbCircle
 10
25.04867693382321
 20
94.4579776201426
 40
3.302
100
AcDbArc
 50
0
 51
180
  0
LINE
  5
11B
100
AcDbEntity
  8
Sketch
  6
ByLayer
 62
  256
370
   -1
100
AcDbLine
 10
28.35067693382321
 20
94.4579776201426
 11
28.35067693382321
 21
82.75797762014261
  0
ARC
  5
11C
100
AcDbEntity
  8
Sketch
  6
ByLayer
 62
  256
370
   -1
100
AcDbCircle
 10
29.35067693382321
 20
82.75797762014261
 40
1
100
AcDbArc
 50
180
 51
270
  0
LINE
  5
11D
100
AcDbEntity
  8
Sketch
  6
ByLayer
 62
  256
370
   -1
100
AcDbLine
 10
29.35067693382321
 20
81.75797762014261
 11
126.9466769338232
 21
81.75797762014261
  0
ARC
  5
11E
100
AcDbEntity
  8
Sketch
  6
ByLayer
 62
  256
370
   -1
100
AcDbCircle
 10
126.9466769338232
 20
82.75797762014261
 40
1
100
AcDbArc
 50
270
 51
0
  0
LINE
  5
11F
100
AcDbEntity
  8
Sketch
  6
ByLayer
 62
  256
370
   -1
100
AcDbLine
 10
127.9466769338232
 20
94.4579776201426
 11
127.9466769338232
 21
82.75797762014261
  0
ARC
  5
120
100
AcDbEntity
  8
Sketch
  6
ByLayer
 62
  256
370
   -1
100
AcDbCircle
 10
131.2486769338232
 20
94.4579776201426
 40
3.302
100
AcDbArc
 50
359.9999999999996
 51
180
  0
LINE
  5
121
100
AcDbEntity
  8
Sketch
  6
ByLayer
 62
  256
370
   -1
100
AcDbLine
 10
134.5506769338232
 20
94.4579776201426
 11
134.5506769338232
 21
82.75797762014261
  0
ARC
  5
122
100
AcDbEntity
  8
Sketch
  6
ByLayer
 62
  256
370
   -1
100
AcDbCircle
 10
135.5506769338232
 20
82.75797762014261
 40
1
100
AcDbArc
 50
180
 51
270
  0
LINE
  5
123
100
AcDbEntity
  8
Sketch
  6
ByLayer
 62
  256
370
   -1
100
AcDbLine
 10
135.5506769338232
 20
81.75797762014261
 11
233.1466769338232
 21
81.75797762014261
  0
ARC
  5
124
100
AcDbEntity
  8
Sketch
  6
ByLayer
 62
  256
370
   -1
100
AcDbCircle
 10
233.1466769338232
 20
82.75797762014261
 40
1
100
AcDbArc
 50
270
 51
5.088887490341627e-14
  0
LINE
  5
125
100
AcDbEntity
  8
Sketch
  6
ByLayer
 62
  256
370
   -1
100
AcDbLine
 10
234.1466769338232
 20
94.4579776201426
 11
234.1466769338232
 21
82.75797762014261
  0
ARC
  5
126
100
AcDbEntity
  8
Sketch
  6
ByLayer
 62
  256
370
   -1
100
AcDbCircle
 10
237.4486769338232
 20
94.4579776201426
 40
3.302
100
AcDbArc
 50
5.088887490341627e-14
 51
180
  0
LINE
  5
127
100
AcDbEntity
  8
Sketch
  6
ByLayer
 62
  256
370
   -1
100
AcDbLine
 10
240.7506769338232
 20
94.4579776201426
 11
240.7506769338232
 21
82.75797762014261
  0
ARC
  5
128
100
AcDbEntity
  8
Sketch
  6
ByLayer
 62
  256
370
   -1
100
AcDbCircle
 10
241.7506769338232
 20
82.75797762014261
 40
1
100
AcDbArc
 50
180
 51
270
  0
LINE
  5
129
100
AcDbEntity
  8
Sketch
  6
ByLayer
 62
  256
370
   -1
100
AcDbLine
 10
241.7506769338232
 20
81.75797762014261
 11
255.4986769338232
 21
81.75797762014261
  0
ARC
  5
12A
100
AcDbEntity
  8
Sketch
  6
ByLayer
 62
  256
370
   -1
100
AcDbCircle
 10
255.4986769338232
 20
82.75797762014261
 40
1
100
AcDbArc
 50
270
 51
0
  0
LINE
  5
12B
100
AcDbEntity
  8
Sketch
  6
ByLayer
 62
  256
370
   -1
100
AcDbLine
 10
256.4986769338232
 20
82.75797762014261
 11
256.4986769338232
 21
106.6579776201426
  0
ARC
  5
12C
100
AcDbEntity
  8
Sketch
  6
ByLayer
 62
  256
370
   -1
100
AcDbCircle
 10
257.4986769338232
 20
106.6579776201426
 40
1
100
AcDbArc
 50
90
 51
180
  0
LINE
  5
12D
100
AcDbEntity
  8
Sketch
  6
ByLayer
 62
  256
370
   -1
100
AcDbLine
 10
439.1690746096993
 20
234.9118328642113
 11
459.2690746096993
 21
234.9118328642113
  0
ARC
  5
12E
100
AcDbEntity
  8
Sketch
  6
ByLayer
 62
  256
370
   -1
100
AcDbCircle
 10
459.2690746096993
 20
235.9118328642113
 40
1
100
AcDbArc
 50
270
 51
0
  0
LINE
  5
12F
100
AcDbEntity
  8
Sketch
  6
ByLayer
 62
  256
370
   -1
100
AcDbLine
 10
460.2690746096993
 20
235.9118328642113
 11
460.2690746096993
 21
335.0118328642113
  0
ARC
  5
130
100
AcDbEntity
  8
Sketch
  6
ByLayer
 62
  256
370
   -1
100
AcDbCircle
 10
459.2690746096993
 20
335.0118328642113
 40
1
100
AcDbArc
 50
359.9999999999658
 51
90
  0
LINE
  5
131
100
AcDbEntity
  8
Sketch
  6
ByLayer
 62
  256
370
   -1
100
AcDbLine
 10
459.2690746096993
 20
336.0118328642113
 11
341.0690746096993
 21
336.0118328642113
  0
ARC
  5
132
100
AcDbEntity
  8
Sketch
  6
ByLayer
 62
  256
370
   -1
100
AcDbCircle
 10
341.0690746096993
 20
335.0118328642113
 40
1
100
AcDbArc
 50
90
 51
180
  0
LINE
  5
133
100
AcDbEntity
  8
Sketch
  6
ByLayer
 62
  256
370
   -1
100
AcDbLine
 10
340.0690746096993
 20
335.0118328642113
 11
340.0690746096993
 21
210.0118328642113
  0
ARC
  5
134
100
AcDbEntity
  8
Sketch
  6
ByLayer
 62
  256
370
   -1
100
AcDbCircle
 10
341.0690746096993
 20
210.0118328642113
 40
1
100
AcDbArc
 50
180
 51
270
  0
LINE
  5
135
100
AcDbEntity
  8
Sketch
  6
ByLayer
 62
  256
370
   -1
100
AcDbLine
 10
341.0690746096993
 20
209.0118328642113
 11
354.8170746096993
 21
209.0118328642113
  0
ARC
  5
136
100
AcDbEntity
  8
Sketch
  6
ByLayer
 62
  256
370
   -1
100
AcDbCircle
 10
354.8170746096993
 20
210.0118328642113
 40
1
100
AcDbArc
 50
270
 51
0
  0
LINE
  5
137
100
AcDbEntity
  8
Sketch
  6
ByLayer
 62
  256
370
   -1
100
AcDbLine
 10
355.8170746096993
 20
221.7118328642113
 11
355.8170746096993
 21
210.0118328642113
  0
ARC
  5
138
100
AcDbEntity
  8
Sketch
  6
ByLayer
 62
  256
370
   -1
100
AcDbCircle
 10
359.1190746096993
 20
221.7118328642113
 40
3.302
100
AcDbArc
 50
0
 51
180
  0
LINE
  5
139
100
AcDbEntity
  8
Sketch
  6
ByLayer
 62
  256
370
   -1
100
AcDbLine
 10
362.4210746096993
 20
221.7118328642113
 11
362.4210746096993
 21
210.0118328642113
  0
ARC
  5
13A
100
AcDbEntity
  8
Sketch
  6
ByLayer
 62
  256
370
   -1
100
AcDbCircle
 10
363.4210746096993
 20
210.0118328642113
 40
1
100
AcDbArc
 50
180
 51
270
  0
LINE
  5
13B
100
AcDbEntity
  8
Sketch
  6
ByLayer
 62
  256
370
   -1
100
AcDbLine
 10
363.4210746096993
 20
209.0118328642113
 11
414.8170746096993
 21
209.0118328642113
  0
ARC
  5
13C
100
AcDbEntity
  8
Sketch
  6
ByLayer
 62
  256
370
   -1
100
AcDbCircle
 10
414.8170746096993
 20
210.0118328642113
 40
1
100
AcDbArc
 50
270
 51
0
  0
LINE
  5
13D
100
AcDbEntity
  8
Sketch
  6
ByLayer
 62
  256
370
   -1
100
AcDbLine
 10
415.8170746096993
 20
221.7118328642113
 11
415.8170746096993
 21
210.0118328642113
  0
ARC
  5
13E
100
AcDbEntity
  8
Sketch
  6
ByLayer
 62
  256
370
   -1
100
AcDbCircle
 10
419.1190746096993
 20
221.7118328642113
 40
3.302
100
AcDbArc
 50
359.9999999999999
 51
180
  0
LINE
  5
13F
100
AcDbEntity
  8
Sketch
  6
ByLayer
 62
  256
370
   -1
100
AcDbLine
 10
422.4210746096994
 20
221.7118328642113
 11
422.4210746096994
 21
210.0118328642113
  0
ARC
  5
140
100
AcDbEntity
  8
Sketch
  6
ByLayer
 62
  256
370
   -1
100
AcDbCircle
 10
423.4210746096994
 20
210.0118328642113
 40
1
100
AcDbArc
 50
180
 51
270
  0
LINE
  5
141
100
AcDbEntity
  8
Sketch
  6
ByLayer
 62
  256
370
   -1
100
AcDbLine
 10
423.4210746096994
 20
209.0118328642113
 11
437.1690746096993
 21
209.0118328642113
  0
ARC
  5
142
100
AcDbEntity
  8
Sketch
  6
ByLayer
 62
  256
370
   -1
100
AcDbCircle
 10
437.1690746096993
 20
210.0118328642113
 40
1
100
AcDbArc
 50
270
 51
0
  0
LINE
  5
143
100
AcDbEntity
  8
Sketch
  6
ByLayer
 62
  256
370
   -1
100
AcDbLine
 10
438.1690746096993
 20
210.0118328642113
 11
438.1690746096993
 21
233.9118328642113
  0
ARC
  5
144
100
AcDbEntity
  8
Sketch
  6
ByLayer
 62
  256
370
   -1
100
AcDbCircle
 10
439.1690746096993
 20
233.9118328642113
 40
1
100
AcDbArc
 50
90
 51
180
  0
CIRCLE
  5
145
100
AcDbEntity
  8
Sketch
  6
ByLayer
 62
  256
370
   -1
100
AcDbCircle
 10
350.5290746096993
 20
329.6618328642113
 40
1.8288
  0
LINE
  5
146
100
AcDbEntity
  8
Sketch
  6
ByLayer
 62
  256
370
   -1
100
AcDbLine
 10
439.4395588423291
 20
106.1886584031286
 11
459.5395588423291
 21
106.1886584031286
  0
ARC
  5
147
100
AcDbEntity
  8
Sketch
  6
ByLayer
 62
  256
370
   -1
100
AcDbCircle
 10
459.5395588423291
 20
107.1886584031286
 40
1
100
AcDbArc
 50
270
 51
0
  0
LINE
  5
148
100
AcDbEntity
  8
Sketch
  6
ByLayer
 62
  256
370
   -1
100
AcDbLine
 10
460.5395588423291
 20
107.1886584031286
 11
460.5395588423291
 21
206.2886584031286
  0
ARC
  5
149
100
AcDbEntity
  8
Sketch
  6
ByLayer
 62
  256
370
   -1
100
AcDbCircle
 10
459.5395588423291
 20
206.2886584031286
 40
1
100
AcDbArc
 50
359.9999999999658
 51
90
  0
LINE
  5
14A
100
AcDbEntity
  8
Sketch
  6
ByLayer
 62
  256
370
   -1
100
AcDbLine
 10
459.5395588423291
 20
207.2886584031286
 11
341.3395588423291
 21
207.2886584031286
  0
ARC
  5
14B
100
AcDbEntity
  8
Sketch
  6
ByLayer
 62
  256
370
   -1
100
AcDbCircle
 10
341.3395588423291
 20
206.2886584031286
 40
1
100
AcDbArc
 50
90
 51
180
  0
LINE
  5
14C
100
AcDbEntity
  8
Sketch
  6
ByLayer
 62
  256
370
   -1
100
AcDbLine
 10
340.3395588423291
 20
206.2886584031286
 11
340.3395588423291
 21
81.28865840312855
  0
ARC
  5
14D
100
AcDbEntity
  8
Sketch
  6
ByLayer
 62
  256
370
   -1
100
AcDbCircle
 10
341.3395588423291
 20
81.28865840312855
 40
1
100
AcDbArc
 50
180
 51
270
  0
LINE
  5
14E
100
AcDbEntity
  8
Sketch
  6
ByLayer
 62
  256
370
   -1
100
AcDbLine
 10
341.3395588423291
 20
80.28865840312855
 11
355.0875588423291
 21
80.28865840312855
  0
ARC
  5
14F
100
AcDbEntity
  8
Sketch
  6
ByLayer
 62
  256
370
   -1
100
AcDbCircle
 10
355.0875588423291
 20
81.28865840312855
 40
1
100
AcDbArc
 50
270
 51
0
  0
LINE
  5
150
100
AcDbEntity
  8
Sketch
  6
ByLayer
 62
  256
370
   -1
100
AcDbLine
 10
356.0875588423291
 20
92.98865840312855
 11
356.0875588423291
 21
81.28865840312855
  0
ARC
  5
151
100
AcDbEntity
  8
Sketch
  6
ByLayer
 62
  256
370
   -1
100
AcDbCircle
 10
359.3895588423291
 20
92.98865840312855
 40
3.302
100
AcDbArc
 50
0
 51
180
  0
LINE
  5
152
100
AcDbEntity
  8
Sketch
  6
ByLayer
 62
  256
370
   -1
100
AcDbLine
 10
362.6915588423291
 20
92.98865840312855
 11
362.6915588423291
 21
81.28865840312855
  0
ARC
  5
153
100
AcDbEntity
  8
Sketch
  6
ByLayer
 62
  256
370
   -1
100
AcDbCircle
 10
363.6915588423291
 20
81.28865840312855
 40
1
100
AcDbArc
 50
180
 51
270
  0
LINE
  5
154
100
AcDbEntity
  8
Sketch
  6
ByLayer
 62
  256
370
   -1
100
AcDbLine
 10
363.6915588423291
 20
80.28865840312855
 11
415.0875588423291
 21
80.28865840312855
  0
ARC
  5
155
100
AcDbEntity
  8
Sketch
  6
ByLayer
 62
  256
370
   -1
100
AcDbCircle
 10
415.0875588423291
 20
81.28865840312855
 40
1
100
AcDbArc
 50
270
 51
0
  0
LINE
  5
156
100
AcDbEntity
  8
Sketch
  6
ByLayer
 62
  256
370
   -1
100
AcDbLine
 10
416.0875588423291
 20
92.98865840312855
 11
416.0875588423291
 21
81.28865840312855
  0
ARC
  5
157
100
AcDbEntity
  8
Sketch
  6
ByLayer
 62
  256
370
   -1
100
AcDbCircle
 10
419.3895588423291
 20
92.98865840312855
 40
3.302
100
AcDbArc
 50
359.9999999999999
 51
180
  0
LINE
  5
158
100
AcDbEntity
  8
Sketch
  6
ByLayer
 62
  256
370
   -1
100
AcDbLine
 10
422.6915588423291
 20
92.98865840312855
 11
422.6915588423291
 21
81.28865840312855
  0
ARC
  5
159
100
AcDbEntity
  8
Sketch
  6
ByLayer
 62
  256
370
   -1
100
AcDbCircle
 10
423.6915588423291
 20
81.28865840312855
 40
1
100
AcDbArc
 50
180
 51
270
  0
LINE
  5
15A
100
AcDbEntity
  8
Sketch
  6
ByLayer
 62
  256
370
   -1
100
AcDbLine
 10
423.6915588423291
 20
80.28865840312855
 11
437.4395588423291
 21
80.28865840312855
  0
ARC
  5
15B
100
AcDbEntity
  8
Sketch
  6
ByLayer
 62
  256
370
   -1
100
AcDbCircle
 10
437.4395588423291
 20
81.28865840312855
 40
1
100
AcDbArc
 50
270
 51
0
  0
LINE
  5
15C
100
AcDbEntity
  8
Sketch
  6
ByLayer
 62
  256
370
   -1
100
AcDbLine
 10
438.4395588423291
 20
81.28865840312855
 11
438.4395588423291
 21
105.1886584031286
  0
ARC
  5
15D
100
AcDbEntity
  8
Sketch
  6
ByLayer
 62
  256
370
   -1
100
AcDbCircle
 10
439.4395588423291
 20
105.1886584031286
 40
1
100
AcDbArc
 50
90
 51
180
  0
CIRCLE
  5
15E
100
AcDbEntity
  8
Sketch
  6
ByLayer
 62
  256
370
   -1
100
AcDbCircle
 10
350.7995588423291
 20
200.9386584031286
 40
1.8288
  0
LINE
  5
15F
100
AcDbEntity
  8
Sketch
  6
ByLayer
 62
  256
370
   -1
100
AcDbLine
 10
567.6318973569511
 20
246.5956094714619
 11
567.6318973569511
 21
229.587009471462
  0
LINE
  5
160
100
AcDbEntity
  8
Sketch
  6
ByLayer
 62
  256
370
   -1
100
AcDbLine
 10
567.6318973569511
 20
246.5956094714619
 11
567.6318973569511
 21
294.895609471462
  0
ARC
  5
161
100
AcDbEntity
  8
Sketch
  6
ByLayer
 62
  256
370
   -1
100
AcDbCircle
 10
566.1318973569511
 20
294.895609471462
 40
1.5
100
AcDbArc
 50
0
 51
89.99999999999999
  0
LINE
  5
162
100
AcDbEntity
  8
Sketch
  6
ByLayer
 62
  256
370
   -1
100
AcDbLine
 10
566.1318973569511
 20
296.395609471462
 11
531.031897356951
 21
296.395609471462
  0
ARC
  5
163
100
AcDbEntity
  8
Sketch
  6
ByLayer
 62
  256
370
   -1
100
AcDbCircle
 10
531.031897356951
 20
297.895609471462
 40
1.5
100
AcDbArc
 50
180
 51
270
  0
LINE
  5
164
100
AcDbEntity
  8
Sketch
  6
ByLayer
 62
  256
370
   -1
100
AcDbLine
 10
529.531897356951
 20
297.895609471462
 11
529.531897356951
 21
332.995609471462
  0
ARC
  5
165
100
AcDbEntity
  8
Sketch
  6
ByLayer
 62
  256
370
   -1
100
AcDbCircle
 10
528.031897356951
 20
332.995609471462
 40
1.5
100
AcDbArc
 50
0
 51
90
  0
LINE
  5
166
100
AcDbEntity
  8
Sketch
  6
ByLayer
 62
  256
370
   -1
100
AcDbLine
 10
528.031897356951
 20
334.495609471462
 11
467.5318973569512
 21
334.495609471462
  0
ARC
  5
167
100
AcDbEntity
  8
Sketch
  6
ByLayer
 62
  256
370
   -1
100
AcDbCircle
 10
467.5318973569512
 20
332.995609471462
 40
1.5
100
AcDbArc
 50
90
 51
180
  0
LINE
  5
168
100
AcDbEntity
  8
Sketch
  6
ByLayer
 62
  256
370
   -1
100
AcDbLine
 10
466.0318973569512
 20
332.995609471462
 11
466.0318973569511
 21
294.895609471462
  0
LINE
  5
169
100
AcDbEntity
  8
Sketch
  6
ByLayer
 62
  256
370
   -1
100
AcDbLine
 10
466.0318973569511
 20
294.895609471462
 11
466.0318973569511
 21
247.616209471462
  0
ARC
  5
16A
100
AcDbEntity
  8
Sketch
  6
ByLayer
 62
  256
370
   -1
100
AcDbCircle
 10
467.5318973569511
 20
247.616209471462
 40
1.5
100
AcDbArc
 50
180
 51
248.464
  0
LINE
  5
16B
100
AcDbEntity
  8
Sketch
  6
ByLayer
 62
  256
370
   -1
100
AcDbLine
 10
549.6001973569511
 20
213.6163594714619
 11
466.9808973569512
 21
246.220909471462
  0
ARC
  5
16C
100
AcDbEntity
  8
Sketch
  6
ByLayer
 62
  256
370
   -1
100
AcDbCircle
 10
548.1318973569511
 20
209.895609471462
 40
4
100
AcDbArc
 50
0
 51
68.4639
  0
ARC
  5
16D
100
AcDbEntity
  8
Sketch
  6
ByLayer
 62
  256
370
   -1
100
AcDbCircle
 10
568.1318973569511
 20
209.895609471462
 40
16
100
AcDbArc
 50
180
 51
79.9213
  0
ARC
  5
16E
100
AcDbEntity
  8
Sketch
  6
ByLayer
 62
  256
370
   -1
100
AcDbCircle
 10
571.6318973569511
 20
229.587009471462
 40
4
100
AcDbArc
 50
180
 51
259.921
  0
CIRCLE
  5
16F
100
AcDbEntity
  8
Sketch
  6
ByLayer
 62
  256
370
   -1
100
AcDbCircle
 10
560.1318973569511
 20
201.895609471462
 40
2.15
  0
CIRCLE
  5
170
100
AcDbEntity
  8
Sketch
  6
ByLayer
 62
  256
370
   -1
100
AcDbCircle
 10
560.1318973569511
 20
217.895609471462
 40
2.15
  0
CIRCLE
  5
171
100
AcDbEntity
  8
Sketch
  6
ByLayer
 62
  256
370
   -1
100
AcDbCircle
 10
576.1318973569511
 20
201.895609471462
 40
2.15
  0
CIRCLE
  5
172
100
AcDbEntity
  8
Sketch
  6
ByLayer
 62
  256
370
   -1
100
AcDbCircle
 10
576.1318973569511
 20
217.895609471462
 40
2.15
  0
CIRCLE
  5
173
100
AcDbEntity
  8
Sketch
  6
ByLayer
 62
  256
370
   -1
100
AcDbCircle
 10
568.1318973569511
 20
209.895609471462
 40
5
  0
LINE
  5
174
100
AcDbEntity
  8
Sketch
  6
ByLayer
 62
  256
370
   -1
100
AcDbLine
 10
570.8208352877011
 20
125.7950726122105
 11
570.8208352877011
 21
108.7864726122106
  0
LINE
  5
175
100
AcDbEntity
  8
Sketch
  6
ByLayer
 62
  256
370
   -1
100
AcDbLine
 10
570.8208352877011
 20
125.7950726122105
 11
570.8208352877011
 21
174.0950726122105
  0
ARC
  5
176
100
AcDbEntity
  8
Sketch
  6
ByLayer
 62
  256
370
   -1
100
AcDbCircle
 10
569.3208352877011
 20
174.0950726122105
 40
1.5
100
AcDbArc
 50
0
 51
89.99999999999999
  0
LINE
  5
177
100
AcDbEntity
  8
Sketch
  6
ByLayer
 62
  256
370
   -1
100
AcDbLine
 10
569.3208352877011
 20
175.5950726122105
 11
534.2208352877012
 21
175.5950726122105
  0
ARC
  5
178
100
AcDbEntity
  8
Sketch
  6
ByLayer
 62
  256
370
   -1
100
AcDbCircle
 10
534.2208352877012
 20
177.0950726122105
 40
1.5
100
AcDbArc
 50
180
 51
270
  0
LINE
  5
179
100
AcDbEntity
  8
Sketch
  6
ByLayer
 62
  256
370
   -1
100
AcDbLine
 10
532.7208352877012
 20
177.0950726122105
 11
532.7208352877012
 21
212.1950726122106
  0
ARC
  5
17A
100
AcDbEntity
  8
Sketch
  6
ByLayer
 62
  256
370
   -1
100
AcDbCircle
 10
531.2208352877012
 20
212.1950726122106
 40
1.5
100
AcDbArc
 50
0
 51
90
  0
LINE
  5
17B
100
AcDbEntity
  8
Sketch
  6
ByLayer
 62
  256
370
   -1
100
AcDbLine
 10
531.2208352877012
 20
213.6950726122106
 11
470.7208352877013
 21
213.6950726122106
  0
ARC
  5
17C
100
AcDbEntity
  8
Sketch
  6
ByLayer
 62
  256
370
   -1
100
AcDbCircle
 10
470.7208352877013
 20
212.1950726122106
 40
1.5
100
AcDbArc
 50
90
 51
180
  0
LINE
  5
17D
100
AcDbEntity
  8
Sketch
  6
ByLayer
 62
  256
370
   -1
100
AcDbLine
 10
469.2208352877013
 20
212.1950726122106
 11
469.2208352877012
 21
174.0950726122105
  0
LINE
  5
17E
100
AcDbEntity
  8
Sketch
  6
ByLayer
 62
  256
370
   -1
100
AcDbLine
 10
469.2208352877012
 20
174.0950726122105
 11
469.2208352877012
 21
126.8156726122106
  0
ARC
  5
17F
100
AcDbEntity
  8
Sketch
  6
ByLayer
 62
  256
370
   -1
100
AcDbCircle
 10
470.7208352877012
 20
126.8156726122106
 40
1.5
100
AcDbArc
 50
180
 51
248.464
  0
LINE
  5
180
100
AcDbEntity
  8
Sketch
  6
ByLayer
 62
  256
370
   -1
100
AcDbLine
 10
552.7891352877011
 20
92.81582261221052
 11
470.1698352877013
 21
125.4203726122105
  0
ARC
  5
181
100
AcDbEntity
  8
Sketch
  6
ByLayer
 62
  256
370
   -1
100
AcDbCircle
 10
551.3208352877011
 20
89.09507261221057
 40
4
100
AcDbArc
 50
0
 51
68.4639
  0
ARC
  5
182
100
AcDbEntity
  8
Sketch
  6
ByLayer
 62
  256
370
   -1
100
AcDbCircle
 10
571.3208352877011
 20
89.09507261221057
 40
16
100
AcDbArc
 50
180
 51
79.9213
  0
ARC
  5
183
100
AcDbEntity
  8
Sketch
  6
ByLayer
 62
  256
370
   -1
100
AcDbCircle
 10
574.8208352877011
 20
108.7864726122106
 40
4
100
AcDbArc
 50
180
 51
259.921
  0
CIRCLE
  5
184
100
AcDbEntity
  8
Sketch
  6
ByLayer
 62
  256
370
   -1
100
AcDbCircle
 10
563.3208352877011
 20
81.09507261221057
 40
2.15
  0
CIRCLE
  5
185
100
AcDbEntity
  8
Sketch
  6
ByLayer
 62
  256
370
   -1
100
AcDbCircle
 10
563.3208352877011
 20
97.09507261221057
 40
2.15
  0
CIRCLE
  5
186
100
AcDbEntity
  8
Sketch
  6
ByLayer
 62
  256
370
   -1
100
AcDbCircle
 10
579.3208352877011
 20
81.09507261221057
 40
2.15
  0
CIRCLE
  5
187
100
AcDbEntity
  8
Sketch
  6
ByLayer
 62
  256
370
   -1
100
AcDbCircle
 10
579.3208352877011
 20
97.09507261221057
 40
2.15
  0
CIRCLE
  5
188
100
AcDbEntity
  8
Sketch
  6
ByLayer
 62
  256
370
   -1
100
AcDbCircle
 10
571.3208352877011
 20
89.09507261221057
 40
5
  0
ENDSEC
  0
SECTION
  2
OBJECTS
  0
DICTIONARY
  5
C
330
0
100
AcDbDictionary
281
    1
  3
ACAD_GROUP
350
D
  0
DICTIONARY
  5
D
330
C
100
AcDbDictionary
281
    1
  0
ENDSEC
  0
EOF
