<?xml version="1.0" encoding="UTF-8" standalone="no"?>
<!-- Created with Inkscape (http://www.inkscape.org/) -->

<svg
   xmlns:dc="http://purl.org/dc/elements/1.1/"
   xmlns:cc="http://creativecommons.org/ns#"
   xmlns:rdf="http://www.w3.org/1999/02/22-rdf-syntax-ns#"
   xmlns:svg="http://www.w3.org/2000/svg"
   xmlns="http://www.w3.org/2000/svg"
   xmlns:sodipodi="http://sodipodi.sourceforge.net/DTD/sodipodi-0.dtd"
   xmlns:inkscape="http://www.inkscape.org/namespaces/inkscape"
   width="24in"
   height="18in"
   viewBox="0 0 2160 1620"
   id="svg6344"
   version="1.1"
   inkscape:version="0.91 r13725"
   sodipodi:docname="layout7.svg">
  <defs
     id="defs6346">
    <marker
       orient="auto"
       id="DistanceX"
       style="overflow:visible"
       refX="0.0"
       refY="0.0">
      <path
         id="path6359"
         d="M 3,-3 L -3,3 M 0,-5 L  0,5"
         style="stroke:#000000; stroke-width:0.5" />
    </marker>
    <pattern
       id="Hatch"
       x="0"
       y="0"
       patternUnits="userSpaceOnUse"
       width="8"
       height="8">
      <path
         id="path6362"
         d="M8 4 l-4,4"
         stroke-width="0.25"
         stroke="#000000"
         linecap="square" />
      <path
         id="path6364"
         d="M6 2 l-4,4"
         stroke-width="0.25"
         stroke="#000000"
         linecap="square" />
      <path
         id="path6366"
         d="M4 0 l-4,4"
         stroke-width="0.25"
         stroke="#000000"
         linecap="square" />
    </pattern>
    <symbol
       id="*Model_Space" />
    <symbol
       id="*Paper_Space" />
    <marker
       orient="auto"
       id="DistanceX-7"
       style="overflow:visible"
       refX="0.0"
       refY="0.0">
      <path
         id="path3380"
         d="M 3,-3 L -3,3 M 0,-5 L  0,5"
         style="stroke:#000000; stroke-width:0.5" />
    </marker>
    <pattern
       id="Hatch-4"
       x="0"
       y="0"
       patternUnits="userSpaceOnUse"
       width="8"
       height="8">
      <path
         id="path3383"
         d="M8 4 l-4,4"
         stroke-width="0.25"
         stroke="#000000"
         linecap="square" />
      <path
         id="path3385"
         d="M6 2 l-4,4"
         stroke-width="0.25"
         stroke="#000000"
         linecap="square" />
      <path
         id="path3387"
         d="M4 0 l-4,4"
         stroke-width="0.25"
         stroke="#000000"
         linecap="square" />
    </pattern>
    <symbol
       id="*Model_Space-1" />
    <symbol
       id="*Paper_Space-8" />
    <marker
       orient="auto"
       id="DistanceX-1"
       style="overflow:visible"
       refX="0.0"
       refY="0.0">
      <path
         id="path5193"
         d="M 3,-3 L -3,3 M 0,-5 L  0,5"
         style="stroke:#000000; stroke-width:0.5" />
    </marker>
    <pattern
       id="Hatch-9"
       x="0"
       y="0"
       patternUnits="userSpaceOnUse"
       width="8"
       height="8">
      <path
         id="path5196"
         d="M8 4 l-4,4"
         stroke-width="0.25"
         stroke="#000000"
         linecap="square" />
      <path
         id="path5198"
         d="M6 2 l-4,4"
         stroke-width="0.25"
         stroke="#000000"
         linecap="square" />
      <path
         id="path5200"
         d="M4 0 l-4,4"
         stroke-width="0.25"
         stroke="#000000"
         linecap="square" />
    </pattern>
    <symbol
       id="*Model_Space-2" />
    <symbol
       id="*Paper_Space-1" />
    <marker
       orient="auto"
       id="DistanceX-71"
       style="overflow:visible"
       refX="0.0"
       refY="0.0">
      <path
         id="path5922"
         d="M 3,-3 L -3,3 M 0,-5 L  0,5"
         style="stroke:#000000; stroke-width:0.5" />
    </marker>
    <pattern
       id="Hatch-2"
       x="0"
       y="0"
       patternUnits="userSpaceOnUse"
       width="8"
       height="8">
      <path
         id="path5925"
         d="M8 4 l-4,4"
         stroke-width="0.25"
         stroke="#000000"
         linecap="square" />
      <path
         id="path5927"
         d="M6 2 l-4,4"
         stroke-width="0.25"
         stroke="#000000"
         linecap="square" />
      <path
         id="path5929"
         d="M4 0 l-4,4"
         stroke-width="0.25"
         stroke="#000000"
         linecap="square" />
    </pattern>
    <symbol
       id="*Model_Space-0" />
    <symbol
       id="*Paper_Space-88" />
    <marker
       orient="auto"
       id="DistanceX-14"
       style="overflow:visible"
       refX="0.0"
       refY="0.0">
      <path
         id="path6487"
         d="M 3,-3 L -3,3 M 0,-5 L  0,5"
         style="stroke:#000000; stroke-width:0.5" />
    </marker>
    <pattern
       id="Hatch-99"
       x="0"
       y="0"
       patternUnits="userSpaceOnUse"
       width="8"
       height="8">
      <path
         id="path6490"
         d="M8 4 l-4,4"
         stroke-width="0.25"
         stroke="#000000"
         linecap="square" />
      <path
         id="path6492"
         d="M6 2 l-4,4"
         stroke-width="0.25"
         stroke="#000000"
         linecap="square" />
      <path
         id="path6494"
         d="M4 0 l-4,4"
         stroke-width="0.25"
         stroke="#000000"
         linecap="square" />
    </pattern>
    <symbol
       id="*Model_Space-14" />
    <symbol
       id="*Paper_Space-3" />
  </defs>
  <sodipodi:namedview
     id="base"
     pagecolor="#ffffff"
     bordercolor="#666666"
     borderopacity="1.0"
     inkscape:pageopacity="0.0"
     inkscape:pageshadow="2"
     inkscape:zoom="0.35"
     inkscape:cx="1470.9091"
     inkscape:cy="722.0305"
     inkscape:document-units="px"
     inkscape:current-layer="layer1"
     showgrid="false"
     units="in"
     inkscape:window-width="1600"
     inkscape:window-height="837"
     inkscape:window-x="-8"
     inkscape:window-y="-8"
     inkscape:window-maximized="1" />
  <metadata
     id="metadata6349">
    <rdf:RDF>
      <cc:Work
         rdf:about="">
        <dc:format>image/svg+xml</dc:format>
        <dc:type
           rdf:resource="http://purl.org/dc/dcmitype/StillImage" />
        <dc:title></dc:title>
      </cc:Work>
    </rdf:RDF>
  </metadata>
  <g
     inkscape:label="Layer 1"
     inkscape:groupmode="layer"
     id="layer1"
     transform="translate(0,567.63785)">
    <path
       id="path6512"
       d="m 723.50066,549.92749 406.77164,0"
       style="fill:none;stroke:#000000;stroke-linecap:round;stroke-opacity:1;stroke-width:2;stroke-miterlimit:4;stroke-dasharray:none"
       inkscape:connector-curvature="0" />
    <path
       id="path6514"
       d="m 1130.2723,549.92749 a 3.543307,3.543307 0 0 0 3.5433,-3.54331"
       style="fill:none;stroke:#000000;stroke-linecap:round;stroke-opacity:1;stroke-width:2;stroke-miterlimit:4;stroke-dasharray:none"
       inkscape:connector-curvature="0" />
    <path
       id="path6516"
       d="m 1133.8156,-536.00755 0,1082.39173"
       style="fill:none;stroke:#000000;stroke-linecap:round;stroke-opacity:1;stroke-width:2;stroke-miterlimit:4;stroke-dasharray:none"
       inkscape:connector-curvature="0" />
    <path
       id="path6518"
       d="m 1133.8156,-536.00755 a 3.543307,3.543307 0 0 0 -3.5433,-3.54331"
       style="fill:none;stroke:#000000;stroke-linecap:round;stroke-opacity:1;stroke-width:2;stroke-miterlimit:4;stroke-dasharray:none"
       inkscape:connector-curvature="0" />
    <path
       id="path6520"
       d="m 36.099078,-539.55086 1094.173222,0"
       style="fill:none;stroke:#000000;stroke-linecap:round;stroke-opacity:1;stroke-width:2;stroke-miterlimit:4;stroke-dasharray:none"
       inkscape:connector-curvature="0" />
    <path
       id="path6522"
       d="m 36.099078,-539.55086 a 3.543307,3.543307 0 0 0 -3.543307,3.54331"
       style="fill:none;stroke:#000000;stroke-linecap:round;stroke-opacity:1;stroke-width:2;stroke-miterlimit:4;stroke-dasharray:none"
       inkscape:connector-curvature="0" />
    <path
       id="path6524"
       d="m 32.555771,638.15584 0,-1174.16339"
       style="fill:none;stroke:#000000;stroke-linecap:round;stroke-opacity:1;stroke-width:2;stroke-miterlimit:4;stroke-dasharray:none"
       inkscape:connector-curvature="0" />
    <path
       id="path6526"
       d="m 32.555771,638.15584 a 3.543307,3.543307 0 0 0 3.543307,3.5433"
       style="fill:none;stroke:#000000;stroke-linecap:round;stroke-opacity:1;stroke-width:2;stroke-miterlimit:4;stroke-dasharray:none"
       inkscape:connector-curvature="0" />
    <path
       id="path6528"
       d="m 36.099078,641.69914 680.314962,0"
       style="fill:none;stroke:#000000;stroke-linecap:round;stroke-opacity:1;stroke-width:2;stroke-miterlimit:4;stroke-dasharray:none"
       inkscape:connector-curvature="0" />
    <path
       id="path6530"
       d="m 716.41404,641.69914 a 3.543307,3.543307 0 0 0 3.54331,-3.5433"
       style="fill:none;stroke:#000000;stroke-linecap:round;stroke-opacity:1;stroke-width:2;stroke-miterlimit:4;stroke-dasharray:none"
       inkscape:connector-curvature="0" />
    <path
       id="path6532"
       d="m 719.95735,638.15584 0,-84.68504"
       style="fill:none;stroke:#000000;stroke-linecap:round;stroke-opacity:1;stroke-width:2;stroke-miterlimit:4;stroke-dasharray:none"
       inkscape:connector-curvature="0" />
    <path
       id="path6534"
       d="m 723.50066,549.92749 a 3.543307,3.543307 0 0 0 -3.54331,3.54331"
       style="fill:none;stroke:#000000;stroke-linecap:round;stroke-opacity:1;stroke-width:2;stroke-miterlimit:4;stroke-dasharray:none"
       inkscape:connector-curvature="0" />
    <path
       id="path6536"
       d="m 291.75578,596.69914 a 11.700005,11.700005 0 1 0 -23.40001,0 11.700005,11.700005 0 0 0 23.40001,0 z"
       style="fill:none;stroke:#000000;stroke-linecap:round;stroke-opacity:1;stroke-width:2;stroke-miterlimit:4;stroke-dasharray:none"
       inkscape:connector-curvature="0" />
    <path
       id="path6538"
       d="m 664.15735,596.69914 a 11.7,11.7 0 1 0 -23.4,0 11.7,11.7 0 1 0 23.4,0 z"
       style="fill:none;stroke:#000000;stroke-linecap:round;stroke-opacity:1;stroke-width:2;stroke-miterlimit:4;stroke-dasharray:none"
       inkscape:connector-curvature="0" />
    <path
       id="path6540"
       d="m 1176.8255,-537.21699 a 3.543307,3.543307 0 0 0 -3.5433,3.54331"
       style="fill:none;stroke:#000000;stroke-linecap:round;stroke-opacity:1;stroke-width:2;stroke-miterlimit:4;stroke-dasharray:none"
       inkscape:connector-curvature="0" />
    <path
       id="path6542"
       d="m 1173.2822,640.4897 0,-1174.16692"
       style="fill:none;stroke:#000000;stroke-linecap:round;stroke-opacity:1;stroke-width:2;stroke-miterlimit:4;stroke-dasharray:none"
       inkscape:connector-curvature="0" />
    <path
       id="path6544"
       d="m 1173.2822,640.48616 a 3.543307,3.543307 0 0 0 3.5433,3.54331"
       style="fill:none;stroke:#000000;stroke-linecap:round;stroke-opacity:1;stroke-width:2;stroke-miterlimit:4;stroke-dasharray:none"
       inkscape:connector-curvature="0" />
    <path
       id="path6546"
       d="m 1609.109,644.02947 -432.2835,0"
       style="fill:none;stroke:#000000;stroke-linecap:round;stroke-opacity:1;stroke-width:2;stroke-miterlimit:4;stroke-dasharray:none"
       inkscape:connector-curvature="0" />
    <path
       id="path6548"
       d="m 1609.109,644.02947 a 3.543307,3.543307 0 0 0 3.5433,-3.54331"
       style="fill:none;stroke:#000000;stroke-linecap:round;stroke-opacity:1;stroke-width:2;stroke-miterlimit:4;stroke-dasharray:none"
       inkscape:connector-curvature="0" />
    <path
       id="path6550"
       d="m 1612.6523,-533.67722 0,1174.16692"
       style="fill:none;stroke:#000000;stroke-linecap:round;stroke-opacity:1;stroke-width:2;stroke-miterlimit:4;stroke-dasharray:none"
       inkscape:connector-curvature="0" />
    <path
       id="path6552"
       d="m 1612.6523,-533.67368 a 3.543307,3.543307 0 0 0 -3.5433,-3.54331"
       style="fill:none;stroke:#000000;stroke-linecap:round;stroke-opacity:1;stroke-width:2;stroke-miterlimit:4;stroke-dasharray:none"
       inkscape:connector-curvature="0" />
    <path
       id="path6554"
       d="m 1176.8255,-537.21699 432.2835,0"
       style="fill:none;stroke:#000000;stroke-linecap:round;stroke-opacity:1;stroke-width:2;stroke-miterlimit:4;stroke-dasharray:none"
       inkscape:connector-curvature="0" />
    <path
       id="path6556"
       d="m 1252.4822,599.02947 a 11.7,11.7 0 1 0 -23.4,0 11.7,11.7 0 0 0 23.4,0 z"
       style="fill:none;stroke:#000000;stroke-linecap:round;stroke-opacity:1;stroke-width:2;stroke-miterlimit:4;stroke-dasharray:none"
       inkscape:connector-curvature="0" />
    <path
       id="path6558"
       d="m 1556.8523,599.02947 a 11.7,11.7 0 1 0 -23.4,0 11.7,11.7 0 0 0 23.4,0 z"
       style="fill:none;stroke:#000000;stroke-linecap:round;stroke-opacity:1;stroke-width:2;stroke-miterlimit:4;stroke-dasharray:none"
       inkscape:connector-curvature="0" />
    <path
       id="path6560"
       d="m 1645.8385,-538.77517 a 3.543307,3.543307 0 0 0 -3.5433,3.54331"
       style="fill:none;stroke:#000000;stroke-linecap:round;stroke-opacity:1;stroke-width:2;stroke-miterlimit:4;stroke-dasharray:none"
       inkscape:connector-curvature="0" />
    <path
       id="path6562"
       d="m 1642.2952,638.93152 0,-1174.16693"
       style="fill:none;stroke:#000000;stroke-linecap:round;stroke-opacity:1;stroke-width:2;stroke-miterlimit:4;stroke-dasharray:none"
       inkscape:connector-curvature="0" />
    <path
       id="path6564"
       d="m 1642.2952,638.92798 a 3.543307,3.543307 0 0 0 3.5433,3.54331"
       style="fill:none;stroke:#000000;stroke-linecap:round;stroke-opacity:1;stroke-width:2;stroke-miterlimit:4;stroke-dasharray:none"
       inkscape:connector-curvature="0" />
    <path
       id="path6566"
       d="m 2078.122,642.47129 -432.2835,0"
       style="fill:none;stroke:#000000;stroke-linecap:round;stroke-opacity:1;stroke-width:2;stroke-miterlimit:4;stroke-dasharray:none"
       inkscape:connector-curvature="0" />
    <path
       id="path6568"
       d="m 2078.122,642.47129 a 3.543307,3.543307 0 0 0 3.5433,-3.54331"
       style="fill:none;stroke:#000000;stroke-linecap:round;stroke-opacity:1;stroke-width:2;stroke-miterlimit:4;stroke-dasharray:none"
       inkscape:connector-curvature="0" />
    <path
       id="path6570"
       d="m 2081.6653,-535.23541 0,1174.16693"
       style="fill:none;stroke:#000000;stroke-linecap:round;stroke-opacity:1;stroke-width:2;stroke-miterlimit:4;stroke-dasharray:none"
       inkscape:connector-curvature="0" />
    <path
       id="path6572"
       d="m 2081.6653,-535.23186 a 3.543307,3.543307 0 0 0 -3.5433,-3.54331"
       style="fill:none;stroke:#000000;stroke-linecap:round;stroke-opacity:1;stroke-width:2;stroke-miterlimit:4;stroke-dasharray:none"
       inkscape:connector-curvature="0" />
    <path
       id="path6574"
       d="m 1645.8385,-538.77517 432.2835,0"
       style="fill:none;stroke:#000000;stroke-linecap:round;stroke-opacity:1;stroke-width:2;stroke-miterlimit:4;stroke-dasharray:none"
       inkscape:connector-curvature="0" />
    <path
       id="path6576"
       d="m 1721.4952,597.47129 a 11.7,11.7 0 1 0 -23.4,0 11.7,11.7 0 0 0 23.4,0 z"
       style="fill:none;stroke:#000000;stroke-linecap:round;stroke-opacity:1;stroke-width:2;stroke-miterlimit:4;stroke-dasharray:none"
       inkscape:connector-curvature="0" />
    <path
       id="path6578"
       d="m 2025.8653,597.47129 a 11.7,11.7 0 1 0 -23.4,0 11.7,11.7 0 0 0 23.4,0 z"
       style="fill:none;stroke:#000000;stroke-linecap:round;stroke-opacity:1;stroke-width:2;stroke-miterlimit:4;stroke-dasharray:none"
       inkscape:connector-curvature="0" />
  </g>
</svg>
