<?xml version="1.0" encoding="UTF-8" standalone="no"?>
<!-- Created with Inkscape (http://www.inkscape.org/) -->

<svg
   xmlns:dc="http://purl.org/dc/elements/1.1/"
   xmlns:cc="http://creativecommons.org/ns#"
   xmlns:rdf="http://www.w3.org/1999/02/22-rdf-syntax-ns#"
   xmlns:svg="http://www.w3.org/2000/svg"
   xmlns="http://www.w3.org/2000/svg"
   xmlns:sodipodi="http://sodipodi.sourceforge.net/DTD/sodipodi-0.dtd"
   xmlns:inkscape="http://www.inkscape.org/namespaces/inkscape"
   width="24in"
   height="18in"
   viewBox="0 0 2160 1620"
   id="svg5241"
   version="1.1"
   inkscape:version="0.91 r13725"
   sodipodi:docname="layout2.svg">
  <defs
     id="defs5243">
    <marker
       orient="auto"
       id="DistanceX"
       style="overflow:visible"
       refX="0.0"
       refY="0.0">
      <path
         id="path5256"
         d="M 3,-3 L -3,3 M 0,-5 L  0,5"
         style="stroke:#000000; stroke-width:0.5" />
    </marker>
    <pattern
       id="Hatch"
       x="0"
       y="0"
       patternUnits="userSpaceOnUse"
       width="8"
       height="8">
      <path
         id="path5259"
         d="M8 4 l-4,4"
         stroke-width="0.25"
         stroke="#000000"
         linecap="square" />
      <path
         id="path5261"
         d="M6 2 l-4,4"
         stroke-width="0.25"
         stroke="#000000"
         linecap="square" />
      <path
         id="path5263"
         d="M4 0 l-4,4"
         stroke-width="0.25"
         stroke="#000000"
         linecap="square" />
    </pattern>
    <symbol
       id="*Model_Space" />
    <symbol
       id="*Paper_Space" />
  </defs>
  <sodipodi:namedview
     id="base"
     pagecolor="#ffffff"
     bordercolor="#666666"
     borderopacity="1.0"
     inkscape:pageopacity="0.0"
     inkscape:pageshadow="2"
     inkscape:zoom="0.24748737"
     inkscape:cx="375"
     inkscape:cy="943.66935"
     inkscape:document-units="px"
     inkscape:current-layer="layer1"
     showgrid="false"
     units="in"
     inkscape:window-width="1600"
     inkscape:window-height="837"
     inkscape:window-x="-8"
     inkscape:window-y="-8"
     inkscape:window-maximized="1" />
  <metadata
     id="metadata5246">
    <rdf:RDF>
      <cc:Work
         rdf:about="">
        <dc:format>image/svg+xml</dc:format>
        <dc:type
           rdf:resource="http://purl.org/dc/dcmitype/StillImage" />
        <dc:title></dc:title>
      </cc:Work>
    </rdf:RDF>
  </metadata>
  <g
     inkscape:label="Layer 1"
     inkscape:groupmode="layer"
     id="layer1"
     transform="translate(0,567.63785)">
    <path
       id="path5281"
       d="m 29.601305,-546.12553 a 3.543307,3.543307 0 0 0 -3.543307,3.54331"
       style="fill:none;stroke:#000000;stroke-linecap:round;stroke-opacity:1;stroke-width:1;stroke-miterlimit:4;stroke-dasharray:none"
       inkscape:connector-curvature="0" />
    <path
       id="path5283"
       d="m 26.057998,-324.66884 0,-217.91338"
       style="fill:none;stroke:#000000;stroke-linecap:round;stroke-opacity:1;stroke-width:1;stroke-miterlimit:4;stroke-dasharray:none"
       inkscape:connector-curvature="0" />
    <path
       id="path5285"
       d="m 26.057998,-324.66884 a 3.543307,3.543307 0 0 0 3.543307,3.54331"
       style="fill:none;stroke:#000000;stroke-linecap:round;stroke-opacity:1;stroke-width:1;stroke-miterlimit:4;stroke-dasharray:none"
       inkscape:connector-curvature="0" />
    <path
       id="path5287"
       d="m 1642.5147,-321.12553 -1612.913395,0"
       style="fill:none;stroke:#000000;stroke-linecap:round;stroke-opacity:1;stroke-width:1;stroke-miterlimit:4;stroke-dasharray:none"
       inkscape:connector-curvature="0" />
    <path
       id="path5289"
       d="m 29.601305,-546.12553 1612.913395,0"
       style="fill:none;stroke:#000000;stroke-linecap:round;stroke-opacity:1;stroke-width:1;stroke-miterlimit:4;stroke-dasharray:none"
       inkscape:connector-curvature="0" />
    <path
       id="path5291"
       d="m 1095.258,-366.12553 a 11.7,11.7 0 1 0 -23.4,0 11.7,11.7 0 0 0 23.4,0 z"
       style="fill:none;stroke:#000000;stroke-linecap:round;stroke-opacity:1;stroke-width:1;stroke-miterlimit:4;stroke-dasharray:none"
       inkscape:connector-curvature="0" />
    <path
       id="path5293"
       d="m 600.258,-366.12553 a 11.7,11.7 0 1 0 -23.4,0 11.7,11.7 0 1 0 23.4,0 z"
       style="fill:none;stroke:#000000;stroke-linecap:round;stroke-opacity:1;stroke-width:1;stroke-miterlimit:4;stroke-dasharray:none"
       inkscape:connector-curvature="0" />
    <path
       id="path5295"
       d="m 105.258,-366.12553 a 11.7,11.7 0 1 0 -23.400002,0 11.7,11.7 0 0 0 23.400002,0 z"
       style="fill:none;stroke:#000000;stroke-linecap:round;stroke-opacity:1;stroke-width:1;stroke-miterlimit:4;stroke-dasharray:none"
       inkscape:connector-curvature="0" />
    <path
       id="path5297"
       d="m 29.601305,-308.72395 a 3.543307,3.543307 0 0 0 -3.543307,3.5433"
       style="fill:none;stroke:#000000;stroke-linecap:round;stroke-opacity:1;stroke-width:1;stroke-miterlimit:4;stroke-dasharray:none"
       inkscape:connector-curvature="0" />
    <path
       id="path5299"
       d="m 26.057998,-87.26726 0,-217.91339"
       style="fill:none;stroke:#000000;stroke-linecap:round;stroke-opacity:1;stroke-width:1;stroke-miterlimit:4;stroke-dasharray:none"
       inkscape:connector-curvature="0" />
    <path
       id="path5301"
       d="m 26.057998,-87.26726 a 3.543307,3.543307 0 0 0 3.543307,3.54331"
       style="fill:none;stroke:#000000;stroke-linecap:round;stroke-opacity:1;stroke-width:1;stroke-miterlimit:4;stroke-dasharray:none"
       inkscape:connector-curvature="0" />
    <path
       id="path5303"
       d="m 1642.5147,-83.72395 -1612.913395,0"
       style="fill:none;stroke:#000000;stroke-linecap:round;stroke-opacity:1;stroke-width:1;stroke-miterlimit:4;stroke-dasharray:none"
       inkscape:connector-curvature="0" />
    <path
       id="path5305"
       d="m 29.601305,-308.72395 1612.913395,0"
       style="fill:none;stroke:#000000;stroke-linecap:round;stroke-opacity:1;stroke-width:1;stroke-miterlimit:4;stroke-dasharray:none"
       inkscape:connector-curvature="0" />
    <path
       id="path5307"
       d="m 1095.258,-128.72395 a 11.7,11.7 0 1 0 -23.4,0 11.7,11.7 0 0 0 23.4,0 z"
       style="fill:none;stroke:#000000;stroke-linecap:round;stroke-opacity:1;stroke-width:1;stroke-miterlimit:4;stroke-dasharray:none"
       inkscape:connector-curvature="0" />
    <path
       id="path5309"
       d="m 600.258,-128.72395 a 11.7,11.7 0 1 0 -23.4,0 11.7,11.7 0 1 0 23.4,0 z"
       style="fill:none;stroke:#000000;stroke-linecap:round;stroke-opacity:1;stroke-width:1;stroke-miterlimit:4;stroke-dasharray:none"
       inkscape:connector-curvature="0" />
    <path
       id="path5311"
       d="m 105.258,-128.72395 a 11.7,11.7 0 1 0 -23.400002,0 11.7,11.7 0 0 0 23.400002,0 z"
       style="fill:none;stroke:#000000;stroke-linecap:round;stroke-opacity:1;stroke-width:1;stroke-miterlimit:4;stroke-dasharray:none"
       inkscape:connector-curvature="0" />
    <path
       id="path5313"
       d="m 29.601305,-71.32238 a 3.543307,3.543307 0 0 0 -3.543307,3.54331"
       style="fill:none;stroke:#000000;stroke-linecap:round;stroke-opacity:1;stroke-width:1;stroke-miterlimit:4;stroke-dasharray:none"
       inkscape:connector-curvature="0" />
    <path
       id="path5315"
       d="m 26.057998,150.13431 0,-217.91338"
       style="fill:none;stroke:#000000;stroke-linecap:round;stroke-opacity:1;stroke-width:1;stroke-miterlimit:4;stroke-dasharray:none"
       inkscape:connector-curvature="0" />
    <path
       id="path5317"
       d="m 26.057998,150.13431 a 3.543307,3.543307 0 0 0 3.543307,3.54331"
       style="fill:none;stroke:#000000;stroke-linecap:round;stroke-opacity:1;stroke-width:1;stroke-miterlimit:4;stroke-dasharray:none"
       inkscape:connector-curvature="0" />
    <path
       id="path5319"
       d="m 1642.5147,153.67762 -1612.913395,0"
       style="fill:none;stroke:#000000;stroke-linecap:round;stroke-opacity:1;stroke-width:1;stroke-miterlimit:4;stroke-dasharray:none"
       inkscape:connector-curvature="0" />
    <path
       id="path5321"
       d="m 29.601305,-71.32238 1612.913395,0"
       style="fill:none;stroke:#000000;stroke-linecap:round;stroke-opacity:1;stroke-width:1;stroke-miterlimit:4;stroke-dasharray:none"
       inkscape:connector-curvature="0" />
    <path
       id="path5323"
       d="m 1095.258,108.67762 a 11.7,11.7 0 1 0 -23.4,0 11.7,11.7 0 0 0 23.4,0 z"
       style="fill:none;stroke:#000000;stroke-linecap:round;stroke-opacity:1;stroke-width:1;stroke-miterlimit:4;stroke-dasharray:none"
       inkscape:connector-curvature="0" />
    <path
       id="path5325"
       d="m 600.258,108.67762 a 11.7,11.7 0 1 0 -23.4,0 11.7,11.7 0 1 0 23.4,0 z"
       style="fill:none;stroke:#000000;stroke-linecap:round;stroke-opacity:1;stroke-width:1;stroke-miterlimit:4;stroke-dasharray:none"
       inkscape:connector-curvature="0" />
    <path
       id="path5327"
       d="m 105.258,108.67762 a 11.7,11.7 0 1 0 -23.400002,0 11.7,11.7 0 0 0 23.400002,0 z"
       style="fill:none;stroke:#000000;stroke-linecap:round;stroke-opacity:1;stroke-width:1;stroke-miterlimit:4;stroke-dasharray:none"
       inkscape:connector-curvature="0" />
    <path
       id="path5329"
       d="m 29.601305,166.0792 a 3.543307,3.543307 0 0 0 -3.543307,3.5433"
       style="fill:none;stroke:#000000;stroke-linecap:round;stroke-opacity:1;stroke-width:1;stroke-miterlimit:4;stroke-dasharray:none"
       inkscape:connector-curvature="0" />
    <path
       id="path5331"
       d="m 26.057998,387.53589 0,-217.91339"
       style="fill:none;stroke:#000000;stroke-linecap:round;stroke-opacity:1;stroke-width:1;stroke-miterlimit:4;stroke-dasharray:none"
       inkscape:connector-curvature="0" />
    <path
       id="path5333"
       d="m 26.057998,387.53589 a 3.543307,3.543307 0 0 0 3.543307,3.54331"
       style="fill:none;stroke:#000000;stroke-linecap:round;stroke-opacity:1;stroke-width:1;stroke-miterlimit:4;stroke-dasharray:none"
       inkscape:connector-curvature="0" />
    <path
       id="path5335"
       d="m 1642.5147,391.0792 -1612.913395,0"
       style="fill:none;stroke:#000000;stroke-linecap:round;stroke-opacity:1;stroke-width:1;stroke-miterlimit:4;stroke-dasharray:none"
       inkscape:connector-curvature="0" />
    <path
       id="path5337"
       d="m 29.601305,166.0792 1612.913395,0"
       style="fill:none;stroke:#000000;stroke-linecap:round;stroke-opacity:1;stroke-width:1;stroke-miterlimit:4;stroke-dasharray:none"
       inkscape:connector-curvature="0" />
    <path
       id="path5339"
       d="m 1095.258,346.0792 a 11.7,11.7 0 1 0 -23.4,0 11.7,11.7 0 0 0 23.4,0 z"
       style="fill:none;stroke:#000000;stroke-linecap:round;stroke-opacity:1;stroke-width:1;stroke-miterlimit:4;stroke-dasharray:none"
       inkscape:connector-curvature="0" />
    <path
       id="path5341"
       d="m 600.258,346.0792 a 11.7,11.7 0 1 0 -23.4,0 11.7,11.7 0 1 0 23.4,0 z"
       style="fill:none;stroke:#000000;stroke-linecap:round;stroke-opacity:1;stroke-width:1;stroke-miterlimit:4;stroke-dasharray:none"
       inkscape:connector-curvature="0" />
    <path
       id="path5343"
       d="m 105.258,346.0792 a 11.7,11.7 0 1 0 -23.400002,0 11.7,11.7 0 0 0 23.400002,0 z"
       style="fill:none;stroke:#000000;stroke-linecap:round;stroke-opacity:1;stroke-width:1;stroke-miterlimit:4;stroke-dasharray:none"
       inkscape:connector-curvature="0" />
    <path
       id="path5345"
       d="m 28.850124,394.26817 a 3.543307,3.543307 0 0 0 -3.543307,3.54331"
       style="fill:none;stroke:#000000;stroke-linecap:round;stroke-opacity:1;stroke-width:1;stroke-miterlimit:4;stroke-dasharray:none"
       inkscape:connector-curvature="0" />
    <path
       id="path5347"
       d="m 25.306817,615.72487 0,-217.91339"
       style="fill:none;stroke:#000000;stroke-linecap:round;stroke-opacity:1;stroke-width:1;stroke-miterlimit:4;stroke-dasharray:none"
       inkscape:connector-curvature="0" />
    <path
       id="path5349"
       d="m 25.306817,615.72487 a 3.543307,3.543307 0 0 0 3.543307,3.5433"
       style="fill:none;stroke:#000000;stroke-linecap:round;stroke-opacity:1;stroke-width:1;stroke-miterlimit:4;stroke-dasharray:none"
       inkscape:connector-curvature="0" />
    <path
       id="path5351"
       d="m 1630.5099,619.26817 -1601.663319,0"
       style="fill:none;stroke:#000000;stroke-linecap:round;stroke-opacity:1;stroke-width:1;stroke-miterlimit:4;stroke-dasharray:none"
       inkscape:connector-curvature="0" />
    <path
       id="path5353"
       d="m 28.850124,394.26817 1601.659776,0"
       style="fill:none;stroke:#000000;stroke-linecap:round;stroke-opacity:1;stroke-width:1;stroke-miterlimit:4;stroke-dasharray:none"
       inkscape:connector-curvature="0" />
    <path
       id="path5355"
       d="m 1087.0049,574.26817 a 11.7,11.7 0 1 0 -23.4,0 11.7,11.7 0 0 0 23.4,0 z"
       style="fill:none;stroke:#000000;stroke-linecap:round;stroke-opacity:1;stroke-width:1;stroke-miterlimit:4;stroke-dasharray:none"
       inkscape:connector-curvature="0" />
    <path
       id="path5357"
       d="m 595.75516,574.26817 a 11.7,11.7 0 1 0 -23.4,0 11.7,11.7 0 1 0 23.4,0 z"
       style="fill:none;stroke:#000000;stroke-linecap:round;stroke-opacity:1;stroke-width:1;stroke-miterlimit:4;stroke-dasharray:none"
       inkscape:connector-curvature="0" />
    <path
       id="path5359"
       d="m 1578.2532,574.26817 a 11.7,11.7 0 1 0 -23.4,0 11.7,11.7 0 0 0 23.4,0 z"
       style="fill:none;stroke:#000000;stroke-linecap:round;stroke-opacity:1;stroke-width:1;stroke-miterlimit:4;stroke-dasharray:none"
       inkscape:connector-curvature="0" />
    <path
       id="path5361"
       d="m 104.50682,574.26817 a 11.7,11.7 0 1 0 -23.400003,0 11.7,11.7 0 0 0 23.400003,0 z"
       style="fill:none;stroke:#000000;stroke-linecap:round;stroke-opacity:1;stroke-width:1;stroke-miterlimit:4;stroke-dasharray:none"
       inkscape:connector-curvature="0" />
    <path
       id="path5363"
       d="m 28.850124,621.03982 a 3.543307,3.543307 0 0 0 -3.543307,3.54331"
       style="fill:none;stroke:#000000;stroke-linecap:round;stroke-opacity:1;stroke-width:1;stroke-miterlimit:4;stroke-dasharray:none"
       inkscape:connector-curvature="0" />
    <path
       id="path5365"
       d="m 25.306817,842.49656 0,-217.91343"
       style="fill:none;stroke:#000000;stroke-linecap:round;stroke-opacity:1;stroke-width:1;stroke-miterlimit:4;stroke-dasharray:none"
       inkscape:connector-curvature="0" />
    <path
       id="path5367"
       d="m 25.306817,842.49656 a 3.543307,3.543307 0 0 0 3.543307,3.5433"
       style="fill:none;stroke:#000000;stroke-linecap:round;stroke-opacity:1;stroke-width:1;stroke-miterlimit:4;stroke-dasharray:none"
       inkscape:connector-curvature="0" />
    <path
       id="path5369"
       d="m 1630.5099,846.03986 -1601.663319,0"
       style="fill:none;stroke:#000000;stroke-linecap:round;stroke-opacity:1;stroke-width:1;stroke-miterlimit:4;stroke-dasharray:none"
       inkscape:connector-curvature="0" />
    <path
       id="path5371"
       d="m 28.850124,621.03982 1601.659776,0"
       style="fill:none;stroke:#000000;stroke-linecap:round;stroke-opacity:1;stroke-width:1;stroke-miterlimit:4;stroke-dasharray:none"
       inkscape:connector-curvature="0" />
    <path
       id="path5373"
       d="m 1087.0049,801.03982 a 11.7,11.7 0 1 0 -23.4,0 11.7,11.7 0 0 0 23.4,0 z"
       style="fill:none;stroke:#000000;stroke-linecap:round;stroke-opacity:1;stroke-width:1;stroke-miterlimit:4;stroke-dasharray:none"
       inkscape:connector-curvature="0" />
    <path
       id="path5375"
       d="m 595.75516,801.03982 a 11.7,11.7 0 1 0 -23.4,0 11.7,11.7 0 1 0 23.4,0 z"
       style="fill:none;stroke:#000000;stroke-linecap:round;stroke-opacity:1;stroke-width:1;stroke-miterlimit:4;stroke-dasharray:none"
       inkscape:connector-curvature="0" />
    <path
       id="path5377"
       d="m 1578.2532,801.03982 a 11.7,11.7 0 1 0 -23.4,0 11.7,11.7 0 0 0 23.4,0 z"
       style="fill:none;stroke:#000000;stroke-linecap:round;stroke-opacity:1;stroke-width:1;stroke-miterlimit:4;stroke-dasharray:none"
       inkscape:connector-curvature="0" />
    <path
       id="path5379"
       d="m 104.50682,801.03982 a 11.7,11.7 0 1 0 -23.400003,0 11.7,11.7 0 0 0 23.400003,0 z"
       style="fill:none;stroke:#000000;stroke-linecap:round;stroke-opacity:1;stroke-width:1;stroke-miterlimit:4;stroke-dasharray:none"
       inkscape:connector-curvature="0" />
    <path
       id="path5381"
       d="m 1642.5147,-321.12553 a 3.543307,3.543307 0 0 0 3.5433,-3.54331"
       style="fill:none;stroke:#000000;stroke-linecap:round;stroke-opacity:1;stroke-width:1;stroke-miterlimit:4;stroke-dasharray:none"
       inkscape:connector-curvature="0" />
    <path
       id="path5383"
       d="m 1646.058,-542.58222 0,217.91338"
       style="fill:none;stroke:#000000;stroke-linecap:round;stroke-opacity:1;stroke-width:1;stroke-miterlimit:4;stroke-dasharray:none"
       inkscape:connector-curvature="0" />
    <path
       id="path5385"
       d="m 1646.058,-542.58222 a 3.543307,3.543307 0 0 0 -3.5433,-3.54331"
       style="fill:none;stroke:#000000;stroke-linecap:round;stroke-opacity:1;stroke-width:1;stroke-miterlimit:4;stroke-dasharray:none"
       inkscape:connector-curvature="0" />
    <path
       id="path5387"
       d="m 1590.258,-366.12553 a 11.7,11.7 0 1 0 -23.4,0 11.7,11.7 0 0 0 23.4,0 z"
       style="fill:none;stroke:#000000;stroke-linecap:round;stroke-opacity:1;stroke-width:1;stroke-miterlimit:4;stroke-dasharray:none"
       inkscape:connector-curvature="0" />
    <path
       id="path5389"
       d="m 1642.5147,-83.72395 a 3.543307,3.543307 0 0 0 3.5433,-3.54331"
       style="fill:none;stroke:#000000;stroke-linecap:round;stroke-opacity:1;stroke-width:1;stroke-miterlimit:4;stroke-dasharray:none"
       inkscape:connector-curvature="0" />
    <path
       id="path5391"
       d="m 1646.058,-305.18065 0,217.91339"
       style="fill:none;stroke:#000000;stroke-linecap:round;stroke-opacity:1;stroke-width:1;stroke-miterlimit:4;stroke-dasharray:none"
       inkscape:connector-curvature="0" />
    <path
       id="path5393"
       d="m 1646.058,-305.18065 a 3.543307,3.543307 0 0 0 -3.5433,-3.5433"
       style="fill:none;stroke:#000000;stroke-linecap:round;stroke-opacity:1;stroke-width:1;stroke-miterlimit:4;stroke-dasharray:none"
       inkscape:connector-curvature="0" />
    <path
       id="path5395"
       d="m 1590.258,-128.72395 a 11.7,11.7 0 1 0 -23.4,0 11.7,11.7 0 0 0 23.4,0 z"
       style="fill:none;stroke:#000000;stroke-linecap:round;stroke-opacity:1;stroke-width:1;stroke-miterlimit:4;stroke-dasharray:none"
       inkscape:connector-curvature="0" />
    <path
       id="path5397"
       d="m 1642.5147,153.67762 a 3.543307,3.543307 0 0 0 3.5433,-3.54331"
       style="fill:none;stroke:#000000;stroke-linecap:round;stroke-opacity:1;stroke-width:1;stroke-miterlimit:4;stroke-dasharray:none"
       inkscape:connector-curvature="0" />
    <path
       id="path5399"
       d="m 1646.058,-67.77907 0,217.91338"
       style="fill:none;stroke:#000000;stroke-linecap:round;stroke-opacity:1;stroke-width:1;stroke-miterlimit:4;stroke-dasharray:none"
       inkscape:connector-curvature="0" />
    <path
       id="path5401"
       d="m 1646.058,-67.77907 a 3.543307,3.543307 0 0 0 -3.5433,-3.54331"
       style="fill:none;stroke:#000000;stroke-linecap:round;stroke-opacity:1;stroke-width:1;stroke-miterlimit:4;stroke-dasharray:none"
       inkscape:connector-curvature="0" />
    <path
       id="path5403"
       d="m 1590.258,108.67762 a 11.7,11.7 0 1 0 -23.4,0 11.7,11.7 0 0 0 23.4,0 z"
       style="fill:none;stroke:#000000;stroke-linecap:round;stroke-opacity:1;stroke-width:1;stroke-miterlimit:4;stroke-dasharray:none"
       inkscape:connector-curvature="0" />
    <path
       id="path5405"
       d="m 1642.5147,391.0792 a 3.543307,3.543307 0 0 0 3.5433,-3.54331"
       style="fill:none;stroke:#000000;stroke-linecap:round;stroke-opacity:1;stroke-width:1;stroke-miterlimit:4;stroke-dasharray:none"
       inkscape:connector-curvature="0" />
    <path
       id="path5407"
       d="m 1646.058,169.6225 0,217.91339"
       style="fill:none;stroke:#000000;stroke-linecap:round;stroke-opacity:1;stroke-width:1;stroke-miterlimit:4;stroke-dasharray:none"
       inkscape:connector-curvature="0" />
    <path
       id="path5409"
       d="m 1646.058,169.6225 a 3.543307,3.543307 0 0 0 -3.5433,-3.5433"
       style="fill:none;stroke:#000000;stroke-linecap:round;stroke-opacity:1;stroke-width:1;stroke-miterlimit:4;stroke-dasharray:none"
       inkscape:connector-curvature="0" />
    <path
       id="path5411"
       d="m 1590.258,346.0792 a 11.7,11.7 0 1 0 -23.4,0 11.7,11.7 0 0 0 23.4,0 z"
       style="fill:none;stroke:#000000;stroke-linecap:round;stroke-opacity:1;stroke-width:1;stroke-miterlimit:4;stroke-dasharray:none"
       inkscape:connector-curvature="0" />
    <path
       id="path5413"
       d="m 1630.5099,619.26817 a 3.543307,3.543307 0 0 0 3.5433,-3.5433"
       style="fill:none;stroke:#000000;stroke-linecap:round;stroke-opacity:1;stroke-width:1;stroke-miterlimit:4;stroke-dasharray:none"
       inkscape:connector-curvature="0" />
    <path
       id="path5415"
       d="m 1634.0532,397.81148 0,217.91339"
       style="fill:none;stroke:#000000;stroke-linecap:round;stroke-opacity:1;stroke-width:1;stroke-miterlimit:4;stroke-dasharray:none"
       inkscape:connector-curvature="0" />
    <path
       id="path5417"
       d="m 1634.0532,397.81148 a 3.543307,3.543307 0 0 0 -3.5433,-3.54331"
       style="fill:none;stroke:#000000;stroke-linecap:round;stroke-opacity:1;stroke-width:1;stroke-miterlimit:4;stroke-dasharray:none"
       inkscape:connector-curvature="0" />
    <path
       id="path5419"
       d="m 1630.5099,846.03986 a 3.543307,3.543307 0 0 0 3.5433,-3.5433"
       style="fill:none;stroke:#000000;stroke-linecap:round;stroke-opacity:1;stroke-width:1;stroke-miterlimit:4;stroke-dasharray:none"
       inkscape:connector-curvature="0" />
    <path
       id="path5421"
       d="m 1634.0532,624.58313 0,217.91343"
       style="fill:none;stroke:#000000;stroke-linecap:round;stroke-opacity:1;stroke-width:1;stroke-miterlimit:4;stroke-dasharray:none"
       inkscape:connector-curvature="0" />
    <path
       id="path5423"
       d="m 1634.0532,624.58313 a 3.543307,3.543307 0 0 0 -3.5433,-3.54331"
       style="fill:none;stroke:#000000;stroke-linecap:round;stroke-opacity:1;stroke-width:1;stroke-miterlimit:4;stroke-dasharray:none"
       inkscape:connector-curvature="0" />
    <path
       id="path5425"
       d="m 1807.2784,-52.72002 0,-281.69291"
       style="fill:none;stroke:#000000;stroke-linecap:round;stroke-opacity:1;stroke-width:1;stroke-miterlimit:4;stroke-dasharray:none"
       inkscape:connector-curvature="0" />
    <path
       id="path5427"
       d="m 1807.2784,-334.41293 a 3.543307,3.543307 0 0 0 -3.5433,-3.54331"
       style="fill:none;stroke:#000000;stroke-linecap:round;stroke-opacity:1;stroke-width:1;stroke-miterlimit:4;stroke-dasharray:none"
       inkscape:connector-curvature="0" />
    <path
       id="path5429"
       d="m 1803.7351,-337.95624 -126.1417,0"
       style="fill:none;stroke:#000000;stroke-linecap:round;stroke-opacity:1;stroke-width:1;stroke-miterlimit:4;stroke-dasharray:none"
       inkscape:connector-curvature="0" />
    <path
       id="path5431"
       d="m 1677.5934,-337.95624 a 3.543307,3.543307 0 0 0 -3.5433,3.54331"
       style="fill:none;stroke:#000000;stroke-linecap:round;stroke-opacity:1;stroke-width:1;stroke-miterlimit:4;stroke-dasharray:none"
       inkscape:connector-curvature="0" />
    <path
       id="path5433"
       d="m 1674.0501,-334.41293 0,1169.29129"
       style="fill:none;stroke:#000000;stroke-linecap:round;stroke-opacity:1;stroke-width:1;stroke-miterlimit:4;stroke-dasharray:none"
       inkscape:connector-curvature="0" />
    <path
       id="path5435"
       d="m 1674.0501,834.87836 a 3.543307,3.543307 0 0 0 3.5433,3.5434"
       style="fill:none;stroke:#000000;stroke-linecap:round;stroke-opacity:1;stroke-width:1;stroke-miterlimit:4;stroke-dasharray:none"
       inkscape:connector-curvature="0" />
    <path
       id="path5437"
       d="m 1677.5934,838.42176 217.9134,0"
       style="fill:none;stroke:#000000;stroke-linecap:round;stroke-opacity:1;stroke-width:1;stroke-miterlimit:4;stroke-dasharray:none"
       inkscape:connector-curvature="0" />
    <path
       id="path5439"
       d="m 1895.5068,838.42176 a 3.543307,3.543307 0 0 0 3.5433,-3.5434"
       style="fill:none;stroke:#000000;stroke-linecap:round;stroke-opacity:1;stroke-width:1;stroke-miterlimit:4;stroke-dasharray:none"
       inkscape:connector-curvature="0" />
    <path
       id="path5441"
       d="m 1899.0501,834.87836 0,-880.51176"
       style="fill:none;stroke:#000000;stroke-linecap:round;stroke-opacity:1;stroke-width:1;stroke-miterlimit:4;stroke-dasharray:none"
       inkscape:connector-curvature="0" />
    <path
       id="path5443"
       d="m 1899.0501,-45.6334 a 3.543307,3.543307 0 0 0 -3.5433,-3.54331"
       style="fill:none;stroke:#000000;stroke-linecap:round;stroke-opacity:1;stroke-width:1;stroke-miterlimit:4;stroke-dasharray:none"
       inkscape:connector-curvature="0" />
    <path
       id="path5445"
       d="m 1895.5068,-49.17671 -84.6851,0"
       style="fill:none;stroke:#000000;stroke-linecap:round;stroke-opacity:1;stroke-width:1;stroke-miterlimit:4;stroke-dasharray:none"
       inkscape:connector-curvature="0" />
    <path
       id="path5447"
       d="m 1807.2784,-52.72002 a 3.543307,3.543307 0 0 0 3.5433,3.54331"
       style="fill:none;stroke:#000000;stroke-linecap:round;stroke-opacity:1;stroke-width:1;stroke-miterlimit:4;stroke-dasharray:none"
       inkscape:connector-curvature="0" />
    <path
       id="path5449"
       d="m 1865.7501,770.92171 a 11.7,11.7 0 1 0 -23.4,0 11.7,11.7 0 0 0 23.4,0 z"
       style="fill:none;stroke:#000000;stroke-linecap:round;stroke-opacity:1;stroke-width:1;stroke-miterlimit:4;stroke-dasharray:none"
       inkscape:connector-curvature="0" />
    <path
       id="path5451"
       d="m 1865.7501,394.6225 a 11.7,11.7 0 1 0 -23.4,0 11.7,11.7 0 0 0 23.4,0 z"
       style="fill:none;stroke:#000000;stroke-linecap:round;stroke-opacity:1;stroke-width:1;stroke-miterlimit:4;stroke-dasharray:none"
       inkscape:connector-curvature="0" />
    <path
       id="path5453"
       d="m 1865.7501,18.32329 a 11.7,11.7 0 1 0 -23.4,0 11.7,11.7 0 0 0 23.4,0 z"
       style="fill:none;stroke:#000000;stroke-linecap:round;stroke-opacity:1;stroke-width:1;stroke-miterlimit:4;stroke-dasharray:none"
       inkscape:connector-curvature="0" />
    <path
       id="path5455"
       d="m 2037.5934,487.27998 0,-71.22047"
       style="fill:none;stroke:#000000;stroke-linecap:round;stroke-opacity:1;stroke-width:1;stroke-miterlimit:4;stroke-dasharray:none"
       inkscape:connector-curvature="0" />
    <path
       id="path5457"
       d="m 2037.5934,416.05951 a 3.543307,3.543307 0 0 0 -3.5433,-3.54331"
       style="fill:none;stroke:#000000;stroke-linecap:round;stroke-opacity:1;stroke-width:1;stroke-miterlimit:4;stroke-dasharray:none"
       inkscape:connector-curvature="0" />
    <path
       id="path5459"
       d="m 2034.0501,412.5162 -126.1417,0"
       style="fill:none;stroke:#000000;stroke-linecap:round;stroke-opacity:1;stroke-width:1;stroke-miterlimit:4;stroke-dasharray:none"
       inkscape:connector-curvature="0" />
    <path
       id="path5461"
       d="m 1907.9084,412.5162 a 3.543307,3.543307 0 0 0 -3.5434,3.54331"
       style="fill:none;stroke:#000000;stroke-linecap:round;stroke-opacity:1;stroke-width:1;stroke-miterlimit:4;stroke-dasharray:none"
       inkscape:connector-curvature="0" />
    <path
       id="path5463"
       d="m 1904.365,416.05951 0,418.81885"
       style="fill:none;stroke:#000000;stroke-linecap:round;stroke-opacity:1;stroke-width:1;stroke-miterlimit:4;stroke-dasharray:none"
       inkscape:connector-curvature="0" />
    <path
       id="path5465"
       d="m 1904.365,834.87836 a 3.543307,3.543307 0 0 0 3.5434,3.5434"
       style="fill:none;stroke:#000000;stroke-linecap:round;stroke-opacity:1;stroke-width:1;stroke-miterlimit:4;stroke-dasharray:none"
       inkscape:connector-curvature="0" />
    <path
       id="path5467"
       d="m 1907.9084,838.42176 217.9133,0"
       style="fill:none;stroke:#000000;stroke-linecap:round;stroke-opacity:1;stroke-width:1;stroke-miterlimit:4;stroke-dasharray:none"
       inkscape:connector-curvature="0" />
    <path
       id="path5469"
       d="m 2125.8217,838.42176 a 3.543307,3.543307 0 0 0 3.5433,-3.5434"
       style="fill:none;stroke:#000000;stroke-linecap:round;stroke-opacity:1;stroke-width:1;stroke-miterlimit:4;stroke-dasharray:none"
       inkscape:connector-curvature="0" />
    <path
       id="path5471"
       d="m 2129.365,834.87836 0,-340.51176"
       style="fill:none;stroke:#000000;stroke-linecap:round;stroke-opacity:1;stroke-width:1;stroke-miterlimit:4;stroke-dasharray:none"
       inkscape:connector-curvature="0" />
    <path
       id="path5473"
       d="m 2129.365,494.3666 a 3.543307,3.543307 0 0 0 -3.5433,-3.54331"
       style="fill:none;stroke:#000000;stroke-linecap:round;stroke-opacity:1;stroke-width:1;stroke-miterlimit:4;stroke-dasharray:none"
       inkscape:connector-curvature="0" />
    <path
       id="path5475"
       d="m 2125.8217,490.82329 -84.685,0"
       style="fill:none;stroke:#000000;stroke-linecap:round;stroke-opacity:1;stroke-width:1;stroke-miterlimit:4;stroke-dasharray:none"
       inkscape:connector-curvature="0" />
    <path
       id="path5477"
       d="m 2037.5934,487.27998 a 3.543307,3.543307 0 0 0 3.5433,3.54331"
       style="fill:none;stroke:#000000;stroke-linecap:round;stroke-opacity:1;stroke-width:1;stroke-miterlimit:4;stroke-dasharray:none"
       inkscape:connector-curvature="0" />
    <path
       id="path5479"
       d="m 2096.065,770.92171 a 11.7,11.7 0 1 0 -23.4,0 11.7,11.7 0 0 0 23.4,0 z"
       style="fill:none;stroke:#000000;stroke-linecap:round;stroke-opacity:1;stroke-width:1;stroke-miterlimit:4;stroke-dasharray:none"
       inkscape:connector-curvature="0" />
    <path
       id="path5481"
       d="m 2096.065,558.32329 a 11.7,11.7 0 1 0 -23.4,0 11.7,11.7 0 0 0 23.4,0 z"
       style="fill:none;stroke:#000000;stroke-linecap:round;stroke-opacity:1;stroke-width:1;stroke-miterlimit:4;stroke-dasharray:none"
       inkscape:connector-curvature="0" />
    <path
       id="path5483"
       d="m 2024.8375,-365.2397 0,-169.37008"
       style="fill:none;stroke:#000000;stroke-linecap:round;stroke-opacity:1;stroke-width:1;stroke-miterlimit:4;stroke-dasharray:none"
       inkscape:connector-curvature="0" />
    <path
       id="path5485"
       d="m 2024.8375,-534.60978 a 7.086614,7.086614 0 0 0 -7.0866,-7.08661"
       style="fill:none;stroke:#000000;stroke-linecap:round;stroke-opacity:1;stroke-width:1;stroke-miterlimit:4;stroke-dasharray:none"
       inkscape:connector-curvature="0" />
    <path
       id="path5487"
       d="m 2017.7509,-541.69639 -165.8268,0"
       style="fill:none;stroke:#000000;stroke-linecap:round;stroke-opacity:1;stroke-width:1;stroke-miterlimit:4;stroke-dasharray:none"
       inkscape:connector-curvature="0" />
    <path
       id="path5489"
       d="m 1851.9241,-541.69639 a 7.086614,7.086614 0 0 0 -7.0866,7.08661"
       style="fill:none;stroke:#000000;stroke-linecap:round;stroke-opacity:1;stroke-width:1;stroke-miterlimit:4;stroke-dasharray:none"
       inkscape:connector-curvature="0" />
    <path
       id="path5491"
       d="m 1844.8375,-534.60978 0,166.41886"
       style="fill:none;stroke:#000000;stroke-linecap:round;stroke-opacity:1;stroke-width:1;stroke-miterlimit:4;stroke-dasharray:none"
       inkscape:connector-curvature="0" />
    <path
       id="path5493"
       d="m 1844.8375,-368.19092 a 7.086614,7.086614 0 0 0 2.0945,5.02985"
       style="fill:none;stroke:#000000;stroke-linecap:round;stroke-opacity:1;stroke-width:1;stroke-miterlimit:4;stroke-dasharray:none"
       inkscape:connector-curvature="0" />
    <path
       id="path5495"
       d="M 1965.727,-245.2601 1846.9319,-363.16084"
       style="fill:none;stroke:#000000;stroke-linecap:round;stroke-opacity:1;stroke-width:1;stroke-miterlimit:4;stroke-dasharray:none"
       inkscape:connector-curvature="0" />
    <path
       id="path5497"
       d="m 1969.9162,-235.20033 a 14.173228,14.173228 0 0 0 -4.1892,-10.05979"
       style="fill:none;stroke:#000000;stroke-linecap:round;stroke-opacity:1;stroke-width:1;stroke-miterlimit:4;stroke-dasharray:none"
       inkscape:connector-curvature="0" />
    <path
       id="path5499"
       d="m 1969.9162,-235.20033 a 56.692913,56.692913 0 1 0 66.6142,-55.81805"
       style="fill:none;stroke:#000000;stroke-linecap:round;stroke-opacity:1;stroke-width:1;stroke-miterlimit:4;stroke-dasharray:none"
       inkscape:connector-curvature="0" />
    <path
       id="path5501"
       d="m 2024.8375,-304.97301 a 14.173228,14.173228 0 0 0 11.6928,13.9545"
       style="fill:none;stroke:#000000;stroke-linecap:round;stroke-opacity:1;stroke-width:1;stroke-miterlimit:4;stroke-dasharray:none"
       inkscape:connector-curvature="0" />
    <path
       id="path5503"
       d="m 2024.8375,-365.2397 0,60.26669"
       style="fill:none;stroke:#000000;stroke-linecap:round;stroke-opacity:1;stroke-width:1;stroke-miterlimit:4;stroke-dasharray:none"
       inkscape:connector-curvature="0" />
    <path
       id="path5505"
       d="m 2044.3257,-235.20033 a 17.71655,17.71655 0 1 0 -35.4331,0 17.71655,17.71655 0 1 0 35.4331,0 z"
       style="fill:none;stroke:#000000;stroke-linecap:round;stroke-opacity:1;stroke-width:1;stroke-miterlimit:4;stroke-dasharray:none"
       inkscape:connector-curvature="0" />
    <path
       id="path5507"
       d="m 2005.8808,-206.85387 a 7.6181105,7.6181105 0 1 0 -15.2362,0 7.6181105,7.6181105 0 1 0 15.2362,0 z"
       style="fill:none;stroke:#000000;stroke-linecap:round;stroke-opacity:1;stroke-width:1;stroke-miterlimit:4;stroke-dasharray:none"
       inkscape:connector-curvature="0" />
    <path
       id="path5509"
       d="m 2062.5737,-206.85387 a 7.61811,7.61811 0 1 0 -15.2362,0 7.61811,7.61811 0 1 0 15.2362,0 z"
       style="fill:none;stroke:#000000;stroke-linecap:round;stroke-opacity:1;stroke-width:1;stroke-miterlimit:4;stroke-dasharray:none"
       inkscape:connector-curvature="0" />
    <path
       id="path5511"
       d="m 2005.8808,-263.54679 a 7.6181105,7.6181105 0 1 0 -15.2362,0 7.6181105,7.6181105 0 1 0 15.2362,0 z"
       style="fill:none;stroke:#000000;stroke-linecap:round;stroke-opacity:1;stroke-width:1;stroke-miterlimit:4;stroke-dasharray:none"
       inkscape:connector-curvature="0" />
    <path
       id="path5513"
       d="m 2062.5737,-263.54679 a 7.61811,7.61811 0 1 0 -15.2362,0 7.61811,7.61811 0 1 0 15.2362,0 z"
       style="fill:none;stroke:#000000;stroke-linecap:round;stroke-opacity:1;stroke-width:1;stroke-miterlimit:4;stroke-dasharray:none"
       inkscape:connector-curvature="0" />
    <path
       id="path5515"
       d="m 2095.7036,24.52408 0,-169.37008"
       style="fill:none;stroke:#000000;stroke-linecap:round;stroke-opacity:1;stroke-width:1;stroke-miterlimit:4;stroke-dasharray:none"
       inkscape:connector-curvature="0" />
    <path
       id="path5517"
       d="m 2095.7036,-144.846 a 7.086614,7.086614 0 0 0 -7.0866,-7.08662"
       style="fill:none;stroke:#000000;stroke-linecap:round;stroke-opacity:1;stroke-width:1;stroke-miterlimit:4;stroke-dasharray:none"
       inkscape:connector-curvature="0" />
    <path
       id="path5519"
       d="m 2088.617,-151.93262 -165.8268,0"
       style="fill:none;stroke:#000000;stroke-linecap:round;stroke-opacity:1;stroke-width:1;stroke-miterlimit:4;stroke-dasharray:none"
       inkscape:connector-curvature="0" />
    <path
       id="path5521"
       d="m 1922.7902,-151.93262 a 7.086614,7.086614 0 0 0 -7.0866,7.08662"
       style="fill:none;stroke:#000000;stroke-linecap:round;stroke-opacity:1;stroke-width:1;stroke-miterlimit:4;stroke-dasharray:none"
       inkscape:connector-curvature="0" />
    <path
       id="path5523"
       d="m 1915.7036,-144.846 0,166.41886"
       style="fill:none;stroke:#000000;stroke-linecap:round;stroke-opacity:1;stroke-width:1;stroke-miterlimit:4;stroke-dasharray:none"
       inkscape:connector-curvature="0" />
    <path
       id="path5525"
       d="m 1915.7036,21.57286 a 7.086614,7.086614 0 0 0 2.0946,5.02984"
       style="fill:none;stroke:#000000;stroke-linecap:round;stroke-opacity:1;stroke-width:1;stroke-miterlimit:4;stroke-dasharray:none"
       inkscape:connector-curvature="0" />
    <path
       id="path5527"
       d="M 2036.5931,144.50368 1917.7981,26.60294"
       style="fill:none;stroke:#000000;stroke-linecap:round;stroke-opacity:1;stroke-width:1;stroke-miterlimit:4;stroke-dasharray:none"
       inkscape:connector-curvature="0" />
    <path
       id="path5529"
       d="m 2040.7824,154.56345 a 14.173228,14.173228 0 0 0 -4.1892,-10.05979"
       style="fill:none;stroke:#000000;stroke-linecap:round;stroke-opacity:1;stroke-width:1;stroke-miterlimit:4;stroke-dasharray:none"
       inkscape:connector-curvature="0" />
    <path
       id="path5531"
       d="M 2040.7824,154.56345 A 56.692913,56.692913 0 1 0 2107.3966,98.7454"
       style="fill:none;stroke:#000000;stroke-linecap:round;stroke-opacity:1;stroke-width:1;stroke-miterlimit:4;stroke-dasharray:none"
       inkscape:connector-curvature="0" />
    <path
       id="path5533"
       d="m 2095.7036,84.79077 a 14.173228,14.173228 0 0 0 11.6929,13.9545"
       style="fill:none;stroke:#000000;stroke-linecap:round;stroke-opacity:1;stroke-width:1;stroke-miterlimit:4;stroke-dasharray:none"
       inkscape:connector-curvature="0" />
    <path
       id="path5535"
       d="m 2095.7036,24.52408 0,60.26669"
       style="fill:none;stroke:#000000;stroke-linecap:round;stroke-opacity:1;stroke-width:1;stroke-miterlimit:4;stroke-dasharray:none"
       inkscape:connector-curvature="0" />
    <path
       id="path5537"
       d="m 2115.1918,154.56345 a 17.71655,17.71655 0 1 0 -35.4331,0 17.71655,17.71655 0 0 0 35.4331,0 z"
       style="fill:none;stroke:#000000;stroke-linecap:round;stroke-opacity:1;stroke-width:1;stroke-miterlimit:4;stroke-dasharray:none"
       inkscape:connector-curvature="0" />
    <path
       id="path5539"
       d="m 2076.7469,182.9099 a 7.6181105,7.6181105 0 1 0 -15.2362,0 7.6181105,7.6181105 0 1 0 15.2362,0 z"
       style="fill:none;stroke:#000000;stroke-linecap:round;stroke-opacity:1;stroke-width:1;stroke-miterlimit:4;stroke-dasharray:none"
       inkscape:connector-curvature="0" />
    <path
       id="path5541"
       d="m 2133.4398,182.9099 a 7.61811,7.61811 0 1 0 -15.2362,0 7.61811,7.61811 0 1 0 15.2362,0 z"
       style="fill:none;stroke:#000000;stroke-linecap:round;stroke-opacity:1;stroke-width:1;stroke-miterlimit:4;stroke-dasharray:none"
       inkscape:connector-curvature="0" />
    <path
       id="path5543"
       d="m 2076.7469,126.21699 a 7.6181105,7.6181105 0 1 0 -15.2362,0 7.6181105,7.6181105 0 1 0 15.2362,0 z"
       style="fill:none;stroke:#000000;stroke-linecap:round;stroke-opacity:1;stroke-width:1;stroke-miterlimit:4;stroke-dasharray:none"
       inkscape:connector-curvature="0" />
    <path
       id="path5545"
       d="m 2133.4398,126.21699 a 7.61811,7.61811 0 1 0 -15.2362,0 7.61811,7.61811 0 1 0 15.2362,0 z"
       style="fill:none;stroke:#000000;stroke-linecap:round;stroke-opacity:1;stroke-width:1;stroke-miterlimit:4;stroke-dasharray:none"
       inkscape:connector-curvature="0" />
  </g>
</svg>
