<?xml version="1.0" encoding="UTF-8" standalone="no"?>
<!-- Created with Inkscape (http://www.inkscape.org/) -->

<svg
   xmlns:dc="http://purl.org/dc/elements/1.1/"
   xmlns:cc="http://creativecommons.org/ns#"
   xmlns:rdf="http://www.w3.org/1999/02/22-rdf-syntax-ns#"
   xmlns:svg="http://www.w3.org/2000/svg"
   xmlns="http://www.w3.org/2000/svg"
   xmlns:sodipodi="http://sodipodi.sourceforge.net/DTD/sodipodi-0.dtd"
   xmlns:inkscape="http://www.inkscape.org/namespaces/inkscape"
   width="24in"
   height="18in"
   viewBox="0 0 2160 1620"
   id="svg6344"
   version="1.1"
   inkscape:version="0.91 r13725"
   sodipodi:docname="layout8.svg">
  <defs
     id="defs6346">
    <marker
       orient="auto"
       id="DistanceX"
       style="overflow:visible"
       refX="0.0"
       refY="0.0">
      <path
         id="path6359"
         d="M 3,-3 L -3,3 M 0,-5 L  0,5"
         style="stroke:#000000; stroke-width:0.5" />
    </marker>
    <pattern
       id="Hatch"
       x="0"
       y="0"
       patternUnits="userSpaceOnUse"
       width="8"
       height="8">
      <path
         id="path6362"
         d="M8 4 l-4,4"
         stroke-width="0.25"
         stroke="#000000"
         linecap="square" />
      <path
         id="path6364"
         d="M6 2 l-4,4"
         stroke-width="0.25"
         stroke="#000000"
         linecap="square" />
      <path
         id="path6366"
         d="M4 0 l-4,4"
         stroke-width="0.25"
         stroke="#000000"
         linecap="square" />
    </pattern>
    <symbol
       id="*Model_Space" />
    <symbol
       id="*Paper_Space" />
    <marker
       orient="auto"
       id="DistanceX-7"
       style="overflow:visible"
       refX="0.0"
       refY="0.0">
      <path
         id="path3380"
         d="M 3,-3 L -3,3 M 0,-5 L  0,5"
         style="stroke:#000000; stroke-width:0.5" />
    </marker>
    <pattern
       id="Hatch-4"
       x="0"
       y="0"
       patternUnits="userSpaceOnUse"
       width="8"
       height="8">
      <path
         id="path3383"
         d="M8 4 l-4,4"
         stroke-width="0.25"
         stroke="#000000"
         linecap="square" />
      <path
         id="path3385"
         d="M6 2 l-4,4"
         stroke-width="0.25"
         stroke="#000000"
         linecap="square" />
      <path
         id="path3387"
         d="M4 0 l-4,4"
         stroke-width="0.25"
         stroke="#000000"
         linecap="square" />
    </pattern>
    <symbol
       id="*Model_Space-1" />
    <symbol
       id="*Paper_Space-8" />
    <marker
       orient="auto"
       id="DistanceX-1"
       style="overflow:visible"
       refX="0.0"
       refY="0.0">
      <path
         id="path5193"
         d="M 3,-3 L -3,3 M 0,-5 L  0,5"
         style="stroke:#000000; stroke-width:0.5" />
    </marker>
    <pattern
       id="Hatch-9"
       x="0"
       y="0"
       patternUnits="userSpaceOnUse"
       width="8"
       height="8">
      <path
         id="path5196"
         d="M8 4 l-4,4"
         stroke-width="0.25"
         stroke="#000000"
         linecap="square" />
      <path
         id="path5198"
         d="M6 2 l-4,4"
         stroke-width="0.25"
         stroke="#000000"
         linecap="square" />
      <path
         id="path5200"
         d="M4 0 l-4,4"
         stroke-width="0.25"
         stroke="#000000"
         linecap="square" />
    </pattern>
    <symbol
       id="*Model_Space-2" />
    <symbol
       id="*Paper_Space-1" />
    <marker
       orient="auto"
       id="DistanceX-71"
       style="overflow:visible"
       refX="0.0"
       refY="0.0">
      <path
         id="path5922"
         d="M 3,-3 L -3,3 M 0,-5 L  0,5"
         style="stroke:#000000; stroke-width:0.5" />
    </marker>
    <pattern
       id="Hatch-2"
       x="0"
       y="0"
       patternUnits="userSpaceOnUse"
       width="8"
       height="8">
      <path
         id="path5925"
         d="M8 4 l-4,4"
         stroke-width="0.25"
         stroke="#000000"
         linecap="square" />
      <path
         id="path5927"
         d="M6 2 l-4,4"
         stroke-width="0.25"
         stroke="#000000"
         linecap="square" />
      <path
         id="path5929"
         d="M4 0 l-4,4"
         stroke-width="0.25"
         stroke="#000000"
         linecap="square" />
    </pattern>
    <symbol
       id="*Model_Space-0" />
    <symbol
       id="*Paper_Space-88" />
    <marker
       orient="auto"
       id="DistanceX-14"
       style="overflow:visible"
       refX="0.0"
       refY="0.0">
      <path
         id="path6487"
         d="M 3,-3 L -3,3 M 0,-5 L  0,5"
         style="stroke:#000000; stroke-width:0.5" />
    </marker>
    <pattern
       id="Hatch-99"
       x="0"
       y="0"
       patternUnits="userSpaceOnUse"
       width="8"
       height="8">
      <path
         id="path6490"
         d="M8 4 l-4,4"
         stroke-width="0.25"
         stroke="#000000"
         linecap="square" />
      <path
         id="path6492"
         d="M6 2 l-4,4"
         stroke-width="0.25"
         stroke="#000000"
         linecap="square" />
      <path
         id="path6494"
         d="M4 0 l-4,4"
         stroke-width="0.25"
         stroke="#000000"
         linecap="square" />
    </pattern>
    <symbol
       id="*Model_Space-14" />
    <symbol
       id="*Paper_Space-3" />
    <marker
       orient="auto"
       id="DistanceX-79"
       style="overflow:visible"
       refX="0.0"
       refY="0.0">
      <path
         id="path6748"
         d="M 3,-3 L -3,3 M 0,-5 L  0,5"
         style="stroke:#000000; stroke-width:0.5" />
    </marker>
    <pattern
       id="Hatch-5"
       x="0"
       y="0"
       patternUnits="userSpaceOnUse"
       width="8"
       height="8">
      <path
         id="path6751"
         d="M8 4 l-4,4"
         stroke-width="0.25"
         stroke="#000000"
         linecap="square" />
      <path
         id="path6753"
         d="M6 2 l-4,4"
         stroke-width="0.25"
         stroke="#000000"
         linecap="square" />
      <path
         id="path6755"
         d="M4 0 l-4,4"
         stroke-width="0.25"
         stroke="#000000"
         linecap="square" />
    </pattern>
    <symbol
       id="*Model_Space-9" />
    <symbol
       id="*Paper_Space-9" />
  </defs>
  <sodipodi:namedview
     id="base"
     pagecolor="#ffffff"
     bordercolor="#666666"
     borderopacity="1.0"
     inkscape:pageopacity="0.0"
     inkscape:pageshadow="2"
     inkscape:zoom="0.35"
     inkscape:cx="1470.9091"
     inkscape:cy="722.0305"
     inkscape:document-units="px"
     inkscape:current-layer="layer1"
     showgrid="false"
     units="in"
     inkscape:window-width="1600"
     inkscape:window-height="837"
     inkscape:window-x="-8"
     inkscape:window-y="-8"
     inkscape:window-maximized="1" />
  <metadata
     id="metadata6349">
    <rdf:RDF>
      <cc:Work
         rdf:about="">
        <dc:format>image/svg+xml</dc:format>
        <dc:type
           rdf:resource="http://purl.org/dc/dcmitype/StillImage" />
        <dc:title></dc:title>
      </cc:Work>
    </rdf:RDF>
  </metadata>
  <g
     inkscape:label="Layer 1"
     inkscape:groupmode="layer"
     id="layer1"
     transform="translate(0,567.63785)">
    <path
       id="path6773"
       d="m 723.60911,-482.7603 -668.976384,0"
       style="fill:none;stroke:#000000;stroke-linecap:round;stroke-opacity:1;stroke-width:2;stroke-miterlimit:4;stroke-dasharray:none"
       inkscape:connector-curvature="0" />
    <path
       id="path6775"
       d="m 54.632726,-482.7603 a 7.086614,7.086614 0 0 0 -7.086614,7.08662"
       style="fill:none;stroke:#000000;stroke-linecap:round;stroke-opacity:1;stroke-width:2;stroke-miterlimit:4;stroke-dasharray:none"
       inkscape:connector-curvature="0" />
    <path
       id="path6777"
       d="m 47.546112,-475.67368 0,1065.82677"
       style="fill:none;stroke:#000000;stroke-linecap:round;stroke-opacity:1;stroke-width:2;stroke-miterlimit:4;stroke-dasharray:none"
       inkscape:connector-curvature="0" />
    <path
       id="path6779"
       d="m 47.546112,590.15309 a 7.086614,7.086614 0 0 0 7.086614,7.08661"
       style="fill:none;stroke:#000000;stroke-linecap:round;stroke-opacity:1;stroke-width:2;stroke-miterlimit:4;stroke-dasharray:none"
       inkscape:connector-curvature="0" />
    <path
       id="path6781"
       d="m 54.632726,597.2397 257.952754,0"
       style="fill:none;stroke:#000000;stroke-linecap:round;stroke-opacity:1;stroke-width:2;stroke-miterlimit:4;stroke-dasharray:none"
       inkscape:connector-curvature="0" />
    <path
       id="path6783"
       d="m 312.58548,597.2397 a 7.086614,7.086614 0 0 0 7.08662,-7.08661"
       style="fill:none;stroke:#000000;stroke-linecap:round;stroke-opacity:1;stroke-width:2;stroke-miterlimit:4;stroke-dasharray:none"
       inkscape:connector-curvature="0" />
    <path
       id="path6785"
       d="m 319.6721,590.15309 0,-869.97579"
       style="fill:none;stroke:#000000;stroke-linecap:round;stroke-opacity:1;stroke-width:2;stroke-miterlimit:4;stroke-dasharray:none"
       inkscape:connector-curvature="0" />
    <path
       id="path6787"
       d="m 324.92456,-286.66784 a 7.086614,7.086614 0 0 0 -5.25246,6.84514"
       style="fill:none;stroke:#000000;stroke-linecap:round;stroke-opacity:1;stroke-width:2;stroke-miterlimit:4;stroke-dasharray:none"
       inkscape:connector-curvature="0" />
    <path
       id="path6789"
       d="M 849.98016,-427.35608 324.92328,-286.66801"
       style="fill:none;stroke:#000000;stroke-linecap:round;stroke-opacity:1;stroke-width:2;stroke-miterlimit:4;stroke-dasharray:none"
       inkscape:connector-curvature="0" />
    <path
       id="path6791"
       d="m 853.64848,-427.83904 a 14.173228,14.173228 0 0 0 -3.66831,0.48294"
       style="fill:none;stroke:#000000;stroke-linecap:round;stroke-opacity:1;stroke-width:2;stroke-miterlimit:4;stroke-dasharray:none"
       inkscape:connector-curvature="0" />
    <path
       id="path6793"
       d="m 853.64848,-427.83904 a 56.692913,56.692913 0 1 0 -55.81805,-66.61421"
       style="fill:none;stroke:#000000;stroke-linecap:round;stroke-opacity:1;stroke-width:2;stroke-miterlimit:4;stroke-dasharray:none"
       inkscape:connector-curvature="0" />
    <path
       id="path6795"
       d="m 783.8758,-482.7603 a 14.173228,14.173228 0 0 0 13.9545,-11.69283"
       style="fill:none;stroke:#000000;stroke-linecap:round;stroke-opacity:1;stroke-width:2;stroke-miterlimit:4;stroke-dasharray:none"
       inkscape:connector-curvature="0" />
    <path
       id="path6797"
       d="m 723.60911,-482.7603 60.26669,0"
       style="fill:none;stroke:#000000;stroke-linecap:round;stroke-opacity:1;stroke-width:2;stroke-miterlimit:4;stroke-dasharray:none"
       inkscape:connector-curvature="0" />
    <path
       id="path6799"
       d="m 889.61304,-456.1855 a 7.6181105,7.6181105 0 1 0 -15.23622,0 7.6181105,7.6181105 0 1 0 15.23622,0 z"
       style="fill:none;stroke:#000000;stroke-linecap:round;stroke-opacity:1;stroke-width:2;stroke-miterlimit:4;stroke-dasharray:none"
       inkscape:connector-curvature="0" />
    <path
       id="path6801"
       d="m 832.92013,-456.1855 a 7.61811,7.61811 0 1 0 -15.23622,0 7.61811,7.61811 0 0 0 15.23622,0 z"
       style="fill:none;stroke:#000000;stroke-linecap:round;stroke-opacity:1;stroke-width:2;stroke-miterlimit:4;stroke-dasharray:none"
       inkscape:connector-curvature="0" />
    <path
       id="path6803"
       d="m 889.61304,-512.87841 a 7.6181105,7.6181105 0 1 0 -15.23622,0 7.6181105,7.6181105 0 1 0 15.23622,0 z"
       style="fill:none;stroke:#000000;stroke-linecap:round;stroke-opacity:1;stroke-width:2;stroke-miterlimit:4;stroke-dasharray:none"
       inkscape:connector-curvature="0" />
    <path
       id="path6805"
       d="m 832.92013,-512.87841 a 7.61811,7.61811 0 1 0 -15.23622,0 7.61811,7.61811 0 0 0 15.23622,0 z"
       style="fill:none;stroke:#000000;stroke-linecap:round;stroke-opacity:1;stroke-width:2;stroke-miterlimit:4;stroke-dasharray:none"
       inkscape:connector-curvature="0" />
    <path
       id="path6807"
       d="m 871.36501,-484.53195 a 17.716536,17.716536 0 1 0 -35.43307,0 17.716536,17.716536 0 1 0 35.43307,0 z"
       style="fill:none;stroke:#000000;stroke-linecap:round;stroke-opacity:1;stroke-width:2;stroke-miterlimit:4;stroke-dasharray:none"
       inkscape:connector-curvature="0" />
    <path
       id="path6809"
       d="m 1443.6854,-481.35059 668.9764,0"
       style="fill:none;stroke:#000000;stroke-linecap:round;stroke-opacity:1;stroke-width:2;stroke-miterlimit:4;stroke-dasharray:none"
       inkscape:connector-curvature="0" />
    <path
       id="path6811"
       d="m 2119.7484,-474.26397 a 7.086614,7.086614 0 0 0 -7.0866,-7.08662"
       style="fill:none;stroke:#000000;stroke-linecap:round;stroke-opacity:1;stroke-width:2;stroke-miterlimit:4;stroke-dasharray:none"
       inkscape:connector-curvature="0" />
    <path
       id="path6813"
       d="m 2119.7484,-474.26397 0,1065.82677"
       style="fill:none;stroke:#000000;stroke-linecap:round;stroke-opacity:1;stroke-width:2;stroke-miterlimit:4;stroke-dasharray:none"
       inkscape:connector-curvature="0" />
    <path
       id="path6815"
       d="m 2112.6618,598.64941 a 7.086614,7.086614 0 0 0 7.0866,-7.08661"
       style="fill:none;stroke:#000000;stroke-linecap:round;stroke-opacity:1;stroke-width:2;stroke-miterlimit:4;stroke-dasharray:none"
       inkscape:connector-curvature="0" />
    <path
       id="path6817"
       d="m 2112.6618,598.64941 -257.9528,0"
       style="fill:none;stroke:#000000;stroke-linecap:round;stroke-opacity:1;stroke-width:2;stroke-miterlimit:4;stroke-dasharray:none"
       inkscape:connector-curvature="0" />
    <path
       id="path6819"
       d="m 1847.6224,591.5628 a 7.086614,7.086614 0 0 0 7.0866,7.08661"
       style="fill:none;stroke:#000000;stroke-linecap:round;stroke-opacity:1;stroke-width:2;stroke-miterlimit:4;stroke-dasharray:none"
       inkscape:connector-curvature="0" />
    <path
       id="path6821"
       d="m 1847.6224,591.5628 0,-869.97579"
       style="fill:none;stroke:#000000;stroke-linecap:round;stroke-opacity:1;stroke-width:2;stroke-miterlimit:4;stroke-dasharray:none"
       inkscape:connector-curvature="0" />
    <path
       id="path6823"
       d="m 1847.6224,-278.41299 a 7.086614,7.086614 0 0 0 -5.2525,-6.84514"
       style="fill:none;stroke:#000000;stroke-linecap:round;stroke-opacity:1;stroke-width:2;stroke-miterlimit:4;stroke-dasharray:none"
       inkscape:connector-curvature="0" />
    <path
       id="path6825"
       d="m 1317.3143,-425.94638 525.0569,140.68807"
       style="fill:none;stroke:#000000;stroke-linecap:round;stroke-opacity:1;stroke-width:2;stroke-miterlimit:4;stroke-dasharray:none"
       inkscape:connector-curvature="0" />
    <path
       id="path6827"
       d="m 1317.3143,-425.94639 a 14.173228,14.173228 0 0 0 -3.6683,-0.48294"
       style="fill:none;stroke:#000000;stroke-linecap:round;stroke-opacity:1;stroke-width:2;stroke-miterlimit:4;stroke-dasharray:none"
       inkscape:connector-curvature="0" />
    <path
       id="path6829"
       d="m 1369.4641,-493.04354 a 56.692913,56.692913 0 1 0 -55.8181,66.61421"
       style="fill:none;stroke:#000000;stroke-linecap:round;stroke-opacity:1;stroke-width:2;stroke-miterlimit:4;stroke-dasharray:none"
       inkscape:connector-curvature="0" />
    <path
       id="path6831"
       d="m 1369.4642,-493.04342 a 14.173228,14.173228 0 0 0 13.9545,11.69283"
       style="fill:none;stroke:#000000;stroke-linecap:round;stroke-opacity:1;stroke-width:2;stroke-miterlimit:4;stroke-dasharray:none"
       inkscape:connector-curvature="0" />
    <path
       id="path6833"
       d="m 1443.6854,-481.35059 -60.2667,0"
       style="fill:none;stroke:#000000;stroke-linecap:round;stroke-opacity:1;stroke-width:2;stroke-miterlimit:4;stroke-dasharray:none"
       inkscape:connector-curvature="0" />
    <path
       id="path6835"
       d="m 1292.9177,-454.77579 a 7.6181105,7.6181105 0 1 0 -15.2362,0 7.6181105,7.6181105 0 1 0 15.2362,0 z"
       style="fill:none;stroke:#000000;stroke-linecap:round;stroke-opacity:1;stroke-width:2;stroke-miterlimit:4;stroke-dasharray:none"
       inkscape:connector-curvature="0" />
    <path
       id="path6837"
       d="m 1349.6106,-454.77579 a 7.61811,7.61811 0 1 0 -15.2362,0 7.61811,7.61811 0 1 0 15.2362,0 z"
       style="fill:none;stroke:#000000;stroke-linecap:round;stroke-opacity:1;stroke-width:2;stroke-miterlimit:4;stroke-dasharray:none"
       inkscape:connector-curvature="0" />
    <path
       id="path6839"
       d="m 1292.9177,-511.4687 a 7.6181105,7.6181105 0 1 0 -15.2362,0 7.6181105,7.6181105 0 1 0 15.2362,0 z"
       style="fill:none;stroke:#000000;stroke-linecap:round;stroke-opacity:1;stroke-width:2;stroke-miterlimit:4;stroke-dasharray:none"
       inkscape:connector-curvature="0" />
    <path
       id="path6841"
       d="m 1349.6106,-511.4687 a 7.61811,7.61811 0 1 0 -15.2362,0 7.61811,7.61811 0 1 0 15.2362,0 z"
       style="fill:none;stroke:#000000;stroke-linecap:round;stroke-opacity:1;stroke-width:2;stroke-miterlimit:4;stroke-dasharray:none"
       inkscape:connector-curvature="0" />
    <path
       id="path6843"
       d="m 1331.3626,-483.12224 a 17.71655,17.71655 0 1 0 -35.4331,0 17.71655,17.71655 0 1 0 35.4331,0 z"
       style="fill:none;stroke:#000000;stroke-linecap:round;stroke-opacity:1;stroke-width:2;stroke-miterlimit:4;stroke-dasharray:none"
       inkscape:connector-curvature="0" />
  </g>
</svg>
